<?xml version="1.0" encoding="UTF-8"?>
<svg preserveAspectRatio="xMidYMin slice" xmlns="http://www.w3.org/2000/svg" xmlns:xlink="http://www.w3.org/1999/xlink" width="210px" height="60px" viewBox="0 0 210 60" version="1.1">
  <title>Logo</title>
  <defs>
    <rect id="path-1" x="0" y="0" width="210" height="60"></rect>
  </defs>
  <g id="Who-is-Mahlatini" stroke="none" stroke-width="1" fill="none" fill-rule="evenodd">
    <g id="5.0---Who-is-Mahlatini---Mahlatini-Reviews" transform="translate(-725.000000, -710.000000)">
      <g id="Customer-Reviews" transform="translate(0.000000, 590.000000)">
        <g id="Logo" transform="translate(725.000000, 120.000000)">
          <mask id="mask-2" fill="white">
            <use xlink:href="#path-1"></use>
          </mask>
          <g id="Rectangle"></g>
          <path d="M69.425,21.05 L84.6,21.05 L84.6,23.875 L78.625,23.875 L78.625,39.8 L75.35,39.8 L75.35,23.875 L69.4,23.875 L69.425,21.05 Z M83.95,26.225 L86.75,26.225 L86.75,28.85 L86.8,28.85 C86.9,28.475 87.075,28.125 87.325,27.775 C87.575,27.425 87.875,27.1 88.25,26.825 C88.6,26.525 89,26.3 89.45,26.125 C89.875,25.95 90.325,25.85 90.775,25.85 C91.125,25.85 91.375,25.875 91.5,25.875 C91.625,25.9 91.775,25.925 91.9,25.925 L91.9,28.8 C91.7,28.75 91.475,28.725 91.25,28.7 C91.025,28.675 90.825,28.65 90.6,28.65 C90.1,28.65 89.625,28.75 89.175,28.95 C88.725,29.15 88.35,29.45 88,29.825 C87.675,30.225 87.4,30.7 87.2,31.275 C87,31.85 86.9,32.525 86.9,33.275 L86.9,39.725 L83.9,39.725 L83.95,26.225 Z M105.65,39.8 L102.7,39.8 L102.7,37.9 L102.65,37.9 C102.275,38.6 101.725,39.125 101,39.55 C100.275,39.975 99.525,40.175 98.775,40.175 C97,40.175 95.7,39.75 94.9,38.85 C94.1,37.975 93.7,36.625 93.7,34.85 L93.7,26.225 L96.7,26.225 L96.7,34.55 C96.7,35.75 96.925,36.6 97.4,37.075 C97.85,37.575 98.5,37.825 99.325,37.825 C99.95,37.825 100.475,37.725 100.9,37.525 C101.325,37.325 101.675,37.075 101.925,36.75 C102.2,36.425 102.375,36.025 102.5,35.575 C102.625,35.125 102.675,34.625 102.675,34.1 L102.675,26.225 L105.675,26.225 L105.675,39.8 L105.65,39.8 Z M110.75,35.45 C110.85,36.325 111.175,36.925 111.75,37.3 C112.325,37.65 113.025,37.825 113.825,37.825 C114.1,37.825 114.425,37.8 114.775,37.75 C115.125,37.7 115.475,37.625 115.775,37.5 C116.1,37.375 116.35,37.2 116.55,36.95 C116.75,36.7 116.85,36.4 116.825,36.025 C116.8,35.65 116.675,35.325 116.4,35.075 C116.125,34.825 115.8,34.65 115.4,34.475 C115,34.325 114.525,34.2 114,34.1 C113.475,34 112.95,33.875 112.4,33.75 C111.85,33.625 111.3,33.475 110.775,33.3 C110.25,33.125 109.8,32.9 109.375,32.575 C108.975,32.275 108.625,31.9 108.4,31.425 C108.15,30.95 108.025,30.4 108.025,29.7 C108.025,28.95 108.2,28.35 108.575,27.85 C108.925,27.35 109.4,26.95 109.95,26.65 C110.5,26.35 111.125,26.125 111.8,26 C112.475,25.875 113.125,25.825 113.725,25.825 C114.425,25.825 115.1,25.9 115.725,26.05 C116.35,26.2 116.95,26.425 117.45,26.775 C117.975,27.1 118.4,27.55 118.725,28.075 C119.075,28.6 119.275,29.25 119.375,30 L116.25,30 C116.1,29.275 115.775,28.8 115.275,28.55 C114.75,28.3 114.175,28.175 113.5,28.175 C113.3,28.175 113.025,28.2 112.75,28.225 C112.45,28.275 112.2,28.325 111.925,28.425 C111.675,28.525 111.45,28.675 111.275,28.85 C111.1,29.025 111,29.275 111,29.575 C111,29.95 111.125,30.225 111.375,30.45 C111.625,30.675 111.95,30.85 112.375,31.025 C112.775,31.175 113.25,31.3 113.775,31.4 C114.3,31.5 114.85,31.625 115.4,31.75 C115.95,31.875 116.475,32.025 117,32.2 C117.525,32.375 118,32.6 118.4,32.925 C118.8,33.225 119.15,33.6 119.4,34.05 C119.65,34.5 119.775,35.075 119.775,35.725 C119.775,36.525 119.6,37.2 119.225,37.775 C118.85,38.325 118.375,38.8 117.8,39.15 C117.225,39.5 116.55,39.75 115.85,39.925 C115.125,40.075 114.425,40.175 113.725,40.175 C112.875,40.175 112.075,40.075 111.35,39.875 C110.625,39.675 109.975,39.375 109.45,39 C108.925,38.6 108.5,38.125 108.2,37.525 C107.9,36.95 107.725,36.25 107.7,35.425 L110.725,35.425 L110.725,35.45 L110.75,35.45 Z M120.625,26.225 L122.9,26.225 L122.9,22.125 L125.9,22.125 L125.9,26.2 L128.6,26.2 L128.6,28.425 L125.9,28.425 L125.9,35.675 C125.9,36 125.925,36.25 125.95,36.5 C125.975,36.725 126.05,36.925 126.125,37.075 C126.225,37.225 126.375,37.35 126.55,37.425 C126.75,37.5 127,37.55 127.35,37.55 C127.55,37.55 127.775,37.55 127.975,37.525 C128.175,37.5 128.4,37.475 128.6,37.425 L128.6,39.75 C128.275,39.8 127.95,39.825 127.625,39.85 C127.3,39.9 127,39.9 126.65,39.9 C125.85,39.9 125.225,39.825 124.75,39.675 C124.275,39.525 123.9,39.3 123.625,39.025 C123.35,38.725 123.175,38.375 123.075,37.95 C122.975,37.525 122.925,37 122.9,36.45 L122.9,28.45 L120.625,28.45 L120.625,26.175 L120.625,26.225 Z M130.7,26.225 L133.525,26.225 L133.525,28.075 L133.575,28.075 C134,27.275 134.575,26.725 135.325,26.375 C136.075,26.025 136.875,25.85 137.775,25.85 C138.85,25.85 139.775,26.025 140.575,26.425 C141.375,26.8 142.025,27.3 142.55,27.975 C143.075,28.625 143.475,29.4 143.725,30.275 C143.975,31.15 144.125,32.1 144.125,33.075 C144.125,34 144,34.875 143.775,35.725 C143.525,36.575 143.175,37.35 142.7,38 C142.225,38.65 141.625,39.175 140.875,39.575 C140.125,39.975 139.275,40.175 138.275,40.175 C137.85,40.175 137.4,40.125 136.975,40.05 C136.55,39.975 136.125,39.85 135.725,39.675 C135.325,39.5 134.95,39.275 134.625,39 C134.275,38.725 134,38.4 133.775,38.05 L133.725,38.05 L133.725,44.825 L130.725,44.825 L130.725,26.225 L130.7,26.225 Z M141.175,33.025 C141.175,32.425 141.1,31.825 140.925,31.25 C140.775,30.675 140.525,30.175 140.2,29.725 C139.875,29.275 139.475,28.925 139.025,28.65 C138.55,28.375 138,28.25 137.4,28.25 C136.15,28.25 135.2,28.675 134.55,29.55 C133.925,30.425 133.6,31.6 133.6,33.05 C133.6,33.75 133.675,34.375 133.85,34.95 C134.025,35.525 134.25,36.025 134.6,36.45 C134.925,36.875 135.325,37.2 135.8,37.45 C136.275,37.7 136.8,37.825 137.425,37.825 C138.125,37.825 138.675,37.675 139.15,37.4 C139.625,37.125 140,36.75 140.325,36.325 C140.625,35.875 140.85,35.375 140.975,34.8 C141.1,34.2 141.175,33.625 141.175,33.025 L141.175,33.025 Z M146.45,21.05 L149.45,21.05 L149.45,23.875 L146.45,23.875 L146.45,21.05 Z M146.45,26.225 L149.45,26.225 L149.45,39.8 L146.45,39.8 L146.45,26.225 Z M152.125,21.05 L155.125,21.05 L155.125,39.8 L152.125,39.8 L152.125,21.05 Z M164.275,40.175 C163.2,40.175 162.225,40 161.375,39.625 C160.525,39.25 159.825,38.775 159.225,38.15 C158.65,37.525 158.2,36.75 157.9,35.875 C157.6,35 157.425,34.025 157.425,33 C157.425,31.975 157.575,31.025 157.9,30.15 C158.2,29.275 158.65,28.525 159.225,27.875 C159.8,27.25 160.525,26.75 161.375,26.4 C162.225,26.05 163.2,25.85 164.275,25.85 C165.35,25.85 166.325,26.025 167.175,26.4 C168.025,26.75 168.725,27.25 169.325,27.875 C169.9,28.5 170.35,29.275 170.65,30.15 C170.95,31.025 171.125,31.975 171.125,33 C171.125,34.05 170.975,35 170.65,35.875 C170.325,36.75 169.9,37.5 169.325,38.15 C168.75,38.775 168.025,39.275 167.175,39.625 C166.325,39.975 165.375,40.175 164.275,40.175 Z M164.275,37.8 C164.925,37.8 165.525,37.65 166,37.375 C166.5,37.1 166.875,36.725 167.2,36.275 C167.525,35.825 167.75,35.3 167.9,34.75 C168.05,34.175 168.125,33.6 168.125,33 C168.125,32.425 168.05,31.85 167.9,31.275 C167.75,30.7 167.525,30.2 167.2,29.75 C166.875,29.3 166.475,28.95 166,28.675 C165.5,28.4 164.925,28.25 164.275,28.25 C163.625,28.25 163.025,28.4 162.55,28.675 C162.05,28.95 161.675,29.325 161.35,29.75 C161.025,30.2 160.8,30.7 160.65,31.275 C160.5,31.85 160.425,32.425 160.425,33 C160.425,33.6 160.5,34.175 160.65,34.75 C160.8,35.325 161.025,35.825 161.35,36.275 C161.675,36.725 162.075,37.1 162.55,37.375 C163.05,37.675 163.625,37.8 164.275,37.8 Z M172.025,26.225 L174.3,26.225 L174.3,22.125 L177.3,22.125 L177.3,26.2 L180,26.2 L180,28.425 L177.3,28.425 L177.3,35.675 C177.3,36 177.325,36.25 177.35,36.5 C177.375,36.725 177.45,36.925 177.525,37.075 C177.625,37.225 177.775,37.35 177.95,37.425 C178.15,37.5 178.4,37.55 178.75,37.55 C178.95,37.55 179.175,37.55 179.375,37.525 C179.575,37.5 179.8,37.475 180,37.425 L180,39.75 C179.675,39.8 179.35,39.825 179.025,39.85 C178.7,39.9 178.4,39.9 178.05,39.9 C177.25,39.9 176.625,39.825 176.15,39.675 C175.675,39.525 175.3,39.3 175.025,39.025 C174.75,38.725 174.575,38.375 174.475,37.95 C174.375,37.525 174.325,37 174.3,36.45 L174.3,28.45 L172.025,28.45 L172.025,26.175 L172.025,26.225 Z" id="Combined-Shape" fill="#2B3834" fill-rule="nonzero" mask="url(#mask-2)"></path>
          <polygon id="Combined-Shape" fill="#00B778" fill-rule="nonzero" mask="url(#mask-2)" points="65.925 21.05 52.2 21.05 47.975 8 43.725 21.05 30 21.025 41.1 29.1 36.85 42.15 47.95 34.075 59.05 42.15 54.825 29.1"></polygon>
          <polygon id="Path" fill="#005326" fill-rule="nonzero" mask="url(#mask-2)" points="55.775 32.05 54.825 29.1 47.975 34.075"></polygon>
        </g>
      </g>
    </g>
  </g>
</svg>
