<?xml version="1.0" encoding="UTF-8"?>
<svg preserveAspectRatio="xMidYMid slice" xmlns="http://www.w3.org/2000/svg" xmlns:xlink="http://www.w3.org/1999/xlink" width="80px" height="80px" viewBox="0 0 80 80" version="1.1">
  <title>Group 11</title>
  <g id="Itineraries" stroke="none" stroke-width="1" fill="none" fill-rule="evenodd">
    <g id="6.0---Itineraries---Specific---No-Highlights-Block" transform="translate(-1055.000000, -10963.000000)">
      <g id="Overview" transform="translate(0.000000, 10434.000000)">
        <g id="USPs" transform="translate(435.000000, 529.000000)">
          <g id="3" transform="translate(540.000000, 0.000000)">
            <g id="Group-11" transform="translate(80.000000, 0.000000)">
              <g id="Group-7" transform="translate(20.000000, 21.999922)">
                <path d="M15.308349,2.21819083 C15.3036521,2.23879088 15.3036521,2.26042958 15.2994771,2.30232211 C16.4248234,2.84103922 17.705168,3.00705134 18.6751681,3.86429015 C18.7054371,3.80647154 18.7224852,3.78344796 18.7306613,3.75748152 C19.0114325,2.8640628 19.720319,2.42730725 20.6374353,2.66342876 C21.3306654,2.84207788 21.9974535,3.12043814 22.6802459,3.34046046 C23.0904433,3.4727162 23.503424,3.61085767 23.9257985,3.68442926 C24.2236178,3.73636214 24.5400508,3.69221919 24.8474379,3.67698555 C25.5601514,3.64184429 26.0508921,3.97940804 26.3901139,4.57352023 C26.771086,5.24051157 26.9867962,5.96895682 27.1724114,6.70675 C27.4143895,7.66923945 27.6337529,8.63778773 27.893475,9.59543011 C28.0074187,10.0150478 28.1507616,10.4398588 28.4769363,10.7595923 C28.617148,10.8972144 28.7704066,11.0265273 28.9346247,11.1340284 C29.5774064,11.5546847 30.0420532,12.126812 30.4108481,12.7893025 C30.5811548,13.0951872 30.7831222,13.3837609 30.9541247,13.6892994 C31.065633,13.8883754 31.2375053,13.9062057 31.4219028,13.8762577 C32.3191877,13.7308457 33.1625451,13.4611409 33.8385531,12.8128454 C34.0005097,12.6575661 34.1796884,12.5197708 34.3736536,12.3547973 C34.6782573,12.9681247 35.095761,13.4931662 35.1943962,14.1651777 C35.3006857,14.8875641 35.1289873,15.5587101 34.8036824,16.1980039 C34.281281,17.2241977 33.5276868,18.0748583 32.6817201,18.8375793 C31.975617,19.4741033 31.24342,20.0898542 30.471734,20.6443243 C29.6024566,21.2685576 29.1070189,22.11264 28.7820619,23.0893245 C28.6355877,23.5297153 28.768841,23.9595465 28.8742606,24.3822802 C29.0616154,25.1330566 29.301854,25.8717153 29.4650283,26.6271656 C29.7259681,27.8351245 29.2223543,28.8426225 28.1304083,29.4355229 C27.771877,29.6300981 27.4265667,29.8496011 27.0810824,30.0666805 C26.9032955,30.1783362 26.8911183,30.3081684 27.0417675,30.4752192 C27.3501983,30.81763 27.5652127,31.2102426 27.6447124,31.6731377 C27.7897949,32.5191244 27.2539985,33.4272575 26.4271673,33.6007133 C26.0978613,33.669784 26.0348878,33.7876717 25.9922677,34.0869782 C25.9592153,34.3179064 25.7979545,34.5630296 25.6264301,34.735793 C25.1478665,35.2180764 24.8049916,35.7773936 24.5228288,36.3867394 C24.3198176,36.8253992 23.9579811,37.1292065 23.5536984,37.3788306 C22.8505526,37.8131626 22.0670374,38.0319732 21.2647346,38.1900222 C20.7400716,38.2933687 20.214191,38.3944647 19.6850051,38.4701136 C18.5794902,38.6283358 17.4283978,37.6840228 17.3953455,36.5736978 C17.3850818,36.2288634 17.2854028,35.966083 17.0876105,35.6828757 C16.3411487,34.6130583 15.8189212,33.4450877 15.7042817,32.1282429 C15.6747085,31.7889481 15.560069,31.490334 15.3652339,31.2163015 C15.1194286,30.8704285 14.8798859,30.5197084 14.6271222,30.1788556 C13.8757896,29.1652988 13.7769804,28.0776511 14.242497,26.9237024 C14.3764461,26.5916782 14.5072639,26.2579228 14.6554777,25.9323036 C15.013835,25.1453473 14.8927589,24.3912819 14.4992617,23.6616248 C14.36827,23.4184058 14.2047477,23.1893818 14.034267,22.9707444 C13.4476744,22.2189293 13.1710782,21.3556317 13.0665283,20.4223978 C13.0223425,20.0275347 13.0002496,19.640981 13.0971453,19.2476759 C13.1261966,19.1301345 13.0510459,18.980914 13.0014674,18.8547171 C12.9875506,18.8190565 12.8930904,18.7920514 12.8395107,18.7981103 C12.0653894,18.8837995 11.4916698,18.5680476 11.0494638,17.9510849 C10.9430004,17.8025569 10.7904376,17.6751482 10.6345695,17.5761295 C10.459044,17.4646469 10.2605558,17.4698402 10.0712875,17.5839194 C9.26933257,18.0672415 8.41919074,18.1323307 7.52434123,17.8904966 C7.39474114,17.8555284 7.22878343,17.918021 7.08891971,17.9637219 C6.79701506,18.0592784 6.51833137,18.2012283 6.22172981,18.2747999 C5.62122038,18.4235011 5.0577644,18.2784352 4.52631704,17.9867455 C3.7589801,17.5655698 3.03913421,17.0986932 2.45114989,16.4232195 C2.00737829,15.9135848 1.45227239,15.4998528 0.94726692,15.0431896 C0.670496786,14.7928731 0.389029735,14.5472306 0.122175313,14.2867006 C0.0583320452,14.2245543 0.0221483947,14.1139372 0.0117108032,14.0213236 C-0.0580470998,13.399687 0.204284366,12.8701447 0.48088054,12.3395637 C0.661972752,11.9923058 0.817666825,11.6298143 0.957182632,11.2636875 C1.05268659,11.0131978 0.996497559,10.7788074 0.772437262,10.5954843 C0.659885234,10.50339 0.568556309,10.3855024 0.46870335,10.2785206 C-0.036997957,9.73668756 -0.134415477,9.107261 0.180973745,8.43888479 C0.730860856,7.2740302 1.57369637,6.37178289 2.66494656,5.6911159 C2.86378268,5.5669963 3.06053127,5.43941452 3.25675799,5.31114029 C3.40392803,5.21506446 3.45681183,5.08627091 3.45315867,4.90312094 C3.44759196,4.63480104 3.46811922,4.36267272 3.50830395,4.09694947 C3.58275877,3.60479884 3.83343492,3.21028203 4.23789159,2.91530325 C4.33844039,2.84190477 4.43829335,2.76590965 4.54580054,2.7037633 C4.75820553,2.58085547 4.87040964,2.43648206 4.89076294,2.160026 C4.95025721,1.35402765 5.76543311,0.79713402 6.64166891,0.938218354 C6.86973029,0.974917592 7.08474467,1.08553464 7.31054457,1.14352636 C7.44658117,1.17832139 7.60436277,1.22021391 7.73083158,1.18420711 C8.15320612,1.06406904 8.57331917,0.928177997 8.98090712,0.76562807 C9.92533519,0.389114661 10.9153407,0.230719365 11.9171756,0.125122501 C12.435228,0.0705929729 12.955194,0.0202180755 13.475508,0.00152223725 C14.7648984,-0.0446980295 15.594339,0.967646989 15.308349,2.21819083 Z M13.4400202,1.85275644 C13.0820108,1.87924221 12.760359,1.89586073 12.4404468,1.92805912 C11.3208412,2.04040726 10.2188055,2.1960328 9.18983291,2.71518853 C8.39692388,3.11524485 7.54660809,3.2421342 6.66045658,2.90214692 C6.48510504,3.52170622 6.04655224,3.92228187 5.54363429,4.26971286 C5.53771965,4.27386749 5.53267482,4.279407 5.52641226,4.28321541 C5.38915793,4.36786601 5.34497213,4.48194525 5.34966905,4.6486498 C5.37402343,5.52285335 5.10838672,6.27761127 4.374798,6.81373174 C4.16865557,6.9643371 3.94163796,7.08741804 3.72070894,7.21725025 C3.00416828,7.63790661 2.42053296,8.18718341 2.01433669,8.91787909 C1.93379327,9.06294494 1.93518495,9.14984597 2.06200169,9.2692916 C2.78410906,9.94891994 3.01686735,10.7829621 2.75384004,11.7283137 C2.62963271,12.1744171 2.42470799,12.5992281 2.24326786,13.0283669 C2.17316204,13.1940328 2.06704653,13.3446381 1.97102068,13.5130738 C2.05713081,13.5837025 2.13297731,13.6404824 2.2023873,13.7040137 C2.79245913,14.2411728 3.41610522,14.7475184 3.95885998,15.3286474 C4.35235718,15.7499962 4.81613416,16.0250674 5.30861452,16.2857704 C5.64226953,16.4623423 5.95226599,16.4877894 6.30140343,16.294599 C6.89338883,15.9672488 7.52016619,15.9196436 8.17547298,16.1304911 C8.34682344,16.18554 8.56618682,16.1512643 8.74762695,16.1012356 C9.01465533,16.0274909 9.26220021,15.885541 9.52801088,15.8045257 C9.77085884,15.7306079 10.0265798,15.6584212 10.277256,15.6558246 C11.2406457,15.6459573 11.9768438,16.0951768 12.5383862,16.8475111 C12.6405007,16.9842677 12.7328733,17.0467603 12.8727371,16.9347584 C13.2817167,16.6075812 13.6266791,16.7268537 13.9453735,17.0723805 L13.9792957,17.1000781 L13.9792957,17.1000781 C14.6514766,17.7876694 15.0908992,18.5557568 14.9390323,19.570006 C14.823349,20.3412094 14.9237238,21.078137 15.4144646,21.7302409 C15.6646188,22.0627845 15.9114679,22.4043297 16.1076946,22.7692448 C16.8111883,24.0786459 16.9700136,25.4219765 16.305313,26.8049492 C16.1600565,27.1071986 16.0511576,27.4267589 15.9255586,27.7383562 C15.7512508,28.1704378 15.7843032,28.5814001 16.0567243,28.9653572 C16.2980067,29.3053445 16.5361577,29.6477553 16.786486,29.9813375 C17.2467837,30.5946649 17.4979818,31.2798327 17.5738283,32.0420343 C17.674725,33.0580147 18.0751806,33.9559342 18.732053,34.7382166 C18.9728134,35.0250592 19.1492087,35.3432347 19.2170531,35.7081497 C19.2527149,35.899609 19.2290563,36.1012817 19.2370585,36.2981073 C19.2455825,36.5125901 19.3870119,36.6247651 19.5966335,36.5908356 C19.8210417,36.5546557 20.045276,36.5160523 20.27038,36.4845463 C21.0215387,36.3794688 21.7629556,36.2430584 22.4375719,35.8703534 C22.6863345,35.7327313 22.8616861,35.5461191 23.0076384,35.2892245 C23.3019785,34.7705881 23.6417221,34.2751483 23.9920772,33.791307 C24.1291576,33.6019251 24.3260802,33.4656878 24.1449879,33.2058503 C24.122895,33.1741712 24.1289836,33.1205072 24.1282878,33.0768836 C24.1213294,32.5795397 24.3481731,32.2097775 24.7950759,32.0100091 C25.0701065,31.8869281 25.3787113,31.8386305 25.661396,31.7596926 C25.4917852,31.4837558 25.2945147,31.2017603 25.1376029,30.8991647 C24.8277804,30.3015903 24.9171958,29.69311 25.3585319,29.1907459 C25.7922138,28.6968642 26.2711253,28.2616666 26.8772015,27.9801904 C27.0424633,27.9035028 27.1920688,27.7935782 27.3507202,27.7021763 C27.7132526,27.4930599 27.7073379,27.1679601 27.6299258,26.88683 C27.4361345,26.1829664 27.2249472,25.4829111 27.0593374,24.7724692 C26.9036434,24.1042661 26.7533421,23.4222143 26.9372176,22.7356615 C27.3241043,21.2919274 28.0743932,20.0881231 29.3171624,19.2095918 C29.765631,18.8926281 30.2137516,18.5673551 30.6166426,18.1967275 C31.2625555,17.6026153 31.8865495,16.9827097 32.4863631,16.3427235 C32.7274715,16.0856557 32.8803822,15.746534 33.0860028,15.4247232 C32.543422,15.5308394 32.0660761,15.646996 31.5819458,15.7138163 C30.7519834,15.8280686 30.0303979,15.6191253 29.5351341,14.8981238 C29.1955645,14.4038958 28.8739127,13.897204 28.5583495,13.3875693 C28.370125,13.0837619 28.1415417,12.8339648 27.8432006,12.6295223 C27.1367496,12.1453347 26.5898198,11.5174661 26.3168768,10.699177 C26.0630693,9.93818715 25.8473591,9.16404096 25.6325187,8.39076031 C25.4001083,7.55446777 25.2162328,6.70398024 24.9558148,5.87703562 C24.8152553,5.43023971 24.8491774,5.50069532 24.4019267,5.53375926 C23.8725668,5.57305514 23.3564279,5.52891219 22.8597725,5.35874544 C22.1942021,5.13076008 21.540287,4.86919145 20.8795874,4.62683799 C20.7327653,4.5730009 20.5784629,4.53959075 20.422073,4.49527469 C20.3883248,4.60554551 20.3683194,4.68292551 20.3410077,4.75770886 C20.1339955,5.32221931 19.737367,5.65995617 19.135118,5.74685719 C18.5165167,5.83618175 17.9859392,5.6300082 17.4826733,5.28707806 C17.1886811,5.08661713 16.8760753,4.89862009 16.5465953,4.76705678 C15.9140773,4.51448985 15.2638153,4.30571966 14.6206857,4.07929229 C13.9406766,3.83970858 13.3662612,3.42701526 12.7960208,3.00168494 C12.9939871,2.60872612 13.3304255,2.30959271 13.4400202,1.85275644 Z M33.6051159,24.7885813 C33.7679871,24.9488303 33.8491787,25.1232653 33.8779781,25.3371058 C33.9948028,26.2013996 33.8688664,27.0278642 33.5685065,27.8331374 C33.3275352,28.4800881 33.1509965,29.1412247 33.1345629,29.8503485 C33.1246377,30.2818825 32.9225537,30.654746 32.6753995,30.9915317 C32.6501797,31.0260334 32.6202413,31.0589588 32.5868861,31.083653 C32.1075468,31.4381273 31.8960258,31.3817336 31.655868,30.9001109 C31.4013919,30.3902914 31.2775707,29.839315 31.3200377,29.255238 C31.3257325,29.1755513 31.3361458,29.0883338 31.3709654,29.0202061 C31.5528735,28.6629296 31.5510837,28.2828855 31.5055254,27.8965365 C31.4218932,27.1888138 31.5750019,26.7875783 32.1667727,26.5054349 C32.8047528,26.2012245 33.1688944,25.6583043 33.4757627,25.034997 C33.5136737,24.9582876 33.5550017,24.8835047 33.6051159,24.7885813 Z" id="Combined-Shape" fill="#FFFFFF"></path>
                <g id="Group-5" transform="translate(20.000000, 19.419408)" fill="#e48e45" stroke="#3F5450">
                  <path d="M8.5,1.45089455 L11.3301201,7.18534418 L17.658461,8.10490593 L13.0792305,12.5685525 L14.1602402,18.8713225 L8.5,15.8955582 L2.83975984,18.8713225 L3.92076952,12.5685525 L-0.658460959,8.10490593 L5.66987992,7.18534418 L8.5,1.45089455 Z" id="Star"></path>
                </g>
              </g>
            </g>
          </g>
        </g>
      </g>
    </g>
  </g>
</svg>
