<?xml version="1.0" encoding="UTF-8"?>
<svg preserveAspectRatio="xMidYMid slice" xmlns="http://www.w3.org/2000/svg" xmlns:xlink="http://www.w3.org/1999/xlink" width="80px" height="80px" viewBox="0 0 80 80" version="1.1">
  <title>Group 9</title>
  <g id="Itineraries" stroke="none" stroke-width="1" fill="none" fill-rule="evenodd">
    <g id="6.0---Itineraries---Specific---No-Highlights-Block" transform="translate(-515.000000, -10963.000000)" fill-rule="nonzero">
      <g id="Overview" transform="translate(0.000000, 10434.000000)">
        <g id="USPs" transform="translate(435.000000, 529.000000)">
          <g id="Group-9" transform="translate(80.000000, 0.000000)">
            <g id="Group-6" transform="translate(23.000000, 21.000000)">
              <path d="M22.037037,0 L22.2565354,0.012676461 C22.2938864,0.0170147139 22.3310354,0.0224584381 22.3732996,0.0301922526 L22.4411969,0.0436586195 L22.4962704,0.0564997356 L22.6707919,0.109494847 C22.7632555,0.14213912 22.8530659,0.182235444 22.9375804,0.228055824 L23.0600501,0.300863434 L33.1234556,6.68940652 C33.6238189,7.00704674 33.9433903,7.53905375 33.9931774,8.12352391 L34,8.28410397 L34,33.2800325 C34,34.323237 33.1543156,35.1689214 32.1111111,35.1689214 C31.8123363,35.1689214 31.5187034,35.0980613 31.2539266,34.9632219 L31.0987129,34.8746958 L24.8664957,30.9168106 C25.0409157,30.5273949 25.2053691,30.1338093 25.3580595,29.7372425 L31.773663,33.8115983 C31.8493353,33.8596365 31.9340894,33.8907783 32.0221551,33.9033468 L32.1111111,33.9096621 C32.4272337,33.9096621 32.688943,33.6766912 32.7339139,33.3730745 L32.7407407,33.2800325 L32.7407407,8.28410397 C32.7407407,8.09937538 32.6597546,7.92564743 32.5220323,7.80704115 L32.4485555,7.75253575 L22.952,1.724 L22.9524884,16.1838384 C22.4737308,15.7743805 21.9568663,15.408763 21.4080095,15.0931403 L21.407,1.541 L12.878,6.956 L12.8782555,14.3706976 C12.3403632,14.5686488 11.8237083,14.8110143 11.3326669,15.0933883 L11.333,7.139 L2.22633704,1.35732308 C2.15066471,1.30928483 2.06591062,1.27814306 1.97784485,1.26557456 L1.88888889,1.25925926 C1.5727663,1.25925926 1.31105699,1.49223016 1.26608606,1.79584684 L1.25925926,1.88888889 L1.25925926,26.8848174 C1.25925926,27.069546 1.34024543,27.2432739 1.47796767,27.3618802 L1.55144452,27.4163856 L8.50542146,31.8320149 C8.91501502,32.6278219 9.35964146,33.4084095 9.82258549,34.1599217 L0.876544427,28.4795148 C0.376181103,28.1618746 0.0566097365,27.6298676 0.00682258731,27.0453974 L0,26.8848174 L0,1.88888889 C0,0.845684363 0.845684361,0 1.88888889,0 C2.1876637,0 2.48129656,0.0708600465 2.74604403,0.205680794 L2.90123632,0.294193332 L11.9617037,6.0458681 L21.0082414,0.30457884 L21.1344318,0.229392728 L21.1344318,0.229392728 L21.2677984,0.163605701 L21.4094747,0.10697023 L21.6309041,0.0441092373 L21.8413752,0.0100915953 L22.037037,0 Z" id="Combined-Shape" stroke="#FFFFFF" stroke-width="0.25" fill="#FFFFFF"></path>
              <path d="M16.3708897,15.1111112 C21.2386407,15.1111112 25.1851852,19.0856969 25.1851852,23.9897977 C25.1851852,29.0808401 21.3487285,34.6776633 18.684811,37.46517 C18.5138218,37.6439692 18.3382861,37.8318347 18.1640362,38.021288 L17.9043547,38.305724 C17.0897008,39.2042884 16.3698511,40.0543109 16.3698511,40.0543109 C16.3698511,40.0543109 15.6427893,39.1371847 14.8456739,38.2165598 L14.5923908,37.9267855 C14.4653513,37.7829058 14.3382894,37.6413365 14.2137915,37.505674 C11.5477969,34.5966553 7.55555556,28.6217947 7.55555556,23.9897977 C7.55555556,19.0856969 11.5021,15.1111112 16.3708897,15.1111112 Z M16.3703704,20.4000001 C14.4239857,20.4000001 12.8444444,21.977424 12.8444444,23.9263824 C12.8444444,25.8735151 14.4239857,27.4518519 16.3703704,27.4518519 C18.316755,27.4518519 19.8962963,25.8726023 19.8962963,23.9263824 C19.8962963,21.9783369 18.316755,20.4000001 16.3703704,20.4000001 Z" id="Combined-Shape" fill="#e48e45"></path>
            </g>
          </g>
        </g>
      </g>
    </g>
  </g>
</svg>
