<?xml version="1.0" encoding="UTF-8"?>
<svg id="Layer_2" data-name="Layer 2" xmlns="http://www.w3.org/2000/svg" viewBox="0 0 418.74 419.93">
  <defs>
    <style>
      .cls-1 {
        fill: #fff;
      }

      .cls-2 {
        fill: #fafafa;
      }

      .cls-3 {
        fill: #9e6767;
      }

      .cls-4 {
        opacity: .2;
      }

      .cls-5 {
        fill: #f28f8f;
      }

      .cls-6 {
        fill: #874c4c;
      }

      .cls-7 {
        fill: #b98068;
      }

      .cls-8 {
        fill: #e48e45;
      }

      .cls-9 {
        opacity: .15;
      }

      .cls-10 {
        opacity: .45;
      }

      .cls-11 {
        fill: #cf8d5d;
      }

      .cls-12 {
        fill: #e49460;
      }

      .cls-13 {
        fill: #a57f66;
      }
    </style>
  </defs>
  <g id="Icons">
    <ellipse id="Shadow" class="cls-8" cx="106.86" cy="378.91" rx="71.04" ry="41.01"/>
    <ellipse id="Shadow-2" data-name="Shadow" class="cls-8" cx="247.1" cy="315.38" rx="101.34" ry="50.43" transform="translate(-120.09 155.08) rotate(-28.34)"/>
    <g id="Plants">
      <g>
        <path class="cls-12" d="m320.07,301.52c9.85-11.74,25.28-19.4,42.63-23.91,17.13-4.46,20.2-15,8.85-18.42-12.87-3.88-28.93,3.25-39.29,13.16-18.05,17.27-20.31,30.49-20.31,30.49l8.12-1.32Z"/>
        <path class="cls-9" d="m320.07,301.52c9.85-11.74,25.28-19.4,42.63-23.91,17.13-4.46,20.2-15,8.85-18.42-12.87-3.88-28.93,3.25-39.29,13.16-18.05,17.27-20.31,30.49-20.31,30.49l8.12-1.32Z"/>
        <path class="cls-1" d="m315,300.84c-.07,0-.15-.02-.22-.05-.25-.12-.35-.42-.23-.67,14.62-30,46.97-37.38,54.84-36.82.28.02.48.26.46.54-.02.28-.28.48-.54.46-7.68-.59-39.47,6.73-53.87,36.26-.09.18-.26.28-.45.28Z"/>
      </g>
      <g>
        <path class="cls-12" d="m311.94,304.64c0,2.12,2.3,3.41,4.13,2.34,9.16-5.33,22.52-8.28,44.15-2.13,11.5,3.27,17.16,1.08,19.58-3.6,2.69-5.2-3.01-10.23-9.51-12.6-22.13-8.09-42.1-2.56-58.35,13.57v2.42Z"/>
        <path class="cls-1" d="m313.2,305.07c-.14,0-.27-.06-.37-.17-.18-.21-.17-.52.04-.71,19.11-17.08,48.71-13.75,59.91-7.09.24.14.32.45.17.69s-.45.31-.69.17c-10.98-6.53-39.99-9.77-58.73,6.98-.09.09-.21.13-.33.13Z"/>
      </g>
    </g>
    <g id="Plants-2" data-name="Plants">
      <g>
        <path class="cls-12" d="m98.13,344.46c-8.4-12.82-22.82-22.24-39.51-28.77-16.49-6.45-18.29-17.28-6.61-19.33,13.24-2.33,28.35,6.64,37.46,17.7,15.89,19.28,16.57,32.67,16.57,32.67l-7.91-2.27Z"/>
        <path class="cls-9" d="m98.13,344.46c-8.4-12.82-22.82-22.24-39.51-28.77-16.49-6.45-18.29-17.28-6.61-19.33,13.24-2.33,28.35,6.64,37.46,17.7,15.89,19.28,16.57,32.67,16.57,32.67l-7.91-2.27Z"/>
        <path class="cls-1" d="m103.25,344.38c.07,0,.15,0,.22-.02.26-.09.4-.38.31-.64-10.98-31.51-42.24-42.66-50.11-43.03-.28-.01-.51.2-.52.48-.01.28.22.51.48.52,7.7.32,38.4,11.34,49.21,42.36.06.19.23.31.41.33Z"/>
      </g>
      <g>
        <path class="cls-12" d="m106.12,346.12c-.37,3.09-3.87,4.7-6.45,2.96-8.48-5.68-21.11-9.36-41.8-6.05-11.8,1.89-17.16-.95-19.02-5.88-2.06-5.48,4.2-9.8,10.93-11.39,22.93-5.42,42.11,2.42,56.34,20.36h0Z"/>
        <path class="cls-1" d="m104.53,348.8c.14.02.28-.02.39-.12.21-.18.23-.5.04-.71-16.96-19.21-46.75-19.4-58.66-14.11-.25.11-.37.41-.25.66.11.25.41.37.66.25,11.67-5.18,40.87-4.99,57.5,13.86.08.1.2.15.32.17Z"/>
      </g>
    </g>
    <g id="Check_Mark" data-name="Check Mark">
      <g id="Circle">
        <path class="cls-7" d="m329.04,115.98h0s-.16-.09-.16-.09c0,0-.01,0-.02,0l-38.12-21.94s-.02-.01-.04-.02l-.22-.11h0c-17.81-8.97-41.57-6.28-67.12,10.25-51.34,33.2-90.47,109.62-87.39,170.68,1.54,30.44,13.27,51.31,31.01,60.48h0s.16.09.16.09c0,0,.01,0,.02.01l38.13,21.95s.01,0,.02,0l.19.1h0c17.81,9,41.59,6.32,67.17-10.22,51.34-33.2,90.47-109.62,87.39-170.68-1.54-30.44-13.27-51.31-31.01-60.48Z"/>
        <path class="cls-11" d="m203.99,356.57l-36.82-21.26h-.03s-.17-.1-.17-.1c-17.73-9.2-29.46-30.07-30.99-60.47-1.37-27.23,5.66-57.5,18.39-85.62l.26-.62,37.88,22.56c-12.76,28.11-19.77,58.38-18.4,85.62,1.5,29.78,12.78,50.4,29.88,59.88Z"/>
        <path class="cls-13" d="m272.66,347.14c51.34-33.2,90.47-109.62,87.38-170.68-3.08-61.06-47.2-83.65-98.54-50.45-51.34,33.2-90.47,109.62-87.39,170.68,3.08,61.07,47.2,83.65,98.54,50.45Z"/>
      </g>
      <path id="Shadow-3" data-name="Shadow" class="cls-7" d="m316.15,111.24l-64.35,132.54-13.85-15.01c-4.27-4.64-10.36-7.3-16.71-7.3-5.74,0-11.23,2.14-15.46,6.03-9.21,8.51-9.78,22.94-1.28,32.16l36.49,39.52c4.04,4.38,9.54,6.96,15.49,7.28.42.02.84.03,1.26.03,1.09,0,2.19-.08,3.3-.24,7.46-1.11,13.88-5.81,17.15-12.58l73.8-152.01c-7.53-16.85-20.14-27.34-35.84-30.44Z"/>
      <g>
        <path class="cls-12" d="m368.4,67.58c-.4-.23-.81-.45-1.24-.65-9.82-4.75-21.68-.65-26.42,9.14l-81.89,168.66-4.65-5.04c-1.39-1.5-2.95-2.74-4.64-3.71-2.44-1.4-12.82-7.41-14.5-8.38-7.28-4.2-16.77-3.41-23.31,2.6-8,7.39-8.49,19.92-1.11,27.93l36.49,39.53c1.39,1.5,2.98,2.76,4.71,3.75,2.38,1.36,12.72,7.35,14.42,8.33,2.67,1.55,5.68,2.46,8.84,2.63,1.3.07,2.61.02,3.96-.17,6.48-.96,12.05-5.05,14.89-10.92l96.87-199.53c4.55-9.39,1-20.64-7.89-25.76-.41-.23-11.95-6.9-14.54-8.39Z"/>
        <path class="cls-9" d="m368.4,67.58c-.4-.23-.81-.45-1.24-.65-9.82-4.75-21.68-.65-26.42,9.14l-81.89,168.66-4.65-5.04c-1.39-1.5-2.95-2.74-4.64-3.71-2.44-1.4-12.82-7.41-14.5-8.38-7.28-4.2-16.77-3.41-23.31,2.6-8,7.39-8.49,19.92-1.11,27.93l36.49,39.53c1.39,1.5,2.98,2.76,4.71,3.75,2.38,1.36,12.72,7.35,14.42,8.33,2.67,1.55,5.68,2.46,8.84,2.63,1.3.07,2.61.02,3.96-.17,6.48-.96,12.05-5.05,14.89-10.92l96.87-199.53c4.55-9.39,1-20.64-7.89-25.76-.41-.23-11.95-6.9-14.54-8.39Z"/>
        <path class="cls-9" d="m266.26,309.73c-1.69-.98-12.03-6.98-14.42-8.33-1.73-.99-3.32-2.24-4.71-3.74l-36.49-39.52c-1.66-1.81-2.91-3.86-3.77-6.01l14.51,8.37c.86,2.16,2.12,4.21,3.79,6.02l36.49,39.52c1.36,1.47,2.91,2.71,4.6,3.7Z"/>
        <path class="cls-9" d="m359.85,78.37c-1.86,1.66-3.43,3.71-4.58,6.08l-84.22,173.48-12.18-13.21,81.88-168.66c1.15-2.38,2.73-4.42,4.59-6.08l14.51,8.38Z"/>
        <path id="Check" class="cls-12" d="m381.69,75.31c-9.82-4.75-21.68-.65-26.42,9.14l-84.22,173.48-16.84-18.24c-7.36-7.99-19.88-8.5-27.93-1.1-8,7.39-8.49,19.92-1.11,27.93l36.49,39.53c3.5,3.8,8.28,6.04,13.45,6.32,1.3.07,2.61.02,3.96-.17,6.48-.96,12.05-5.05,14.89-10.92l96.87-199.53c4.76-9.82.66-21.67-9.14-26.42Z"/>
      </g>
    </g>
    <g id="Character">
      <g>
        <path class="cls-3" d="m105.44,94.8c-7.63,0-12.85,1.99-18.27,9.7-4.97,7.08-18.64,30.68-18.64,30.68,0,0-9.97-20.51-11-24.61-1.04-4.09-.94-5.91.04-7.69,1.21-2.19,2.3-4.11,2.53-7.04.39-4.91,1.59-9.12.49-9.26-3.05-.17-3.17,3.74-4.77,6.06-.57.83-2.44.95-3.07-.34-.67-1.37-.31-3.62-.64-5.24.15-1.4.27-1.85.43-2.68.86.2,2.11.22,3.5.1,1.32,2.07,2.22,2.94,4.06,2.1.24-.39-.79-3.04-1.99-4.96-.19-.3-.48-.53-.82-.63-1.85-.51-3.94-.64-6.78-.19-.34.05-.68.2-.87.48-1.06,1.57-1.69,3.16-1.95,3.97-.14.43-.53.42-.63.05-.98-4.83-.99-11.69-.99-14.9,0-2.53-3.7-2.92-3.83.7-.13,3.71-.23,10.57.25,14.57.06.44-.44.65-.61.17-.64-1.72-2.21-6.88-2.87-15.8-.18-2.4-4.06-2.79-4.03.58.08,9.24,2.22,17.76,2.22,17.76.11.42-.27.79-.56.31-1.29-2.11-3.32-7.35-4.35-10.96-.82-2.89-4.69-2.16-4.01,1.45,1.21,6.47,3.13,14.66,5.99,20.5,3.06,6.25,5.71,9.38,7.22,14.29,1.52,4.91,7.81,32.72,14.54,43.56,5.27,8.49,11.3,7.71,17.79,3.23,6.49-4.48,29.68-36.79,29.68-36.79l1.94-29.19Z"/>
        <path class="cls-6" d="m68.54,135.17s3.25,5.52,3.75,9.92c0,0,1.57-6.31-2.29-12.42l-1.45,2.5Z"/>
        <path class="cls-13" d="m107.07,94.82c-3.88-.4-8.7-.53-14.09,2.85-5.39,3.39-7.26,8.12-9.87,12.24-2.61,4.13-11.63,18.76-11.63,18.76,0,0,3.31,13.89,16.48,16.75l19.71-26.74-.59-23.87Z"/>
      </g>
      <g>
        <g>
          <path class="cls-11" d="m124.74,339.04c.96-.12,2.32,3.28,2.34,4.4.02,1.11-1.09,3.5-2.57,5.74-1.48,2.24-3.52,5.01-4.85,8.63-1.13,3.08-2.17,5.1-5.32,9.13-3.5,4.49-11.72,12.01-24.2,8.74-3.05-.8-4.57-1.76-5.67-2.87-.93-.93-1.37-2.45-.87-3.82l41.14-29.94Z"/>
          <path class="cls-7" d="m100.22,335.14s-.02.07-.03.11c-.22.92-.03,1.88.08,2.81.41,3.28-.03,6.67-1.26,9.74-.83,2.06-2.01,3.98-3.47,5.66-1.49,1.7-3.93,3.5-5.83,4.72-6.32,4.04-7,6.73-6.11,10.81,2.11,4.75,16.45,7.64,24.69.57,3.22-2.76,5.66-5.19,7.84-10.67,1.53-3.85,2.68-6.03,4.16-8.8,1.6-3,4.62-6.38,4.71-9.47.05-1.7-1.63-4.86-3.27-7.46-1.5-2.39-3.04-4.66-4.39-4.39l.37,1.35c-1.12,1.17-2.75,1.6-3.74,2.97-1.22,1.69-1.17,3.96-1.93,5.9-.07.19-.17.39-.37.45-.2.06-.43-.08-.53-.27s-.11-.41-.12-.62c-.03-.97-.06-1.94-.09-2.91-.02-.56-.05-1.16-.42-1.58-.78-.88-2.7-.78-3.77-.82-1.46-.06-2.86.17-4.31.26-.54.03-.94,0-1.4.37-.4.32-.69.79-.82,1.28Z"/>
        </g>
        <g>
          <path class="cls-3" d="m79.04,277c3.33,10.95,18.9,48.85,19.83,51.13.94,2.28,3.1,7.52,3.1,7.52,0,0,2.54,1.05,6.32.26.33,3.63.87,9.32,1.09,12.2.07,3.33.36,7.44-.35,10.73-.61,2.8-1.32,5.74-1.85,8.55-.23,1.24-.47,2.49-.65,3.74-.2,1.32-.33,2.75.31,3.93.3.55.75,1,1.23,1.4,2.16,1.78,5.06,2.53,7.85,2.3,1.47-.12,2.96-.52,4.16-1.38,2.42-1.73,3.27-4.74,4.5-7.3,1.34-2.78.9-3.08,1.02-6.05.08-2.08.66-7.36,1.49-12.88.83-5.52,4.41-24.92,6.13-44.25,1.19-13.38,0-25.8,0-25.8,13.66-37.11,19.74-59.18,21.53-71.5,1.81-12.52.94-16.98.71-24.18l-66.43,1.6c-5.34,34.33-14.46,75.29-9.99,89.97Zm32.45-58.88h0s0,0,0,0h0Z"/>
          <path class="cls-12" d="m78,249.6c1.37-12.62,10.81-61.13,10.81-61.13h66.92s.42,9.31.3,13.59c-.12,4.28-1.49,12.1-3.89,21.98-2.4,9.88-11.24,37.89-12.96,42.02-1.71,4.13-5.02,16.07-5.02,16.07,1.64,22.44-2.63,42.58-5.83,69.35,0,0-.93,3.62-10.41,2.9-9.22-.7-11.08-4.09-11.08-4.09l-.62-23.1s-5.04,1.55-8,.84c0,0-19.81-48.9-20.77-51.85-.96-2.95-.84-13.96.53-26.58Z"/>
          <path class="cls-10" d="m78,249.6c1.37-12.62,10.81-61.13,10.81-61.13h66.92s.42,9.31.3,13.59c-.12,4.28-1.49,12.1-3.89,21.98-2.4,9.88-11.24,37.89-12.96,42.02-1.71,4.13-5.02,16.07-5.02,16.07,1.64,22.44-2.63,42.58-5.83,69.35,0,0-.93,3.62-10.41,2.9-9.22-.7-11.08-4.09-11.08-4.09l-.62-23.1s-5.04,1.55-8,.84c0,0-19.81-48.9-20.77-51.85-.96-2.95-.84-13.96.53-26.58Z"/>
          <path class="cls-4" d="m106.38,220.09c-9.48-8.55-11.58-15.34-11.58-15.34,7.06,8.34,16.69,13.37,16.69,13.37,0,0-9,47.52-8.34,57.29.65,9.77,3.09,51.78,3.09,51.78.02.4-6.38-44.42-6.56-48.01-.48-9.44,6.71-59.09,6.71-59.09Z"/>
        </g>
        <g>
          <path class="cls-11" d="m127.24,375.27c.93.27.82,3.05.4,4.08-.42,1.03-2.08,3-4.32,4.48-2.24,1.48-4.33,3.55-6.35,6.84-1.44,2.34-5.06,6.78-9.95,9.71-4.89,2.93-12.13,3.96-17.5,2.43-6.28-1.78-6.86-3.32-6.8-5.69l44.53-21.86Z"/>
          <path class="cls-13" d="m107.82,360.73c-1.65,8.04-4.52,13.87-11.17,18.82-5.29,3.93-9.14,5.93-13.36,9.45-1.8,1.5-1.95,4.69-.57,8.13,2.85,2.29,6.91,3.6,12.37,3.6,6.09,0,8.44-1.08,11.94-3.48,2.01-1.38,3.41-2.64,4.78-4.01,2.93-2.94,4.97-6.56,7.08-8.89,2.11-2.33,6.69-4.71,7.98-7.52.71-1.54.41-5.12-.07-8.16-.44-2.79.42-7.69-.93-7.97.03,0-.18,2-.18,2-.11.45-.39.68-1.34,1.01-.63.22-1.92.19-2.57.08-.77-.13-1.21-.12-1.72.49-.9,1.06-1.14,2.56-2.3,3.44-.08.06-.17.12-.27.14-.1.02-.21,0-.28-.08-.07-.09-.06-.21-.05-.33.11-1,.22-1.99.33-2.99.03-.3.07-.61.02-.91-.08-.56-.5-1.03-.97-1.31-.82-.5-1.77-.86-2.69-1.12-.97-.27-1.98-.42-2.98-.51-1.01-.09-2.07-.11-3.06.13Z"/>
        </g>
      </g>
      <path class="cls-12" d="m149.68,97.67s2.76,3.79,4.96,11.58c0,0,4.2,17.81,4.2,38.92,0,17.66-2.38,46.3-2.38,46.3-20.51,10.28-53.59,4.2-68.14-5.82.59-3.18,1.09-19.9,2.23-30.93.78-18.92,1.41-28.84,1.55-37.25.27-16.82,8.64-25.51,14.96-25.64l16.06.25,26.56,2.6Z"/>
      <g>
        <path class="cls-6" d="m154.74,189.27c-3.05,2.51-9.04,7.33-10.13,9.76-1.25,2.78-2.03,6.97-2.85,8.59s.44,2.37,2.19,1.81c1.76-.56,2.81-2.07,4.17-5.7,1.36-3.64,5.14-6.49,5.14-6.49l1.48-7.97Z"/>
        <path class="cls-3" d="m143.61,222.01c.73,1.41,2.43,1.41,4.01,1.54,2.25.18,3.52.02,5.67-.64,2.15-.67,4.16-1.94,5.45-3.79,1.54-2.21,1.93-4.99,2.81-7.54,1.85-5.35,7.33-9.21,8.22-14.88.37-2.35.37-5.1,1.04-6.56.39-.86,9.4-16.37,12.61-23.09,3.09-6.46,5.4-9.5,2.6-17.26-2.8-7.76-12.34-35.07-19.08-44.56-3.83-5.38-9.9-6.92-17.26-7.55-5.6,14.59.92,29.65.92,29.65l14.81,28.58s-5.76,19.68-9.36,30.62c-1,3.04-3.02,4.92-5.29,8.29-.99,1.46-3.25,4.03-4.06,5.6-1.04,2.02-1.01,3.32-1.5,6.15-.78,4.51-1.94,14.78-1.6,15.45Z"/>
        <path class="cls-13" d="m148.89,97.6c3.87.15,9.43.81,12.75,2.49,3.33,1.68,5.63,3.75,9.45,11.41,3.83,7.66,9.4,22.54,9.4,22.54,0,0-1.85,11.23-19.61,14.14l-12-22.13s-5.35-13.79,0-28.45Z"/>
      </g>
      <g>
        <g>
          <g>
            <path class="cls-7" d="m102.76,61.85c.58.84.9,2,1.36,2.92.64,1.3,1.29,2.61,2.24,3.72,2.3,2.65,5.54,4.59,8.48,6.47,1.79,1.14,3.83,2.21,6.01,1.9,2.22-.32,4.61.16,6.87.37l7.87.7-.44,8.27s.98-2.19,2.31-4.81c1.15-2.25,5.92-13.67,5.94-13.71,2.37-5.66,5.18-13.19,2.35-19.14-.67-1.4-1.66-2.71-3.08-3.53.29-1.09.38-1.85.26-2.82-.38-3.2-2.01-5.03-4.18-6.62s-4.8-2.45-7.42-3.06c-3.52-.81-7.13-1.21-10.74-1.19-3.59.01-7.01.62-10.54,1.21-1.94.33-3.9.59-5.87.61-.83,0-1.75.06-2.54-.12-1.03-.24-2.07-.75-3.07-1.11-.18-.06-.38-.13-.55-.04-.17.08-.25.29-.3.47-.63,2.31.16,5.32,1.63,7.21-.6-.08-1.07-.28-1.3-.38-.49-.2-.91-.48-1.35-.76-.8-.5-1.29-1.08-1.9-1.81-.09-.1-.18-.21-.31-.23-.2-.03-.37.14-.49.3-1.14,1.56-1.42,3.64-1.04,5.53.38,1.89,1.38,3.61,2.6,5.11-1.31,1.94-1.33,4.58-.35,6.71.43.94,1.04,1.8,1.77,2.54.9.92,1.96,1.67,2.91,2.53.96.87,2.13,1.67,2.87,2.76Z"/>
            <path class="cls-3" d="m126.73,48.08c.02,2.2.33,3.75.57,4.42.47,1.36,1.24,2.25,2.23,3.29,1.02,1.06,2.28,1.91,3.1,3.13,1.12,1.66,1.51,3.81,1.74,5.76.14,1.18.51,2.48,1.52,3.1,2.14,1.32,3.42-1.24,4.56-2.5,1.47-1.36,5.83-3.02,7.85,1.62,2.09,4.8-1.76,11.16-5.27,12.14-6.05,1.69-7.37-2.43-7.37-2.43l-1.16,21.6c-3.42,6.47-11.44,8.53-16.71,7.5-4.55-.89-7.05-4.08-2.77-8.7l.23-6.58s-5.46.65-8.09.15c-4.38-.82-6.56-4.55-7.74-9.36-1.9-7.73-2.77-15.86-.42-33.26,1.08-.59,5.4,2.78,11.95,3.23,6.51.45,12.51-1.3,15.77-3.1Z"/>
          </g>
          <path class="cls-6" d="m115.25,90.43s9.9-1.66,13.4-3.38c2.34-1.15,4.31-3.21,4.91-4.55,0,0-.74,2.9-2.88,5.46-2.62,3.13-15.51,5.09-15.51,5.09l.08-2.62Z"/>
        </g>
        <g>
          <path class="cls-11" d="m120.37,55.77l4.61,1.41c.36-1.31-.38-2.7-1.65-3.08-1.27-.39-2.6.36-2.95,1.67Z"/>
          <path class="cls-6" d="m118.76,77.65l-6.78,2.3c.6,1.94,2.61,3,4.48,2.37,1.87-.63,2.91-2.72,2.3-4.67Z"/>
          <path class="cls-5" d="m118.22,79.31c-1.87,0-3.44,1.29-3.87,3.03.67.21,1.4.21,2.11-.03,1.32-.45,2.2-1.61,2.41-2.94-.21-.04-.43-.07-.66-.07Z"/>
          <path class="cls-11" d="m99.79,56.54l4.68-.62c-.14-1.27-1.3-2.17-2.59-2-1.29.17-2.23,1.34-2.09,2.61Z"/>
          <path class="cls-11" d="m128.62,58.54l15.47,5.3s-2.42-.2-4.46,2.26l-10.95-4.16-.06-3.4Z"/>
          <path class="cls-11" d="m102.09,64.57c-.03,1.06.77,1.94,1.79,1.97,1.02.03,1.88-.8,1.91-1.86.03-1.06-.77-1.94-1.79-1.98-1.02-.03-1.88.8-1.91,1.87Z"/>
          <path class="cls-11" d="m119.77,64.58c-.03,1.06.77,1.94,1.79,1.97,1.02.03,1.88-.8,1.91-1.86.03-1.06-.77-1.94-1.79-1.98-1.02-.03-1.88.8-1.91,1.87Z"/>
          <path class="cls-11" d="m92.97,59.66c.07.94.67,1.81.98,2.18.16.19.31.45.39.78.36,1.49.67,4.31,1.37,5.89.71,1.58,2.19,4.09,6.34,4.18.81.02,1.52-.05,2.16-.18.06-.01.11-.02.16-.04.67-.16,1.25-.39,1.75-.69.04-.02.07-.04.1-.06.05-.03.1-.06.15-.09.04-.03.09-.06.19-.13.06-.04.12-.09.17-.13.07-.05.13-.1.19-.16.06-.05.12-.1.18-.16.12-.11.23-.22.34-.34.61-.67,1.06-1.45,1.41-2.24.91-2.06.68-4.94,2.18-5.27.06-.01.12-.02.18-.03.06,0,.13,0,.2,0,2.04.03,1.82,3.17,2.96,5.41,1.14,2.24,3.03,4.43,7.47,4.49.2,0,.39,0,.57,0,.16,0,.31-.02.46-.03.38-.03.74-.08,1.07-.15.11-.03.23-.05.34-.08.11-.03.22-.06.32-.09.07-.02.14-.04.2-.06.45-.16.85-.35,1.2-.56.14-.09.27-.18.4-.27.25-.19.48-.39.69-.61.67-.69,1.07-1.46,1.34-2.08.69-1.55.87-4.37,1.21-5.84.09-.39.21-.66.34-.85.29-.42.97-1.16,1-2.1.03-.94-.64-1.76-1.24-1.85-.35-.05-.71-.1-1.09-.14-3.5-.42-8.06-.61-10.79.13-3.42.94-4.61,2.03-6.52,2.01-1.79-.04-2.94-1.18-6.19-2.24-2.59-.84-6.85-.82-10.11-.52-.35.03-.69.07-1.01.11-.56.07-1.15.91-1.08,1.85Zm22.52,2.14c.18-.27.52-.54.97-.8.06-.04.11-.07.18-.1.03-.02.06-.03.1-.05.15-.08.31-.16.48-.23.14-.06.29-.12.45-.18.45-.17.95-.33,1.46-.46.19-.05.39-.09.58-.14.5-.11,1-.19,1.5-.24.12-.01.24-.02.35-.03,3.3-.27,5.35.51,6.1,1.18.77.7.42,3.75.11,5.29,0,.04-.02.08-.02.11,0,.04-.02.08-.02.12-.04.19-.08.4-.14.62-.03.12-.07.25-.11.39,0,0,0,.01,0,.02-.06.21-.13.42-.22.65h0c-.03.07-.06.15-.09.22-.02.04-.04.09-.06.13-.02.05-.04.1-.07.15-.03.06-.06.12-.09.18-.03.07-.07.14-.11.2-.04.07-.08.14-.13.22-.04.07-.09.15-.14.22-.82,1.18-2.2,2.18-4.61,2.17-2.38,0-3.9-.82-4.87-1.86h0c-.96-1.03-1.39-2.27-1.6-3.12-.41-1.73-.64-3.75,0-4.69Zm-19.39-1.61c.18-.17.45-.35.81-.51.02-.01.04-.02.06-.03.11-.05.23-.1.36-.14.07-.02.14-.05.22-.07.06-.02.12-.04.18-.05.04-.01.08-.02.12-.03.02,0,.03,0,.05-.01.06-.01.12-.03.18-.04.23-.05.49-.09.76-.12.13-.02.27-.03.41-.04.08,0,.16-.01.25-.02.06,0,.13,0,.19,0,.17,0,.35,0,.53,0,.06,0,.13,0,.19,0,.06,0,.12,0,.18,0,.47.02.98.06,1.52.14,2.35.34,4.81,1.43,5.44,2.39.64.97.5,2.97.19,4.69-.06.34-.15.74-.3,1.15,0,.03-.02.06-.03.09-.01.04-.03.08-.04.12-.01.03-.02.05-.03.08-.02.05-.04.09-.06.14-.04.1-.08.19-.13.28-.04.08-.08.16-.12.24-.02.03-.03.06-.05.09-.03.05-.06.11-.1.16-.03.05-.06.09-.09.14,0,0,0,.02-.01.02-.82,1.25-2.28,2.33-4.89,2.24-.99-.03-1.8-.25-2.47-.59-2.34-1.19-2.93-3.81-3.21-5.03-.35-1.56-.81-4.62-.11-5.29Z"/>
          <path class="cls-6" d="m111.98,63.27l-.35,12.85-7.17-2.07,6.69-10.89c.31-.03.59.01.84.11Z"/>
        </g>
      </g>
    </g>
    <g id="Speech_Bubble" data-name="Speech Bubble">
      <g id="Speech_Bubble-2" data-name="Speech Bubble">
        <ellipse class="cls-12" cx="212.24" cy="32.45" rx="37.05" ry="32.45"/>
        <path class="cls-12" d="m182.66,51.22c-.2,4.35-3.88,12.13-10.54,14.96-.42.18-.37.78.08.87,3.64.76,13.34,1.67,20.5-7.76l-10.04-8.07Z"/>
      </g>
      <g>
        <path class="cls-2" d="m187.12,29.88c.08-1.46.4-2.83.96-4.12.56-1.29,1.35-2.41,2.38-3.36,1.03-.95,2.28-1.7,3.75-2.26s3.17-.84,5.09-.84,3.59.28,5.07.84c1.48.56,2.74,1.31,3.76,2.26s1.82,2.07,2.38,3.36c.56,1.29.88,2.66.96,4.12.05,1.12.08,2.29.08,3.51s-.03,2.37-.08,3.43c-.08,1.46-.4,2.83-.96,4.12-.56,1.29-1.35,2.41-2.38,3.38-1.03.96-2.28,1.72-3.76,2.26-1.48.55-3.17.82-5.07.82s-3.62-.27-5.09-.82c-1.47-.55-2.72-1.3-3.75-2.26-1.03-.96-1.82-2.09-2.38-3.38-.56-1.29-.88-2.66-.96-4.12-.05-1.07-.08-2.21-.08-3.43s.03-2.39.08-3.51Zm17.13,6.75c.03-.47.05-.99.08-1.56.03-.57.04-1.16.04-1.75s-.01-1.18-.04-1.74c-.03-.56-.05-1.06-.08-1.5-.05-.65-.19-1.25-.41-1.79-.22-.55-.53-1.02-.94-1.42-.4-.4-.9-.72-1.5-.96-.6-.23-1.3-.35-2.11-.35s-1.51.12-2.11.35c-.6.23-1.1.55-1.5.96-.4.4-.71.88-.94,1.42-.22.55-.36,1.14-.41,1.79-.05.44-.08.94-.1,1.5-.01.56-.02,1.14-.02,1.74s0,1.18.02,1.75c.01.57.04,1.09.1,1.56.1,1.3.55,2.38,1.35,3.24.79.86,2,1.29,3.61,1.29s2.81-.43,3.59-1.29c.78-.86,1.23-1.94,1.37-3.24Z"/>
        <path class="cls-2" d="m239.16,45.72c.08.1.12.25.12.43,0,.23-.08.44-.25.6-.17.17-.37.25-.6.25h-6.2c-.36,0-.66-.08-.9-.23-.23-.16-.47-.38-.7-.66l-7.37-9.29v9.13c0,.29-.1.53-.31.74-.21.21-.45.31-.74.31h-5.11c-.29,0-.53-.1-.74-.31-.21-.21-.31-.45-.31-.74v-25.2c0-.29.1-.53.31-.74s.46-.31.74-.31h5.11c.29,0,.53.1.74.31s.31.46.31.74v8.23l6.87-8.43c.13-.16.3-.34.51-.55s.56-.31,1.05-.31h6.09c.23,0,.44.09.61.25.17.17.25.37.25.6,0,.18-.04.33-.12.43l-9.64,11.78,10.3,12.95Z"/>
      </g>
    </g>
    <g id="Like_icon" data-name="Like icon">
      <polygon class="cls-8" points="307.83 63.13 302.23 64.82 298.17 51.29 303.77 49.61 307.83 63.13"/>
      <path class="cls-8" d="m325.35,51.12c.22.73-.5,2.29-1.59,2.62,0,0,.52.55.79,1.43.32,1.05-.53,2.46-2.22,2.96-1.68.5-12.83,3.86-12.83,3.86l-3.78-12.56h0s2.18-5.56,2.28-6.39c.13-.82-1.18-3.92-1.35-4.5-.14-.47,1.9-1.34,3.54-.67.38.16.74.38,1.05.72.64.7,1.12,1.39,1.47,2.11.55,1.1.78,2.25.78,3.55l7.75-2.33c.65-.19,1.21-.14,1.66.05.69.29,1.13.88,1.28,1.36.36,1.13-.3,2-.66,2.34,0,0,1.65-.14,2.12,1.42.26.87-.17,2.03-1.28,2.6,0,0,.66.36.99,1.44Z"/>
    </g>
    <g id="Like_icon-2" data-name="Like icon">
      <polygon class="cls-8" points="388.22 203.42 381.03 201.69 385.22 184.35 392.4 186.08 388.22 203.42"/>
      <path class="cls-8" d="m414.99,201.47c-.22.93-2,2.18-3.4,1.84,0,0,.22.94-.05,2.06-.32,1.35-2.15,2.34-4.3,1.81-2.15-.52-16.46-3.96-16.46-3.96l3.88-16.11h0s5.92-4.68,6.56-5.53c.66-.82,1.21-5.02,1.39-5.77.15-.61,2.92-.25,4.29,1.52.31.41.56.89.68,1.46.25,1.18.34,2.24.26,3.24-.1,1.55-.58,2.95-1.41,4.37l9.94,2.39c.83.2,1.41.62,1.78,1.11.57.75.68,1.68.53,2.3-.33,1.46-1.61,1.99-2.21,2.14,0,0,1.89.9,1.41,2.9-.27,1.12-1.48,2.11-3.05,2.02,0,0,.5.82.16,2.21Z"/>
    </g>
    <g id="Like_icon-3" data-name="Like icon">
      <polygon class="cls-8" points="25.04 193.05 32.89 195.41 38.57 176.47 30.73 174.11 25.04 193.05"/>
      <path class="cls-8" d="m.51,176.22c-.3,1.02.7,3.21,2.23,3.67,0,0-.73.77-1.1,2-.45,1.47.75,3.44,3.11,4.14,2.35.7,17.97,5.41,17.97,5.41l5.29-17.59h.01s-3.05-7.78-3.2-8.95c-.18-1.15,1.65-5.49,1.89-6.3.2-.66-2.66-1.87-4.96-.94-.53.22-1.03.54-1.47,1.01-.9.99-1.57,1.95-2.06,2.95-.78,1.54-1.09,3.15-1.09,4.97l-10.85-3.27c-.91-.27-1.7-.19-2.32.07-.97.4-1.59,1.23-1.79,1.9-.5,1.59.43,2.81.92,3.28,0,0-2.31-.19-2.97,1.99-.37,1.22.24,2.84,1.79,3.64,0,0-.93.5-1.39,2.02Z"/>
    </g>
  </g>
</svg>