<?xml version="1.0" encoding="UTF-8"?>
<svg id="Layer_2" data-name="Layer 2" xmlns="http://www.w3.org/2000/svg" viewBox="0 0 461.31 453.4">
  <defs>
    <style>
      .cls-1 {
        fill: #fff;
      }

      .cls-2 {
        fill: #fafafa;
      }

      .cls-3 {
        opacity: .6;
      }

      .cls-4 {
        fill: #f5f5f5;
      }

      .cls-5 {
        fill: #455a64;
      }

      .cls-6 {
        fill: none;
        stroke: #e0ac8c;
        stroke-miterlimit: 10;
        stroke-width: .05px;
      }

      .cls-7, .cls-8 {
        fill: #e48e45;
      }

      .cls-9 {
        fill: #eb996e;
      }

      .cls-10 {
        opacity: .3;
      }

      .cls-11 {
        fill: #ffbe9d;
      }

      .cls-12 {
        fill: #ebebeb;
      }

      .cls-13 {
        fill: #edbf9d;
      }

      .cls-14 {
        fill: #e0ac8c;
      }

      .cls-15 {
        fill: #263238;
      }

      .cls-8 {
        fill-rule: evenodd;
      }
    </style>
  </defs>
  <g id="Plant">
    <g>
      <g>
        <path class="cls-13" d="m97.42,148.32c1.47-.89,3.04-1.57,4.66-2.03l.96-4.61,7.8-.14,1.12,4.58c1.63.4,3.23,1.02,4.73,1.86l3.94-2.58,5.61,5.42-2.44,4.03c.89,1.47,1.57,3.04,2.03,4.66l4.61.96.14,7.8-4.58,1.12c-.4,1.63-1.02,3.23-1.86,4.73l2.58,3.94-5.42,5.61-4.03-2.44c-1.47.89-3.04,1.57-4.66,2.03l-.96,4.62-7.8.14-1.12-4.58c-1.63-.4-3.23-1.02-4.73-1.86l-3.94,2.58-5.61-5.42,2.44-4.03c-.89-1.47-1.57-3.04-2.03-4.66l-4.61-.96-.14-7.8,4.58-1.12c.4-1.63,1.02-3.23,1.86-4.73l-2.58-3.94,5.42-5.61,4.03,2.44h0Zm4.16,10.39c-3.21,3.32-3.12,8.62.21,11.83,3.32,3.21,8.62,3.12,11.83-.21,3.21-3.32,3.12-8.62-.21-11.83-3.32-3.21-8.62-3.12-11.83.21Z"/>
        <path class="cls-13" d="m101.57,158.71s.44-.62,1.56-1.37c1.1-.73,3.02-1.55,5.46-1.29,1.2.13,2.51.53,3.71,1.32,1.18.79,2.3,1.92,3,3.38.37.72.62,1.52.76,2.35.15.83.17,1.71.05,2.58-.21,1.75-1.04,3.47-2.32,4.82-1.31,1.33-3,2.22-4.74,2.49-.87.16-1.74.16-2.58.04-.84-.11-1.64-.34-2.37-.68-1.49-.65-2.65-1.72-3.48-2.88-.83-1.17-1.27-2.47-1.45-3.66-.34-2.43.4-4.38,1.1-5.5.71-1.15,1.31-1.6,1.31-1.6.05.04-.51.55-1.15,1.7-.63,1.13-1.3,3.03-.92,5.36.19,1.14.63,2.38,1.44,3.48.81,1.09,1.93,2.11,3.34,2.71.69.32,1.46.53,2.25.63.79.11,1.62.1,2.44-.05,1.64-.26,3.24-1.1,4.47-2.36,1.21-1.28,2-2.9,2.2-4.55.12-.82.11-1.65-.03-2.44-.13-.79-.36-1.55-.71-2.23-.65-1.39-1.7-2.47-2.82-3.24-1.13-.77-2.38-1.16-3.53-1.31-2.33-.29-4.21.44-5.32,1.11-1.13.68-1.62,1.25-1.66,1.21Z"/>
        <path class="cls-13" d="m97.42,148.32s-.09-.04-.26-.14c-.19-.11-.44-.26-.77-.45-.7-.42-1.72-1.02-3.04-1.79h.09c-1.38,1.43-3.19,3.33-5.38,5.63v-.15c.8,1.19,1.68,2.51,2.61,3.93l.05.07-.04.08c-.77,1.39-1.41,2.97-1.83,4.7l-.02.09-.09.02c-1.43.35-2.97.74-4.57,1.14l.13-.17c.05,2.45.1,5.06.15,7.8l-.15-.18c1.43.29,3,.62,4.62.95l.12.02.03.12c.43,1.51,1.1,3.11,2.01,4.61l.06.11-.06.11c-.76,1.25-1.59,2.63-2.44,4.03l-.03-.26c1.76,1.7,3.67,3.53,5.62,5.41l-.28-.03c1.23-.81,2.57-1.69,3.94-2.59l.12-.08.12.07c1.38.77,2.98,1.42,4.67,1.84l.14.03.03.14c.35,1.43.74,3,1.13,4.58l-.23-.18c2.47-.04,5.11-.09,7.8-.14l-.23.19c.3-1.46.63-3.03.96-4.61l.03-.14.14-.04c1.54-.43,3.13-1.11,4.6-2h0s.13-.08.13-.08l.12.07c1.35.82,2.7,1.64,4.03,2.44l-.3.04c1.83-1.9,3.64-3.77,5.42-5.61l-.03.3c-.87-1.33-1.73-2.64-2.58-3.94l-.08-.12.07-.12c.83-1.48,1.44-3.06,1.84-4.67l.03-.14.14-.03c1.55-.38,3.07-.75,4.58-1.12l-.17.23c-.04-2.66-.09-5.26-.13-7.8l.18.21c-1.57-.33-3.1-.65-4.61-.97l-.13-.03-.04-.12c-.47-1.65-1.15-3.21-2-4.61l-.07-.11.07-.11c.84-1.38,1.65-2.72,2.45-4.02l.03.25c-1.97-1.91-3.83-3.71-5.6-5.43l.23.02c-1.39.9-2.69,1.75-3.95,2.57l-.09.06-.09-.05c-1.57-.88-3.14-1.47-4.68-1.86l-.09-.02-.02-.09c-.4-1.66-.76-3.16-1.11-4.58l.14.11c-3.02.04-5.59.07-7.8.1l.1-.09c-.4,1.84-.72,3.35-.99,4.61v.05s-.05.01-.05.01c-1.65.46-2.81,1-3.57,1.37-.36.19-.64.33-.84.44-.19.1-.28.15-.28.14,0,0,.09-.07.26-.18.18-.11.45-.27.82-.47.75-.4,1.9-.96,3.56-1.45l-.05.06c.25-1.26.56-2.78.93-4.62l.02-.08h.09c2.2-.05,4.78-.11,7.8-.17h.11s.03.11.03.11c.35,1.41.72,2.91,1.14,4.57l-.12-.12c1.57.38,3.17.98,4.78,1.86h-.18c1.25-.82,2.55-1.67,3.93-2.59l.12-.08.11.1c1.78,1.71,3.64,3.5,5.62,5.41l.11.11-.08.14c-.79,1.31-1.6,2.65-2.44,4.03v-.21c.87,1.44,1.57,3.02,2.06,4.71l-.16-.15c1.51.31,3.05.63,4.62.95l.17.04v.18c.05,2.54.1,5.13.15,7.8v.18s-.17.04-.17.04c-1.51.37-3.03.75-4.58,1.13l.17-.17c-.41,1.65-1.03,3.27-1.88,4.79v-.24c.84,1.3,1.71,2.61,2.58,3.94l.1.16-.13.14c-1.78,1.84-3.59,3.72-5.41,5.61l-.13.14-.16-.1c-1.33-.81-2.68-1.62-4.03-2.44h.25s0,0,0,0c-1.51.92-3.14,1.6-4.72,2.05l.17-.18c-.33,1.58-.66,3.16-.96,4.61l-.04.19h-.19c-2.68.05-5.33.09-7.8.14h-.19s-.04-.18-.04-.18c-.39-1.58-.77-3.14-1.12-4.58l.17.17c-1.73-.43-3.38-1.1-4.79-1.89h.24c-1.37.89-2.72,1.77-3.94,2.57l-.15.1-.13-.12c-1.95-1.88-3.84-3.72-5.6-5.42l-.12-.12.09-.15c.85-1.4,1.69-2.78,2.45-4.02v.21c-.93-1.54-1.61-3.18-2.04-4.72l.15.14c-1.61-.34-3.18-.67-4.61-.97l-.15-.03v-.15c-.04-2.74-.08-5.34-.12-7.8v-.14s.13-.03.13-.03c1.61-.39,3.15-.76,4.58-1.11l-.12.12c.44-1.76,1.1-3.36,1.89-4.76v.15c-.92-1.42-1.78-2.75-2.56-3.95l-.05-.08.07-.07c2.22-2.27,4.05-4.15,5.45-5.58l.04-.04.05.03c1.29.8,2.28,1.42,2.97,1.85.33.21.58.37.76.48.17.11.26.17.26.18Z"/>
      </g>
      <g>
        <path class="cls-13" d="m326.33,203.67c.88-.53,1.82-.94,2.79-1.21l.57-2.76,4.67-.08.67,2.74c.98.24,1.93.61,2.83,1.11l2.36-1.55,3.36,3.24-1.46,2.41c.53.88.94,1.82,1.21,2.79l2.76.57.08,4.67-2.74.67c-.24.98-.61,1.93-1.11,2.83l1.55,2.36-3.24,3.36-2.41-1.46c-.88.53-1.82.94-2.79,1.21l-.57,2.76-4.67.08-.67-2.74c-.98-.24-1.93-.61-2.83-1.11l-2.36,1.55-3.36-3.24,1.46-2.41c-.53-.88-.94-1.82-1.21-2.79l-2.76-.57-.08-4.67,2.74-.67c.24-.98.61-1.93,1.11-2.83l-1.55-2.36,3.24-3.36,2.41,1.46h0Zm2.49,6.22c-1.92,1.99-1.87,5.16.12,7.08,1.99,1.92,5.16,1.87,7.08-.12,1.92-1.99,1.87-5.16-.12-7.08-1.99-1.92-5.16-1.87-7.08.12Z"/>
        <path class="cls-13" d="m328.82,209.89s.26-.37.93-.82c.66-.44,1.81-.93,3.27-.77.72.08,1.5.31,2.22.79.71.47,1.38,1.15,1.8,2.02.22.43.37.91.46,1.41.09.5.1,1.02.03,1.54-.13,1.05-.62,2.08-1.39,2.89-.78.8-1.8,1.33-2.84,1.49-.52.09-1.04.1-1.54.03-.5-.07-.98-.2-1.42-.41-.89-.39-1.59-1.03-2.09-1.72-.5-.7-.76-1.48-.87-2.19-.2-1.45.24-2.62.66-3.29.43-.69.78-.96.78-.96.03.02-.3.33-.69,1.02-.38.68-.78,1.82-.55,3.21.11.68.38,1.42.86,2.08.48.65,1.15,1.26,2,1.62.42.19.87.32,1.35.38.47.07.97.06,1.46-.03.98-.16,1.94-.66,2.68-1.41.73-.77,1.19-1.74,1.32-2.73.07-.49.06-.99-.02-1.46-.08-.47-.22-.93-.42-1.33-.39-.83-1.02-1.48-1.69-1.94-.68-.46-1.42-.7-2.11-.79-1.4-.17-2.52.26-3.18.67-.67.41-.97.75-.99.72Z"/>
        <path class="cls-13" d="m326.33,203.67s-.05-.02-.16-.08c-.11-.07-.27-.15-.46-.27-.42-.25-1.03-.61-1.82-1.07h.06c-.83.86-1.91,1.99-3.22,3.37v-.09c.48.71,1,1.51,1.56,2.35l.03.04-.02.05c-.46.83-.84,1.78-1.1,2.81v.06s-.07.01-.07.01c-.85.21-1.78.44-2.74.68l.08-.1c.03,1.47.06,3.03.09,4.67l-.09-.11c.86.18,1.8.37,2.76.57h.07s.02.08.02.08c.26.9.66,1.86,1.2,2.76l.04.06-.04.06c-.45.75-.95,1.57-1.46,2.41l-.02-.16c1.06,1.02,2.19,2.11,3.36,3.24l-.17-.02c.73-.48,1.54-1.01,2.36-1.55l.07-.05.07.04c.82.46,1.79.85,2.8,1.1l.08.02.02.08c.21.86.44,1.79.67,2.74l-.14-.11c1.48-.03,3.06-.06,4.67-.08l-.14.11c.18-.87.38-1.81.57-2.76l.02-.09.08-.02c.92-.26,1.87-.66,2.75-1.2h0s.08-.05.08-.05l.07.04c.81.49,1.61.98,2.41,1.46l-.18.02c1.1-1.13,2.18-2.25,3.24-3.36l-.02.18c-.52-.79-1.04-1.58-1.54-2.36l-.05-.07.04-.07c.5-.89.86-1.83,1.1-2.8l.02-.08.08-.02c.93-.23,1.84-.45,2.74-.67l-.1.14c-.03-1.59-.05-3.15-.08-4.67l.11.13c-.94-.2-1.86-.39-2.76-.58l-.08-.02-.02-.07c-.28-.99-.69-1.92-1.2-2.76l-.04-.06.04-.06c.5-.83.99-1.63,1.47-2.41l.02.15c-1.18-1.14-2.29-2.22-3.35-3.25h.14c-.83.55-1.61,1.06-2.36,1.55l-.05.03-.05-.03c-.94-.53-1.88-.88-2.8-1.11h-.06s-.01-.07-.01-.07c-.24-1-.46-1.89-.66-2.74l.08.06c-1.81.02-3.35.04-4.67.06l.06-.05c-.24,1.1-.43,2.01-.59,2.76v.03s-.03,0-.03,0c-.99.28-1.68.6-2.13.82-.22.11-.38.2-.5.26-.11.06-.17.09-.17.09,0,0,.05-.04.16-.11.11-.07.27-.16.49-.28.45-.24,1.14-.58,2.13-.87l-.03.03c.15-.75.33-1.66.56-2.77v-.05s.06,0,.06,0c1.32-.03,2.86-.06,4.67-.1h.07s.02.06.02.06c.21.85.43,1.74.68,2.74l-.07-.07c.94.23,1.9.59,2.86,1.12h-.11c.75-.49,1.53-1,2.36-1.55l.07-.05.06.06c1.06,1.02,2.18,2.1,3.36,3.24l.07.07-.05.08c-.47.78-.96,1.59-1.46,2.41v-.13c.52.86.94,1.81,1.23,2.82l-.1-.09c.9.19,1.83.38,2.76.57l.1.02v.11c.03,1.52.06,3.07.09,4.67v.11s-.1.03-.1.03c-.9.22-1.81.45-2.74.67l.1-.1c-.24.99-.62,1.96-1.13,2.87v-.15c.51.78,1.02,1.56,1.54,2.36l.06.09-.08.08c-1.07,1.1-2.15,2.22-3.24,3.36l-.08.08-.1-.06c-.8-.48-1.6-.97-2.41-1.46h.15s0,0,0,0c-.91.55-1.88.96-2.82,1.23l.1-.11c-.2.95-.39,1.89-.58,2.76l-.02.11h-.11c-1.61.03-3.19.06-4.67.08h-.11s-.03-.11-.03-.11c-.23-.95-.46-1.88-.67-2.74l.1.1c-1.04-.26-2.02-.66-2.86-1.13h.14c-.82.53-1.63,1.06-2.36,1.54l-.09.06-.08-.07c-1.16-1.13-2.3-2.23-3.35-3.25l-.07-.07.05-.09c.51-.84,1.01-1.66,1.47-2.41v.13c-.56-.92-.96-1.9-1.22-2.82l.09.08c-.97-.2-1.91-.4-2.76-.58l-.09-.02v-.09c-.03-1.64-.05-3.2-.07-4.67v-.08s.08-.02.08-.02c.96-.23,1.89-.46,2.74-.66l-.07.07c.26-1.05.66-2.01,1.13-2.85v.09c-.55-.85-1.07-1.65-1.53-2.37l-.03-.05.04-.04c1.33-1.36,2.43-2.48,3.26-3.34l.03-.03.03.02c.77.48,1.36.85,1.78,1.11.19.12.34.22.46.29.1.07.15.1.15.11Z"/>
      </g>
      <g>
        <path class="cls-13" d="m362.97,32.31c1.14-.69,2.35-1.21,3.59-1.56l.74-3.56,6.01-.11.86,3.53c1.26.31,2.49.79,3.65,1.43l3.04-1.99,4.32,4.17-1.88,3.1c.69,1.14,1.21,2.35,1.56,3.59l3.56.74.11,6.01-3.53.86c-.31,1.26-.79,2.49-1.43,3.65l1.99,3.04-4.17,4.32-3.1-1.88c-1.14.69-2.35,1.21-3.59,1.56l-.74,3.56-6.01.11-.86-3.53c-1.26-.31-2.49-.79-3.65-1.43l-3.04,1.99-4.32-4.17,1.88-3.1c-.69-1.14-1.21-2.35-1.56-3.59l-3.56-.74-.11-6.01,3.53-.87c.31-1.26.79-2.49,1.43-3.65l-1.99-3.04,4.17-4.32,3.11,1.88h0Zm3.2,8c-2.47,2.56-2.4,6.64.16,9.12,2.56,2.47,6.64,2.4,9.12-.16,2.47-2.56,2.4-6.64-.16-9.12-2.56-2.47-6.64-2.4-9.12.16Z"/>
        <path class="cls-13" d="m366.18,40.31s.34-.48,1.2-1.05c.85-.56,2.33-1.19,4.21-.99.92.1,1.94.41,2.86,1.02.91.61,1.77,1.48,2.31,2.6.28.55.48,1.17.59,1.81.12.64.13,1.31.04,1.98-.16,1.35-.8,2.67-1.79,3.72-1.01,1.03-2.31,1.71-3.65,1.92-.67.12-1.34.13-1.99.03-.65-.08-1.27-.26-1.83-.52-1.15-.5-2.04-1.33-2.68-2.22-.64-.9-.98-1.9-1.12-2.82-.26-1.87.31-3.37.85-4.24.55-.88,1.01-1.24,1.01-1.24.03.03-.39.42-.89,1.31-.49.87-1,2.34-.71,4.13.15.88.48,1.83,1.11,2.68.62.84,1.48,1.62,2.57,2.09.54.25,1.13.41,1.74.48.61.09,1.25.08,1.88-.04,1.27-.2,2.49-.85,3.45-1.82.93-.99,1.54-2.24,1.7-3.51.09-.63.08-1.27-.03-1.88-.1-.61-.28-1.19-.54-1.72-.5-1.07-1.31-1.91-2.17-2.5-.87-.59-1.83-.9-2.72-1.01-1.8-.22-3.25.34-4.1.86-.87.53-1.25.97-1.28.93Z"/>
        <path class="cls-13" d="m362.97,32.31s-.07-.03-.2-.11c-.15-.08-.34-.2-.6-.34-.54-.32-1.32-.78-2.34-1.38h.07c-1.06,1.1-2.46,2.57-4.15,4.34v-.12c.62.92,1.29,1.94,2.01,3.03l.04.05-.03.06c-.59,1.07-1.09,2.29-1.41,3.62l-.02.07-.07.02c-1.1.27-2.29.57-3.53.88l.1-.13c.04,1.89.08,3.9.12,6.01l-.12-.14c1.1.23,2.31.48,3.56.73l.09.02.03.09c.33,1.16.85,2.39,1.55,3.55l.05.08-.05.08c-.58.96-1.22,2.03-1.88,3.11l-.03-.2c1.36,1.31,2.83,2.72,4.33,4.17l-.21-.02c.95-.62,1.98-1.3,3.04-1.99l.09-.06.09.05c1.06.59,2.3,1.1,3.6,1.41l.1.03.03.11c.27,1.1.57,2.31.87,3.53l-.18-.14c1.9-.03,3.94-.07,6.01-.11l-.18.15c.23-1.12.49-2.34.74-3.56l.02-.11.11-.03c1.18-.33,2.41-.85,3.55-1.54h0s.1-.06.1-.06l.09.06c1.04.63,2.08,1.26,3.1,1.88l-.23.03c1.41-1.46,2.8-2.9,4.18-4.32l-.02.23c-.67-1.02-1.33-2.04-1.99-3.04l-.06-.09.05-.1c.64-1.14,1.11-2.36,1.42-3.6l.03-.11.11-.03c1.19-.29,2.37-.58,3.53-.86l-.13.17c-.03-2.05-.07-4.06-.1-6.01l.14.16c-1.21-.25-2.39-.5-3.56-.74l-.1-.02-.03-.1c-.36-1.27-.89-2.47-1.54-3.56l-.05-.08.05-.08c.65-1.06,1.27-2.09,1.89-3.1l.02.19c-1.52-1.47-2.95-2.86-4.31-4.18l.18.02c-1.07.7-2.07,1.35-3.04,1.98l-.07.04-.07-.04c-1.21-.68-2.42-1.13-3.61-1.43l-.07-.02-.02-.07c-.31-1.28-.59-2.44-.85-3.53l.11.08c-2.33.03-4.31.06-6.01.08l.08-.07c-.3,1.42-.55,2.58-.76,3.55v.04s-.04,0-.04,0c-1.27.35-2.17.77-2.75,1.06-.28.15-.49.26-.65.34-.15.08-.22.11-.22.11,0,0,.07-.05.2-.14.14-.08.35-.21.63-.36.57-.31,1.47-.74,2.74-1.12l-.04.04c.2-.97.43-2.14.72-3.56v-.06s.08,0,.08,0c1.7-.04,3.68-.08,6.01-.13h.09s.02.08.02.08c.27,1.09.56,2.24.88,3.53l-.09-.09c1.21.29,2.45.75,3.68,1.44h-.14c.97-.63,1.97-1.29,3.03-1.99l.09-.06.08.08c1.37,1.32,2.81,2.7,4.33,4.17l.09.09-.06.11c-.61,1.01-1.23,2.04-1.88,3.11v-.17c.67,1.11,1.21,2.33,1.58,3.63l-.13-.12c1.16.24,2.35.49,3.56.74l.13.03v.14c.04,1.95.08,3.96.11,6.01v.14s-.13.03-.13.03c-1.16.29-2.33.57-3.53.87l.13-.13c-.31,1.27-.8,2.52-1.45,3.69v-.19c.65,1,1.31,2.01,1.98,3.04l.08.12-.1.11c-1.37,1.42-2.76,2.86-4.17,4.32l-.1.11-.13-.08c-1.03-.62-2.06-1.25-3.1-1.88h.19s0,0,0,0c-1.17.71-2.42,1.24-3.64,1.58l.13-.14c-.25,1.22-.51,2.43-.74,3.56l-.03.14h-.15c-2.07.04-4.11.07-6.01.11h-.14s-.03-.14-.03-.14c-.3-1.22-.59-2.42-.86-3.53l.13.13c-1.34-.33-2.6-.85-3.69-1.45h.18c-1.05.68-2.09,1.36-3.04,1.98l-.12.08-.1-.1c-1.5-1.45-2.96-2.87-4.32-4.18l-.09-.09.07-.11c.66-1.08,1.3-2.14,1.89-3.1v.16c-.72-1.19-1.24-2.45-1.57-3.63l.12.11c-1.24-.26-2.45-.52-3.55-.75l-.11-.02v-.12c-.03-2.11-.06-4.12-.09-6.01v-.11s.1-.02.1-.02c1.24-.3,2.43-.59,3.53-.86l-.09.09c.34-1.36.85-2.59,1.46-3.67v.11c-.71-1.1-1.37-2.12-1.97-3.05l-.04-.06.05-.05c1.71-1.75,3.12-3.2,4.2-4.3l.03-.03.04.02c.99.62,1.76,1.09,2.29,1.42.25.16.44.28.59.37.13.09.2.13.2.14Z"/>
      </g>
      <g>
        <path class="cls-13" d="m264.88,58.94c.88-.53,1.82-.94,2.79-1.21l.57-2.76,4.67-.08.67,2.74c.98.24,1.93.61,2.83,1.11l2.36-1.55,3.36,3.24-1.46,2.41c.53.88.94,1.82,1.21,2.79l2.76.57.08,4.67-2.74.67c-.24.98-.61,1.93-1.11,2.83l1.55,2.36-3.24,3.36-2.41-1.46c-.88.53-1.82.94-2.79,1.21l-.57,2.76-4.67.08-.67-2.74c-.98-.24-1.93-.61-2.83-1.11l-2.36,1.55-3.36-3.24,1.46-2.41c-.53-.88-.94-1.82-1.21-2.79l-2.76-.57-.08-4.67,2.74-.67c.24-.98.61-1.93,1.11-2.83l-1.55-2.36,3.24-3.36,2.41,1.46h0Zm2.49,6.22c-1.92,1.99-1.87,5.16.12,7.08,1.99,1.92,5.16,1.87,7.08-.12,1.92-1.99,1.87-5.16-.12-7.08-1.99-1.92-5.16-1.87-7.08.12Z"/>
        <path class="cls-13" d="m267.37,65.16s.26-.37.93-.82c.66-.44,1.81-.93,3.27-.77.72.08,1.5.31,2.22.79.71.47,1.38,1.15,1.8,2.02.22.43.37.91.46,1.41.09.5.1,1.02.03,1.54-.13,1.05-.62,2.08-1.39,2.89-.78.8-1.8,1.33-2.84,1.49-.52.09-1.04.1-1.54.03-.5-.07-.98-.2-1.42-.41-.89-.39-1.59-1.03-2.09-1.72-.5-.7-.76-1.48-.87-2.19-.2-1.45.24-2.62.66-3.29.43-.69.78-.96.78-.96.03.02-.3.33-.69,1.02-.38.68-.78,1.82-.55,3.21.11.68.38,1.42.86,2.08.48.65,1.15,1.26,2,1.62.42.19.87.32,1.35.38.47.07.97.06,1.46-.03.98-.16,1.94-.66,2.68-1.41.73-.77,1.19-1.74,1.32-2.73.07-.49.06-.99-.02-1.46-.08-.47-.22-.93-.42-1.33-.39-.83-1.02-1.48-1.69-1.94-.68-.46-1.42-.7-2.11-.79-1.4-.17-2.52.26-3.18.67-.67.41-.97.75-.99.72Z"/>
        <path class="cls-13" d="m264.88,58.94s-.05-.02-.16-.08c-.11-.07-.27-.15-.46-.27-.42-.25-1.03-.61-1.82-1.07h.06c-.83.86-1.91,1.99-3.22,3.37v-.09c.48.71,1,1.51,1.56,2.35l.03.04-.02.05c-.46.83-.84,1.78-1.1,2.81v.06s-.07.01-.07.01c-.85.21-1.78.44-2.74.68l.08-.1c.03,1.47.06,3.03.09,4.67l-.09-.11c.86.18,1.8.37,2.76.57h.07s.02.08.02.08c.26.9.66,1.86,1.2,2.76l.04.06-.04.06c-.45.75-.95,1.57-1.46,2.41l-.02-.16c1.06,1.02,2.19,2.11,3.36,3.24l-.17-.02c.73-.48,1.54-1.01,2.36-1.55l.07-.05.07.04c.82.46,1.79.85,2.8,1.1l.08.02.02.08c.21.86.44,1.79.67,2.74l-.14-.11c1.48-.03,3.06-.06,4.67-.08l-.14.11c.18-.87.38-1.81.57-2.76l.02-.09.08-.02c.92-.26,1.87-.66,2.75-1.2h0s.08-.05.08-.05l.07.04c.81.49,1.61.98,2.41,1.46l-.18.02c1.1-1.13,2.18-2.25,3.24-3.36l-.02.18c-.52-.79-1.04-1.58-1.54-2.36l-.05-.07.04-.07c.5-.89.86-1.83,1.1-2.8l.02-.08.08-.02c.93-.23,1.84-.45,2.74-.67l-.1.14c-.03-1.59-.05-3.15-.08-4.67l.11.13c-.94-.2-1.86-.39-2.76-.58l-.08-.02-.02-.07c-.28-.99-.69-1.92-1.2-2.76l-.04-.06.04-.06c.5-.83.99-1.63,1.47-2.41l.02.15c-1.18-1.14-2.29-2.22-3.35-3.25h.14c-.83.55-1.61,1.06-2.36,1.55l-.05.03-.05-.03c-.94-.53-1.88-.88-2.8-1.11h-.06s-.01-.07-.01-.07c-.24-1-.46-1.89-.66-2.74l.08.06c-1.81.02-3.35.04-4.67.06l.06-.05c-.24,1.1-.43,2.01-.59,2.76v.03s-.03,0-.03,0c-.99.28-1.68.6-2.13.82-.22.11-.38.2-.5.26-.11.06-.17.09-.17.09,0,0,.05-.04.16-.11.11-.07.27-.16.49-.28.45-.24,1.14-.58,2.13-.87l-.03.03c.15-.75.33-1.66.56-2.77v-.05s.06,0,.06,0c1.32-.03,2.86-.06,4.67-.1h.07s.02.06.02.06c.21.85.43,1.74.68,2.74l-.07-.07c.94.23,1.9.59,2.86,1.12h-.11c.75-.49,1.53-1,2.36-1.55l.07-.05.06.06c1.06,1.02,2.18,2.1,3.36,3.24l.07.07-.05.08c-.47.78-.96,1.59-1.46,2.41v-.13c.52.86.94,1.81,1.23,2.82l-.1-.09c.9.19,1.83.38,2.76.57l.1.02v.11c.03,1.52.06,3.07.09,4.67v.11s-.1.03-.1.03c-.9.22-1.81.45-2.74.67l.1-.1c-.24.99-.62,1.96-1.13,2.87v-.15c.51.78,1.02,1.56,1.54,2.36l.06.09-.08.08c-1.07,1.1-2.15,2.22-3.24,3.36l-.08.08-.1-.06c-.8-.48-1.6-.97-2.41-1.46h.15s0,0,0,0c-.91.55-1.88.96-2.82,1.23l.1-.11c-.2.95-.39,1.89-.58,2.76l-.02.11h-.11c-1.61.03-3.19.06-4.67.08h-.11s-.03-.11-.03-.11c-.23-.95-.46-1.88-.67-2.74l.1.1c-1.04-.26-2.02-.66-2.86-1.13h.14c-.82.53-1.63,1.06-2.36,1.54l-.09.06-.08-.07c-1.16-1.13-2.3-2.23-3.35-3.25l-.07-.07.05-.09c.51-.84,1.01-1.66,1.47-2.41v.13c-.56-.92-.96-1.9-1.22-2.82l.09.08c-.97-.2-1.91-.4-2.76-.58l-.09-.02v-.09c-.03-1.64-.05-3.2-.07-4.67v-.08s.08-.02.08-.02c.96-.23,1.89-.46,2.74-.66l-.07.07c.26-1.05.66-2.01,1.13-2.85v.09c-.55-.85-1.07-1.65-1.53-2.37l-.03-.05.04-.04c1.33-1.36,2.43-2.48,3.26-3.34l.03-.03.03.02c.77.48,1.36.85,1.78,1.11.19.12.34.22.46.29.1.07.15.1.15.11Z"/>
      </g>
      <g>
        <path class="cls-13" d="m50.99,141.26c.88-.53,1.82-.94,2.79-1.21l.57-2.76,4.67-.08.67,2.74c.98.24,1.93.61,2.83,1.11l2.36-1.55,3.36,3.24-1.46,2.41c.53.88.94,1.82,1.21,2.79l2.76.57.08,4.67-2.74.67c-.24.98-.61,1.93-1.11,2.83l1.55,2.36-3.24,3.36-2.41-1.46c-.88.53-1.82.94-2.79,1.21l-.57,2.76-4.67.08-.67-2.74c-.98-.24-1.93-.61-2.83-1.11l-2.36,1.55-3.36-3.24,1.46-2.41c-.53-.88-.94-1.82-1.21-2.79l-2.76-.57-.08-4.67,2.74-.67c.24-.98.61-1.93,1.11-2.83l-1.55-2.36,3.24-3.36,2.41,1.46h0Zm2.49,6.22c-1.92,1.99-1.87,5.16.12,7.08,1.99,1.92,5.16,1.87,7.08-.12,1.92-1.99,1.87-5.16-.12-7.08-1.99-1.92-5.16-1.87-7.08.12Z"/>
        <path class="cls-13" d="m53.48,147.48s.26-.37.93-.82c.66-.44,1.81-.93,3.27-.77.72.08,1.5.31,2.22.79.71.47,1.38,1.15,1.8,2.02.22.43.37.91.46,1.41.09.5.1,1.02.03,1.54-.13,1.05-.62,2.08-1.39,2.89-.78.8-1.8,1.33-2.84,1.49-.52.09-1.04.1-1.54.03-.5-.07-.98-.2-1.42-.41-.89-.39-1.59-1.03-2.09-1.72-.5-.7-.76-1.48-.87-2.19-.2-1.45.24-2.62.66-3.29.43-.69.78-.96.78-.96.03.02-.3.33-.69,1.02-.38.68-.78,1.82-.55,3.21.11.68.38,1.42.86,2.08.48.65,1.15,1.26,2,1.62.42.19.87.32,1.35.38.47.07.97.06,1.46-.03.98-.16,1.94-.66,2.68-1.41.73-.77,1.19-1.74,1.32-2.73.07-.49.06-.99-.02-1.46-.08-.47-.22-.93-.42-1.33-.39-.83-1.02-1.48-1.69-1.94-.68-.46-1.42-.7-2.11-.79-1.4-.17-2.52.26-3.18.67-.67.41-.97.75-.99.72Z"/>
        <path class="cls-13" d="m50.99,141.26s-.05-.02-.16-.08c-.11-.07-.27-.15-.46-.27-.42-.25-1.03-.61-1.82-1.07h.06c-.83.86-1.91,1.99-3.22,3.37v-.09c.48.71,1,1.51,1.56,2.35l.03.04-.02.05c-.46.83-.84,1.78-1.1,2.81v.06s-.07.01-.07.01c-.85.21-1.78.44-2.74.68l.08-.1c.03,1.47.06,3.03.09,4.67l-.09-.11c.86.18,1.8.37,2.76.57h.07s.02.08.02.08c.26.9.66,1.86,1.2,2.76l.04.06-.04.06c-.45.75-.95,1.57-1.46,2.41l-.02-.16c1.06,1.02,2.19,2.11,3.36,3.24l-.17-.02c.73-.48,1.54-1.01,2.36-1.55l.07-.05.07.04c.82.46,1.79.85,2.8,1.1l.08.02.02.08c.21.86.44,1.79.67,2.74l-.14-.11c1.48-.03,3.06-.06,4.67-.08l-.14.11c.18-.87.38-1.81.57-2.76l.02-.09.08-.02c.92-.26,1.87-.66,2.75-1.2h0s.08-.05.08-.05l.07.04c.81.49,1.61.98,2.41,1.46l-.18.02c1.1-1.13,2.18-2.25,3.24-3.36l-.02.18c-.52-.79-1.04-1.58-1.54-2.36l-.05-.07.04-.07c.5-.89.86-1.83,1.1-2.8l.02-.08.08-.02c.93-.23,1.84-.45,2.74-.67l-.1.14c-.03-1.59-.05-3.15-.08-4.67l.11.13c-.94-.2-1.86-.39-2.76-.58l-.08-.02-.02-.07c-.28-.99-.69-1.92-1.2-2.76l-.04-.06.04-.06c.5-.83.99-1.63,1.47-2.41l.02.15c-1.18-1.14-2.29-2.22-3.35-3.25h.14c-.83.55-1.61,1.06-2.36,1.55l-.05.03-.05-.03c-.94-.53-1.88-.88-2.8-1.11h-.06s-.01-.07-.01-.07c-.24-1-.46-1.89-.66-2.74l.08.06c-1.81.02-3.35.04-4.67.06l.06-.05c-.24,1.1-.43,2.01-.59,2.76v.03s-.03,0-.03,0c-.99.28-1.68.6-2.13.82-.22.11-.38.2-.5.26-.11.06-.17.09-.17.09,0,0,.05-.04.16-.11.11-.07.27-.16.49-.28.45-.24,1.14-.58,2.13-.87l-.03.03c.15-.75.33-1.66.56-2.77v-.05s.06,0,.06,0c1.32-.03,2.86-.06,4.67-.1h.07s.02.06.02.06c.21.85.43,1.74.68,2.74l-.07-.07c.94.23,1.9.59,2.86,1.12h-.11c.75-.49,1.53-1,2.36-1.55l.07-.05.06.06c1.06,1.02,2.18,2.1,3.36,3.24l.07.07-.05.08c-.47.78-.96,1.59-1.46,2.41v-.13c.52.86.94,1.81,1.23,2.82l-.1-.09c.9.19,1.83.38,2.76.57l.1.02v.11c.03,1.52.06,3.07.09,4.67v.11s-.1.03-.1.03c-.9.22-1.81.45-2.74.67l.1-.1c-.24.99-.62,1.96-1.13,2.87v-.15c.51.78,1.02,1.56,1.54,2.36l.06.09-.08.08c-1.07,1.1-2.15,2.22-3.24,3.36l-.08.08-.1-.06c-.8-.48-1.6-.97-2.41-1.46h.15s0,0,0,0c-.91.55-1.88.96-2.82,1.23l.1-.11c-.2.95-.39,1.89-.58,2.76l-.02.11h-.11c-1.61.03-3.19.06-4.67.08h-.11s-.03-.11-.03-.11c-.23-.95-.46-1.88-.67-2.74l.1.1c-1.04-.26-2.02-.66-2.86-1.13h.14c-.82.53-1.63,1.06-2.36,1.54l-.09.06-.08-.07c-1.16-1.13-2.3-2.23-3.35-3.25l-.07-.07.05-.09c.51-.84,1.01-1.66,1.47-2.41v.13c-.56-.92-.96-1.9-1.22-2.82l.09.08c-.97-.2-1.91-.4-2.76-.58l-.09-.02v-.09c-.03-1.64-.05-3.2-.07-4.67v-.08s.08-.02.08-.02c.96-.23,1.89-.46,2.74-.66l-.07.07c.26-1.05.66-2.01,1.13-2.85v.09c-.55-.85-1.07-1.65-1.53-2.37l-.03-.05.04-.04c1.33-1.36,2.43-2.48,3.26-3.34l.03-.03.03.02c.77.48,1.36.85,1.78,1.11.19.12.34.22.46.29.1.07.15.1.15.11Z"/>
      </g>
      <g>
        <path class="cls-6" d="m72.81,213.89c2.8-1.69,5.77-2.97,8.84-3.84l1.82-8.75,14.79-.26,2.13,8.68c3.1.76,6.12,1.94,8.97,3.53l7.47-4.9,10.64,10.27-4.63,7.64c1.69,2.8,2.97,5.78,3.84,8.85l8.75,1.82.26,14.79-8.68,2.13c-.76,3.1-1.94,6.12-3.53,8.97l4.9,7.48-10.27,10.64-7.64-4.63c-2.8,1.69-5.77,2.97-8.84,3.84l-1.82,8.75-14.79.26-2.13-8.68c-3.1-.76-6.12-1.94-8.97-3.53l-7.47,4.9-10.64-10.27,4.63-7.64c-1.69-2.8-2.97-5.77-3.84-8.84l-8.75-1.82-.26-14.79,8.68-2.13c.76-3.1,1.94-6.12,3.53-8.97l-4.9-7.47,10.27-10.64,7.64,4.63h0Zm7.88,19.7c-6.09,6.3-5.91,16.35.39,22.44,6.3,6.09,16.35,5.91,22.44-.39,6.09-6.3,5.91-16.35-.39-22.44-6.3-6.09-16.35-5.91-22.44.39Z"/>
        <path class="cls-12" d="m80.7,233.59s.83-1.17,2.95-2.59c2.09-1.39,5.73-2.94,10.35-2.45,2.28.26,4.77,1,7.04,2.5,2.25,1.5,4.37,3.64,5.69,6.41.7,1.36,1.18,2.87,1.44,4.45.29,1.58.33,3.23.09,4.88-.4,3.32-1.97,6.58-4.4,9.15-2.48,2.53-5.69,4.21-8.99,4.73-1.64.3-3.3.31-4.89.08-1.59-.21-3.12-.64-4.5-1.29-2.82-1.23-5.03-3.27-6.61-5.46-1.58-2.22-2.41-4.68-2.74-6.94-.65-4.6.77-8.3,2.08-10.43,1.35-2.17,2.49-3.04,2.49-3.04.09.07-.96,1.04-2.18,3.22-1.19,2.14-2.46,5.75-1.75,10.16.36,2.17,1.19,4.51,2.72,6.6,1.53,2.07,3.65,3.99,6.33,5.13,1.32.61,2.77,1,4.27,1.19,1.5.21,3.07.19,4.62-.1,3.12-.5,6.14-2.1,8.48-4.48,2.3-2.43,3.78-5.5,4.18-8.64.23-1.56.2-3.13-.06-4.62-.24-1.5-.69-2.93-1.34-4.23-1.23-2.64-3.23-4.69-5.35-6.15-2.15-1.46-4.51-2.2-6.7-2.49-4.43-.55-7.99.84-10.09,2.11-2.13,1.3-3.07,2.38-3.14,2.29Z"/>
        <path class="cls-12" d="m72.81,213.89s-.17-.07-.49-.26c-.36-.21-.84-.49-1.47-.85-1.34-.79-3.26-1.93-5.76-3.4l.18-.02c-2.61,2.74-6.05,6.34-10.21,10.7l.03-.29c1.49,2.26,3.15,4.77,4.93,7.45l.09.13-.08.14c-1.45,2.63-2.67,5.63-3.47,8.91l-.04.17-.18.04c-2.7.67-5.63,1.4-8.68,2.15l.25-.32c.09,4.66.19,9.6.29,14.79l-.28-.34c2.71.56,5.7,1.17,8.76,1.8l.22.05.06.22c.81,2.85,2.08,5.89,3.82,8.74l.12.2-.12.2c-1.43,2.37-3.01,4.98-4.62,7.65l-.06-.5c3.35,3.22,6.95,6.7,10.65,10.26l-.53-.05c2.33-1.53,4.88-3.21,7.47-4.91l.22-.14.23.13c2.61,1.45,5.66,2.7,8.87,3.48l.26.06.06.26c.67,2.72,1.4,5.69,2.13,8.68l-.44-.34c4.68-.08,9.7-.17,14.79-.27l-.43.36c.57-2.76,1.19-5.75,1.82-8.75l.06-.27.26-.07c2.91-.82,5.93-2.1,8.73-3.79h0s.24-.15.24-.15l.23.14c2.57,1.56,5.12,3.1,7.64,4.63l-.56.07c3.47-3.6,6.9-7.14,10.28-10.64l-.05.56c-1.65-2.52-3.28-5.01-4.9-7.48l-.15-.23.13-.24c1.57-2.81,2.74-5.81,3.49-8.86l.06-.26.26-.06c2.94-.72,5.83-1.42,8.68-2.12l-.33.43c-.08-5.05-.17-9.98-.24-14.79l.33.4c-2.97-.62-5.89-1.23-8.75-1.83l-.24-.05-.07-.24c-.89-3.14-2.18-6.08-3.79-8.75l-.12-.2.12-.2c1.59-2.62,3.14-5.15,4.65-7.63l.06.47c-3.74-3.62-7.26-7.04-10.62-10.3l.43.04c-2.63,1.72-5.1,3.33-7.49,4.88l-.17.11-.17-.1c-2.98-1.67-5.96-2.79-8.89-3.53l-.18-.04-.04-.17c-.76-3.16-1.45-6-2.1-8.69l.27.2c-5.73.08-10.61.14-14.79.19l.2-.16c-.75,3.49-1.37,6.36-1.88,8.74l-.02.09-.08.02c-3.13.87-5.33,1.9-6.76,2.6-.68.36-1.21.63-1.59.83-.36.2-.53.28-.53.27,0-.01.17-.13.49-.34.34-.21.85-.52,1.56-.9,1.42-.75,3.61-1.82,6.75-2.75l-.1.11c.48-2.39,1.06-5.26,1.76-8.77l.03-.16h.16c4.18-.1,9.06-.2,14.79-.33h.21s.05.2.05.2c.67,2.68,1.37,5.52,2.16,8.68l-.22-.22c2.97.73,6.02,1.85,9.06,3.54h-.34c2.38-1.55,4.84-3.18,7.46-4.91l.23-.15.2.19c3.37,3.24,6.91,6.65,10.66,10.25l.22.21-.16.26c-1.5,2.48-3.04,5.03-4.62,7.65v-.41c1.65,2.73,2.98,5.73,3.9,8.94l-.31-.29c2.87.59,5.78,1.2,8.75,1.81l.33.07v.34c.1,4.81.19,9.74.28,14.79v.35s-.33.08-.33.08c-2.85.7-5.75,1.41-8.68,2.14l.32-.32c-.77,3.13-1.96,6.2-3.57,9.08l-.02-.46c1.62,2.47,3.25,4.96,4.9,7.47l.2.3-.25.26c-3.38,3.5-6.8,7.05-10.27,10.64l-.25.26-.31-.19c-2.53-1.53-5.08-3.08-7.64-4.63h.47s0,0,0,0c-2.87,1.74-5.96,3.04-8.95,3.89l.32-.34c-.63,3-1.25,5.99-1.82,8.75l-.07.35h-.36c-5.09.09-10.11.18-14.79.26h-.36s-.08-.34-.08-.34c-.73-3-1.46-5.96-2.12-8.68l.32.32c-3.29-.81-6.41-2.09-9.08-3.58l.45-.02c-2.59,1.7-5.15,3.37-7.48,4.89l-.28.19-.24-.24c-3.69-3.57-7.29-7.06-10.63-10.29l-.23-.23.17-.28c1.62-2.66,3.2-5.27,4.64-7.63v.41c-1.76-2.92-3.05-6.03-3.87-8.94l.28.26c-3.06-.64-6.04-1.27-8.75-1.84l-.28-.06v-.29c-.08-5.19-.16-10.13-.23-14.79v-.26s.25-.06.25-.06c3.05-.74,5.98-1.45,8.69-2.1l-.22.22c.83-3.34,2.09-6.37,3.59-9.03v.28c-1.74-2.7-3.38-5.22-4.86-7.49l-.1-.16.13-.13c4.21-4.31,7.69-7.87,10.33-10.58l.08-.08.1.06c2.44,1.52,4.32,2.69,5.63,3.5.62.39,1.09.69,1.45.92.33.21.49.32.49.34Z"/>
      </g>
      <g>
        <path class="cls-13" d="m327.82,64.66c2.2.04,4.35.38,6.41.99l4.18-4.33,8.51,5.16-1.9,5.7c1.49,1.55,2.79,3.3,3.84,5.23l6.01-.11,2.37,9.66-5.38,2.68c-.04,2.2-.38,4.35-.99,6.41l4.33,4.18-5.16,8.51-5.7-1.9c-1.55,1.49-3.3,2.79-5.23,3.84l.1,6.01-9.66,2.37-2.68-5.38c-2.2-.04-4.35-.38-6.41-.99l-4.18,4.33-8.51-5.16,1.9-5.7c-1.49-1.55-2.79-3.3-3.84-5.23l-6.01.11-2.37-9.66,5.38-2.68c.04-2.2.38-4.35.99-6.41l-4.33-4.18,5.16-8.51,5.7,1.9c1.55-1.49,3.3-2.78,5.23-3.84l-.11-6.01,9.66-2.37,2.69,5.38h0Zm-2.58,14.04c-5.73,1.4-9.23,7.18-7.83,12.91,1.4,5.73,7.18,9.23,12.91,7.83,5.73-1.4,9.23-7.18,7.83-12.91-1.4-5.73-7.18-9.23-12.91-7.83Z"/>
        <path class="cls-13" d="m325.23,78.7s.89-.37,2.61-.42c1.68-.04,4.31.39,6.77,2.32,1.2.96,2.35,2.28,3.11,3.95.74,1.66,1.18,3.64.94,5.69-.09,1.03-.36,2.06-.78,3.05-.4,1-.98,1.96-1.7,2.81-1.42,1.74-3.48,3.04-5.79,3.62-2.32.55-4.75.35-6.81-.54-1.04-.42-1.99-1.01-2.81-1.71-.83-.69-1.54-1.48-2.1-2.35-1.16-1.71-1.69-3.66-1.8-5.48-.1-1.83.31-3.53.93-4.94,1.28-2.85,3.41-4.45,4.93-5.19,1.55-.75,2.51-.84,2.51-.84.02.07-.92.25-2.4,1.05-1.45.79-3.46,2.39-4.64,5.15-.57,1.36-.94,2.99-.82,4.73.13,1.73.65,3.58,1.76,5.19.53.82,1.22,1.56,2,2.21.78.66,1.68,1.21,2.67,1.6,1.95.83,4.24,1.01,6.43.5,2.18-.56,4.13-1.77,5.47-3.41.69-.8,1.24-1.71,1.62-2.65.4-.94.66-1.92.76-2.89.25-1.94-.15-3.83-.84-5.42-.7-1.6-1.78-2.87-2.92-3.82-2.32-1.9-4.85-2.39-6.5-2.42-1.68-.03-2.6.25-2.61.18Z"/>
        <path class="cls-13" d="m327.82,64.66s-.07-.1-.19-.32c-.13-.25-.3-.58-.53-1.01-.48-.93-1.16-2.27-2.06-4l.11.05c-2.47.62-5.72,1.44-9.65,2.42l.12-.15c.04,1.82.08,3.84.13,6.01v.11s-.09.05-.09.05c-1.77.98-3.54,2.24-5.17,3.83l-.09.08-.12-.04c-1.78-.59-3.71-1.23-5.71-1.89l.26-.09c-1.62,2.68-3.34,5.53-5.14,8.52l-.04-.3c1.34,1.29,2.82,2.71,4.33,4.17l.11.11-.04.15c-.56,1.92-.93,4.1-.97,6.34v.16s-.15.07-.15.07c-1.67.83-3.5,1.76-5.37,2.69l.14-.31c.75,3.03,1.55,6.31,2.38,9.66l-.28-.22c1.87-.03,3.93-.07,6.01-.11h.18s.08.15.08.15c.96,1.76,2.25,3.56,3.8,5.16l.12.13-.06.17c-.6,1.79-1.24,3.74-1.9,5.71l-.13-.35c2.69,1.63,5.58,3.38,8.51,5.16l-.38.05c1.32-1.37,2.74-2.84,4.18-4.33l.13-.13.18.05c1.95.58,4.13.93,6.32.97h0s.19,0,.19,0l.08.16c.9,1.81,1.8,3.6,2.68,5.38l-.35-.16c3.27-.8,6.49-1.59,9.66-2.37l-.23.3c-.03-2.02-.07-4.03-.1-6.01v-.18s.16-.09.16-.09c1.9-1.04,3.64-2.32,5.17-3.79l.13-.12.17.06c1.93.65,3.83,1.28,5.7,1.91l-.34.13c1.76-2.9,3.49-5.74,5.17-8.5l.05.35c-1.47-1.42-2.91-2.81-4.32-4.18l-.12-.12.05-.16c.62-2.1.94-4.24.99-6.34v-.16s.15-.07.15-.07c1.85-.92,3.63-1.81,5.38-2.68l-.13.29c-.83-3.4-1.61-6.61-2.35-9.67l.23.18c-2.11.03-4.1.06-6.01.09h-.13s-.06-.11-.06-.11c-1.1-2.02-2.39-3.73-3.79-5.19l-.08-.09.04-.11c.7-2.07,1.33-3.94,1.92-5.7l.08.21c-3.29-2.01-6.09-3.73-8.48-5.2l.17-.02c-1.68,1.72-3.06,3.13-4.2,4.3l-.04.04-.06-.02c-2.09-.63-3.71-.83-4.78-.95-.52-.04-.91-.07-1.2-.1-.28-.02-.4-.03-.4-.04,0,0,.14-.01.4-.01.27,0,.67,0,1.21.05,1.08.08,2.71.26,4.83.86l-.1.03c1.13-1.19,2.49-2.61,4.15-4.35l.08-.08.09.06c2.41,1.45,5.23,3.14,8.53,5.12l.12.07-.05.14c-.58,1.77-1.2,3.64-1.89,5.71l-.05-.2c1.43,1.48,2.76,3.21,3.89,5.26l-.2-.11c1.91-.04,3.9-.08,6.01-.12h.19s.04.18.04.18c.75,3.05,1.55,6.26,2.39,9.66l.05.2-.18.09c-1.74.87-3.53,1.77-5.37,2.69l.15-.23c-.04,2.14-.36,4.33-.99,6.48l-.07-.27c1.42,1.37,2.86,2.76,4.33,4.17l.16.16-.12.19c-1.67,2.77-3.39,5.61-5.15,8.51l-.12.2-.22-.07c-1.88-.62-3.78-1.26-5.71-1.9l.3-.07c-1.56,1.51-3.34,2.82-5.29,3.89l.16-.27c.04,1.98.07,3.99.11,6.01v.24s-.23.06-.23.06c-3.18.78-6.4,1.57-9.66,2.37l-.24.06-.11-.22c-.89-1.78-1.78-3.57-2.69-5.38l.27.17h0c-2.26-.04-4.48-.41-6.48-1l.31-.08c-1.43,1.49-2.86,2.96-4.18,4.33l-.17.17-.21-.13c-2.93-1.78-5.81-3.53-8.51-5.16l-.2-.12.08-.23c.66-1.97,1.31-3.92,1.91-5.7l.07.3c-1.58-1.64-2.9-3.49-3.88-5.29l.26.15c-2.08.03-4.14.07-6.01.1h-.23s-.05-.22-.05-.22c-.82-3.36-1.62-6.63-2.36-9.67l-.05-.21.2-.1c1.87-.93,3.71-1.85,5.38-2.68l-.15.23c.04-2.3.43-4.52,1.01-6.48l.07.25c-1.51-1.46-2.98-2.89-4.32-4.19l-.14-.13.1-.16c1.82-2.98,3.55-5.82,5.18-8.5l.09-.15.16.06c2,.67,3.92,1.32,5.7,1.92l-.2.05c1.67-1.6,3.48-2.87,5.28-3.85l-.09.16c-.03-2.17-.06-4.19-.08-6.01v-.12s.12-.03.12-.03c3.94-.94,7.2-1.72,9.68-2.31l.08-.02.03.07c.84,1.74,1.49,3.08,1.95,4.01.21.44.37.79.49,1.04.11.24.16.36.16.37Z"/>
      </g>
      <g>
        <path class="cls-12" d="m355.72,254.18s.9-.37,2.64-.42c1.7-.04,4.35.39,6.83,2.34,1.21.97,2.38,2.3,3.13,3.98.75,1.68,1.19,3.67.95,5.74-.09,1.03-.36,2.08-.78,3.08-.41,1.01-.98,1.98-1.72,2.84-1.43,1.76-3.51,3.07-5.84,3.66-2.34.55-4.79.36-6.87-.54-1.05-.42-2.01-1.02-2.84-1.72-.84-.69-1.56-1.49-2.12-2.37-1.17-1.72-1.7-3.7-1.82-5.53-.11-1.84.31-3.56.94-4.98,1.29-2.88,3.45-4.49,4.97-5.24,1.56-.76,2.53-.85,2.53-.85.02.07-.93.25-2.42,1.06-1.46.8-3.5,2.41-4.69,5.2-.58,1.38-.95,3.02-.83,4.78.13,1.74.65,3.62,1.78,5.24.54.83,1.23,1.58,2.02,2.23.79.66,1.7,1.22,2.69,1.62,1.97.84,4.28,1.02,6.49.5,2.2-.56,4.17-1.79,5.53-3.45.7-.81,1.25-1.72,1.64-2.68.4-.95.67-1.93.76-2.91.25-1.96-.16-3.86-.85-5.47-.7-1.61-1.79-2.9-2.94-3.85-2.34-1.92-4.89-2.41-6.56-2.44-1.7-.03-2.62.25-2.63.18Z"/>
        <path class="cls-12" d="m358.33,240.01s-.07-.1-.19-.33c-.13-.25-.31-.58-.53-1.02-.48-.94-1.17-2.29-2.08-4.04l.11.05c-2.49.63-5.77,1.45-9.74,2.45l.12-.15c.04,1.84.08,3.88.13,6.07v.11s-.09.05-.09.05c-1.79.98-3.57,2.26-5.22,3.86l-.09.09-.12-.04c-1.8-.59-3.74-1.24-5.76-1.91l.26-.09c-1.63,2.71-3.37,5.58-5.19,8.6l-.04-.3c1.35,1.3,2.85,2.74,4.37,4.21l.11.11-.04.15c-.57,1.93-.94,4.14-.97,6.4v.16s-.15.07-.15.07c-1.68.84-3.54,1.77-5.42,2.72l.14-.31c.75,3.06,1.57,6.37,2.4,9.75l-.28-.22c1.89-.03,3.96-.07,6.07-.11h.18s.09.15.09.15c.97,1.78,2.27,3.6,3.83,5.21l.13.13-.06.17c-.6,1.8-1.26,3.77-1.92,5.76l-.13-.35c2.72,1.65,5.63,3.41,8.59,5.2l-.38.05c1.33-1.38,2.77-2.87,4.21-4.37l.13-.13.18.05c1.97.58,4.16.94,6.38.98h0s.19,0,.19,0l.08.17c.91,1.82,1.81,3.63,2.71,5.43l-.35-.16c3.3-.81,6.55-1.6,9.75-2.39l-.23.3c-.03-2.04-.07-4.06-.1-6.07v-.18s.16-.09.16-.09c1.92-1.05,3.68-2.34,5.21-3.82l.13-.13.17.06c1.95.65,3.86,1.29,5.76,1.93l-.34.13c1.78-2.93,3.52-5.79,5.22-8.58l.05.35c-1.48-1.43-2.93-2.84-4.36-4.22l-.12-.12.05-.16c.63-2.12.95-4.28.99-6.4v-.16s.15-.07.15-.07c1.86-.93,3.67-1.82,5.43-2.7l-.13.29c-.83-3.43-1.62-6.67-2.37-9.76l.23.18c-2.13.03-4.14.06-6.07.09h-.13s-.06-.12-.06-.12c-1.11-2.04-2.41-3.76-3.83-5.24l-.09-.09.04-.12c.71-2.09,1.34-3.97,1.94-5.75l.08.21c-3.32-2.03-6.14-3.76-8.56-5.24l.17-.02c-1.7,1.73-3.09,3.16-4.24,4.34l-.04.04-.06-.02c-2.11-.63-3.75-.84-4.83-.96-.52-.04-.92-.08-1.21-.1-.28-.02-.41-.03-.4-.04,0,0,.14-.01.4-.01.27,0,.68,0,1.22.05,1.09.08,2.73.26,4.87.87l-.1.03c1.14-1.2,2.51-2.64,4.19-4.39l.08-.08.1.06c2.43,1.46,5.27,3.17,8.61,5.17l.12.07-.05.14c-.59,1.78-1.21,3.67-1.9,5.76l-.05-.2c1.44,1.49,2.78,3.24,3.92,5.31l-.2-.12c1.93-.04,3.93-.08,6.07-.12h.19s.05.18.05.18c.76,3.08,1.56,6.32,2.41,9.75l.05.2-.18.09c-1.76.88-3.56,1.79-5.42,2.72l.15-.23c-.04,2.16-.36,4.37-1,6.54l-.07-.28c1.43,1.38,2.89,2.78,4.37,4.21l.16.16-.12.19c-1.69,2.79-3.42,5.66-5.2,8.59l-.12.2-.22-.07c-1.89-.63-3.81-1.27-5.76-1.92l.3-.07c-1.57,1.52-3.37,2.85-5.34,3.92l.16-.27c.04,2,.07,4.02.11,6.07v.24s-.23.06-.23.06c-3.2.79-6.46,1.58-9.75,2.39l-.24.06-.11-.22c-.9-1.79-1.8-3.61-2.71-5.43l.27.17h0c-2.28-.04-4.53-.41-6.55-1.01l.31-.08c-1.45,1.5-2.89,2.99-4.22,4.37l-.17.18-.21-.13c-2.95-1.79-5.87-3.56-8.58-5.21l-.21-.13.08-.23c.66-1.99,1.32-3.95,1.93-5.76l.07.3c-1.6-1.66-2.93-3.52-3.92-5.34l.26.15c-2.1.03-4.18.07-6.07.1h-.23s-.05-.22-.05-.22c-.83-3.39-1.63-6.69-2.38-9.76l-.05-.21.2-.1c1.89-.94,3.75-1.86,5.43-2.7l-.15.23c.05-2.32.43-4.57,1.02-6.54l.07.26c-1.52-1.48-3.01-2.92-4.36-4.22l-.14-.14.1-.17c1.83-3.01,3.58-5.87,5.23-8.57l.09-.15.17.06c2.02.68,3.96,1.33,5.75,1.94l-.2.05c1.69-1.61,3.51-2.9,5.33-3.89l-.09.16c-.03-2.19-.06-4.23-.08-6.07v-.13s.12-.03.12-.03c3.98-.95,7.27-1.74,9.77-2.33l.08-.02.03.07c.85,1.76,1.51,3.11,1.96,4.05.21.45.38.79.5,1.05.11.24.16.36.16.37Z"/>
      </g>
      <g>
        <polygon class="cls-4" points="36.88 422.11 36.88 452.95 81.99 452.95 131.74 452.95 131.74 422.11 36.88 422.11"/>
        <polygon class="cls-14" points="32.9 413.49 32.9 422.11 135.05 422.11 135.05 413.49 81.99 413.49 32.9 413.49"/>
        <polygon class="cls-14" points="83.98 452.95 131.74 452.95 131.74 422.11 135.05 422.11 135.05 413.49 81.99 413.49 81.99 421.31 83.98 452.95"/>
        <rect class="cls-14" x="50.15" y="427.08" width="19.24" height="4.64"/>
        <rect class="cls-1" x="47.67" y="437.53" width="24.7" height="9.8"/>
      </g>
      <g>
        <polygon class="cls-4" points="51.48 382.68 51.48 413.53 96.58 413.53 146.33 413.53 146.33 382.68 51.48 382.68"/>
        <polygon class="cls-14" points="47.5 374.06 47.5 382.68 149.64 382.68 149.64 374.06 96.58 374.06 47.5 374.06"/>
        <polygon class="cls-14" points="98.57 413.53 146.33 413.53 146.33 382.68 149.64 382.68 149.64 374.06 96.58 374.06 96.58 381.89 98.57 413.53"/>
        <rect class="cls-14" x="64.74" y="387.66" width="19.24" height="4.64"/>
        <rect class="cls-1" x="62.27" y="398.11" width="24.7" height="9.8"/>
      </g>
      <path class="cls-15" d="m461.31,452.95c0,.14-103.28.26-230.64.26s-230.67-.12-230.67-.26,103.25-.26,230.67-.26,230.64.12,230.64.26Z"/>
      <g>
        <path class="cls-8" d="m66.84,33.08c3.72-2.23,7.68-3.92,11.76-5.06l2.46-11.61,19.64-.28,2.79,11.54c4.11,1.03,8.12,2.6,11.9,4.73l9.95-6.47,14.08,13.69-6.19,10.12c2.23,3.72,3.92,7.68,5.06,11.76l11.61,2.46.28,19.64-11.54,2.79c-1.03,4.11-2.6,8.12-4.73,11.9l6.47,9.95-13.69,14.08-10.12-6.19c-3.72,2.23-7.68,3.92-11.76,5.06l-2.46,11.61-19.64.28-2.79-11.54c-4.11-1.03-8.11-2.6-11.9-4.73l-9.95,6.47-14.08-13.69,6.19-10.12c-2.23-3.72-3.92-7.68-5.06-11.76l-11.61-2.46-.28-19.64,11.54-2.79c1.03-4.11,2.6-8.11,4.73-11.9l-6.47-9.95,13.69-14.08,10.13,6.19h0Z"/>
        <g>
          <path class="cls-1" d="m103.29,68.82c-.09,0,.03-1.52-.63-4.13-.31-1.31-.93-2.85-1.9-4.48-.98-1.63-2.39-3.32-4.3-4.76-1.91-1.42-4.31-2.63-7.08-3.12-2.75-.47-5.85-.38-8.81.75-1.49.52-2.92,1.3-4.24,2.28-.68.47-1.28,1.05-1.9,1.62-.56.62-1.15,1.23-1.64,1.94-2.06,2.74-3.22,6.26-3.25,9.89.03,3.63,1.19,7.16,3.25,9.9.49.71,1.08,1.32,1.64,1.94.62.56,1.22,1.15,1.9,1.62,1.32.99,2.75,1.77,4.24,2.29,2.95,1.13,6.06,1.21,8.81.75,2.77-.49,5.17-1.7,7.08-3.12,1.91-1.44,3.32-3.13,4.3-4.76.97-1.63,1.59-3.17,1.9-4.48.66-2.61.54-4.13.63-4.13,0,0,.01.09.01.28,0,.21,0,.48-.01.81,0,.36-.02.8-.11,1.31-.07.52-.14,1.12-.32,1.77-.28,1.33-.88,2.9-1.84,4.58-.97,1.67-2.39,3.42-4.32,4.9-1.93,1.47-4.38,2.73-7.22,3.25-2.82.5-6.01.43-9.05-.72-1.53-.53-3.01-1.33-4.37-2.34-.7-.48-1.32-1.08-1.96-1.66-.58-.64-1.19-1.27-1.69-2-2.13-2.82-3.33-6.46-3.36-10.2.03-3.74,1.24-7.38,3.36-10.2.5-.73,1.11-1.36,1.69-2,.64-.58,1.26-1.18,1.96-1.66,1.36-1.01,2.84-1.81,4.37-2.34,3.04-1.14,6.23-1.22,9.05-.72,2.84.52,5.29,1.78,7.22,3.25,1.94,1.49,3.35,3.24,4.32,4.9.96,1.67,1.56,3.25,1.84,4.58.19.65.25,1.26.32,1.77.09.52.11.96.11,1.31,0,.33.01.6.01.81,0,.18,0,.28-.01.28Z"/>
          <path class="cls-1" d="m97.93,81.21c.1-.1,3.81,3.44,8.27,7.9,4.47,4.47,8.01,8.17,7.91,8.27-.1.1-3.81-3.44-8.27-7.91-4.47-4.47-8.01-8.17-7.9-8.27Z"/>
        </g>
      </g>
      <g>
        <path class="cls-8" d="m201.08,107.39c4.78-2.86,9.86-5.03,15.09-6.5l3.16-14.91,25.2-.35,3.58,14.81c5.28,1.32,10.42,3.34,15.27,6.07l12.77-8.3,18.07,17.57-7.94,12.99c2.86,4.78,5.03,9.86,6.5,15.1l14.91,3.16.36,25.2-14.81,3.58c-1.32,5.28-3.34,10.42-6.07,15.27l8.31,12.77-17.57,18.07-13-7.94c-4.78,2.86-9.86,5.03-15.1,6.5l-3.16,14.91-25.2.36-3.58-14.81c-5.28-1.32-10.42-3.34-15.27-6.07l-12.77,8.31-18.07-17.57,7.94-12.99c-2.86-4.78-5.03-9.86-6.5-15.1l-14.91-3.16-.36-25.2,14.81-3.58c1.32-5.28,3.34-10.42,6.07-15.27l-8.3-12.77,17.57-18.07,13,7.94h0Z"/>
        <g>
          <path class="cls-1" d="m224.47,186.94s.11,0,.3-.01c.22,0,.5,0,.86-.02.78,0,1.88-.02,3.31-.04,2.89-.02,7.08-.05,12.36-.09l-.15.16c-.05-2.13-.11-4.52-.17-7.07v-.12s.11-.05.11-.05c3.53-1.61,7.23-4,10.58-7.24,1.67-1.62,3.18-3.54,4.44-5.69,1.29-2.14,2.06-4.64,2.44-7.23.59-5.22-.57-11.01-3.78-15.84-3.15-4.84-8.04-8.81-13.79-11-4.29-1.63-8.95-1.82-13.24-.92-4.32.8-8.29,2.72-11.5,5.31-3.24,2.6-5.51,6.04-6.94,9.59-.31.91-.7,1.78-.93,2.69-.22.91-.44,1.82-.66,2.71-.31,1.81-.5,3.6-.47,5.34.04,1.74.26,3.43.63,5.03.39,1.6.96,3.09,1.62,4.48,1.35,2.77,3.14,5.06,4.99,6.91,3.73,3.7,7.54,5.83,10.32,7.05l.06.03v.06c-.12,1.93-.21,3.4-.27,4.41-.03.48-.06.86-.08,1.13-.02.26-.03.39-.04.39,0,0,0-.12,0-.36,0-.27.02-.64.03-1.11.04-1.03.09-2.52.16-4.47l.06.09c-2.83-1.19-6.67-3.29-10.47-7-1.88-1.86-3.71-4.16-5.1-6.97-.68-1.4-1.27-2.93-1.67-4.55-.39-1.63-.62-3.34-.67-5.12-.03-1.77.15-3.59.46-5.43.22-.91.44-1.82.66-2.75.23-.93.62-1.82.93-2.74,1.44-3.61,3.76-7.15,7.06-9.8,3.28-2.65,7.32-4.61,11.72-5.44,4.36-.92,9.14-.73,13.52.94,5.86,2.23,10.83,6.27,14.04,11.21,1.61,2.47,2.77,5.17,3.37,7.94.21.68.27,1.38.37,2.07.1.69.22,1.38.21,2.07.02.69.06,1.38.06,2.06-.06.68-.12,1.36-.18,2.03-.39,2.66-1.2,5.21-2.52,7.39-1.29,2.19-2.83,4.13-4.53,5.77-3.42,3.27-7.14,5.64-10.74,7.26l.11-.17c.04,2.56.08,4.95.12,7.08v.16s-.15,0-.15,0c-5.32-.04-9.54-.07-12.46-.09-1.41-.02-2.51-.03-3.28-.04-.35,0-.63-.01-.83-.02-.19,0-.28,0-.27-.01Z"/>
          <path class="cls-1" d="m241.55,191.62c0,.14-3.87.26-8.65.26-4.78,0-8.65-.11-8.65-.26,0-.14,3.87-.26,8.65-.26,4.78,0,8.65.11,8.65.26Z"/>
          <path class="cls-1" d="m235.95,198.17c.02.14-1.35.42-3.06.36-1.71-.05-3.06-.41-3.04-.55.03-.15,1.38-.02,3.05.03,1.67.06,3.03.01,3.05.16Z"/>
          <path class="cls-1" d="m227.99,186.94s-.01-.1-.02-.29c0-.22,0-.49,0-.84.01-.77.03-1.85.05-3.22.07-2.83.16-6.86.28-11.83.07-2.5.14-5.23.22-8.17.02-.71-.03-1.46-.29-2.12-.22-.67-.86-1.15-1.52-1.01-.66.13-1.14.81-1.34,1.51-.21.71-.06,1.5.28,2.2.69,1.41,2.24,2.36,3.86,2.57,1.65.24,3.36-.5,4.5-1.8,1.16-1.28,1.83-3.05,1.89-4.84.03-.89-.07-1.82-.53-2.56-.42-.72-1.36-1.19-2.12-.91-.76.28-1.14,1.26-1.01,2.08.12.86.64,1.64,1.2,2.35,1.12,1.42,2.53,2.64,4.17,3.22.81.29,1.68.41,2.51.3.83-.13,1.62-.45,2.28-.95.66-.49,1.19-1.15,1.43-1.9.25-.75.22-1.57-.13-2.25-.34-.68-.99-1.19-1.71-1.16-.71.01-1.38.49-1.79,1.07-.83,1.23-.83,2.84-1.05,4.27-.32,2.91-.53,5.64-.71,8.13-.33,4.95-.61,8.98-.8,11.8-.09,1.36-.16,2.44-.22,3.21-.03.34-.05.62-.07.83-.02.19-.03.28-.04.28,0,0-.01-.1-.01-.29,0-.22,0-.49.02-.84.03-.77.07-1.85.12-3.22.12-2.79.31-6.83.63-11.82.17-2.49.35-5.22.65-8.15.09-.73.16-1.47.29-2.24.13-.76.33-1.55.81-2.25.48-.67,1.23-1.25,2.16-1.28.93-.04,1.76.63,2.14,1.41.42.79.46,1.77.17,2.62-.28.86-.87,1.6-1.6,2.14-.72.55-1.59.91-2.51,1.05-.93.13-1.87,0-2.75-.32-1.77-.63-3.24-1.91-4.41-3.38-.57-.73-1.15-1.57-1.31-2.59-.15-1,.27-2.21,1.35-2.64,1.09-.38,2.21.25,2.74,1.12.54.89.63,1.91.61,2.85-.07,1.91-.78,3.78-2.03,5.16-1.22,1.4-3.13,2.23-4.94,1.95-1.77-.24-3.46-1.26-4.23-2.85-.37-.77-.55-1.7-.3-2.54.24-.8.78-1.64,1.71-1.84.45-.09.92.03,1.28.29.37.26.6.64.74,1.01.29.76.33,1.55.31,2.29-.1,2.93-.19,5.67-.28,8.17-.19,4.96-.34,8.99-.44,11.82-.06,1.37-.11,2.44-.15,3.21-.02.34-.04.62-.05.84-.01.19-.03.28-.04.28Z"/>
          <path class="cls-1" d="m240.02,194.9c0,.14-3.14.26-7.02.26s-7.02-.12-7.02-.26,3.14-.26,7.02-.26,7.02.12,7.02.26Z"/>
        </g>
      </g>
      <g>
        <path class="cls-8" d="m366.6,147.63c3.07-1.91,6.34-3.36,9.73-4.37l1.9-9.7,16.35-.49,2.47,9.57c3.44.8,6.79,2.06,9.97,3.78l8.2-5.52,11.9,11.22-5.02,8.51c1.91,3.07,3.36,6.34,4.37,9.73l9.7,1.9.49,16.35-9.57,2.47c-.8,3.44-2.06,6.79-3.78,9.97l5.52,8.2-11.21,11.9-8.51-5.02c-3.07,1.91-6.34,3.36-9.73,4.37l-1.9,9.7-16.35.49-2.47-9.57c-3.44-.8-6.79-2.06-9.97-3.78l-8.2,5.52-11.9-11.22,5.02-8.51c-1.91-3.07-3.36-6.34-4.37-9.73l-9.7-1.9-.49-16.35,9.57-2.47c.8-3.44,2.06-6.79,3.78-9.97l-5.52-8.2,11.21-11.9,8.51,5.02h0Z"/>
        <g>
          <path class="cls-1" d="m409.75,199.47s-.27.04-.79.05c-.57.01-1.33.03-2.27.05-2.03.02-4.87.05-8.36.08-7.11.02-16.84.05-27.59.08-.67,0-1.34,0-1.97,0h-.26s0-.26,0-.26c.03-10.31.06-19.55.08-26.28.03-3.3.06-5.98.08-7.9.02-.89.04-1.6.05-2.14.02-.49.03-.74.05-.74s.03.26.05.74c.01.54.03,1.25.05,2.14.02,1.91.05,4.6.08,7.9.02,6.73.05,15.97.08,26.28l-.26-.26c.62,0,1.29,0,1.97,0,10.75.03,20.48.06,27.59.08,3.49.03,6.33.06,8.36.08.95.02,1.71.04,2.27.05.52.02.79.03.79.05Z"/>
          <path class="cls-1" d="m405.2,171.4s-.41.44-1.22,1.17c-.88.78-2.05,1.8-3.46,3.04-2.94,2.55-7.02,6.04-11.54,9.87l-.69.58-.18.15-.17-.16c-1.81-1.68-3.54-3.29-5.13-4.77h.32c-3.02,2.5-5.62,4.64-7.54,6.23-.89.71-1.62,1.29-2.19,1.75-.51.4-.8.61-.82.58-.02-.02.23-.27.72-.71.55-.48,1.25-1.1,2.1-1.86,1.89-1.62,4.44-3.81,7.42-6.36l.16-.14.16.15c1.6,1.48,3.34,3.07,5.16,4.74h-.34s.69-.59.69-.59c4.53-3.83,8.65-7.28,11.64-9.76,1.45-1.19,2.66-2.17,3.57-2.91.85-.68,1.33-1.04,1.35-1.01Z"/>
          <path class="cls-1" d="m405.2,179.99c-.07,0-.13-.97-.18-2.56-.05-1.59-.08-3.78-.08-6.23l.26.26c-.14,0-.29,0-.44,0-2.55,0-4.86-.03-6.53-.08-1.67-.05-2.7-.11-2.7-.18s1.03-.14,2.7-.18c1.67-.05,3.98-.08,6.53-.08.15,0,.3,0,.44,0h.26s0,.26,0,.26c0,2.45-.03,4.65-.08,6.23-.05,1.59-.11,2.56-.18,2.56Z"/>
        </g>
      </g>
      <g>
        <path class="cls-15" d="m140.68,200.9c-.14.05-.66-1.2-1.16-2.78-.51-1.58-.8-2.9-.66-2.94.14-.04.66,1.2,1.16,2.78.5,1.57.8,2.89.66,2.94Z"/>
        <path class="cls-15" d="m151.29,222.3c-.11.08-1.72-2.09-3.37-4.96-1.66-2.88-2.72-5.35-2.6-5.41.13-.07,1.4,2.29,3.05,5.15,1.64,2.86,3.04,5.14,2.92,5.22Z"/>
        <path class="cls-15" d="m166.9,240.37c-.09.1-2.19-1.58-4.52-3.95-2.33-2.37-3.97-4.5-3.87-4.59.11-.1,1.93,1.87,4.24,4.22,2.31,2.35,4.24,4.2,4.15,4.31Z"/>
        <path class="cls-15" d="m186.67,253.76c-.06.13-2.54-.93-5.4-2.61-2.87-1.67-5.02-3.3-4.94-3.41.08-.12,2.35,1.31,5.2,2.96,2.85,1.66,5.21,2.92,5.14,3.06Z"/>
        <path class="cls-15" d="m209.38,261.08c-.02.14-2.68-.26-5.93-.94-3.19-.9-5.75-1.74-5.7-1.88.05-.14,2.65.48,5.82,1.37,3.22.67,5.83,1.29,5.8,1.44Z"/>
        <path class="cls-15" d="m233.25,261.61c.02.14-2.64.56-5.96.71-3.32.15-6-.04-6-.18,0-.15,2.68-.19,5.97-.34,3.29-.14,5.96-.33,5.98-.19Z"/>
        <path class="cls-15" d="m256.58,256.45c.05.13-2.45,1.13-5.65,2.02-3.19.9-5.85,1.34-5.88,1.21-.03-.14,2.56-.81,5.74-1.71,3.18-.89,5.74-1.66,5.79-1.52Z"/>
        <path class="cls-15" d="m278.22,246.31c.07.12-2.14,1.65-5.06,3.22-2.92,1.57-5.42,2.58-5.47,2.46-.06-.13,2.32-1.35,5.23-2.91,2.91-1.56,5.23-2.88,5.31-2.76Z"/>
        <path class="cls-15" d="m296.78,231.29c.1.09-1.63,2.16-4.07,4.41-2.44,2.26-4.62,3.83-4.71,3.72-.09-.12,1.94-1.86,4.36-4.1,2.42-2.23,4.31-4.13,4.42-4.03Z"/>
        <path class="cls-15" d="m309.99,211.44c.12.05-.86,2.56-2.46,5.47-1.59,2.92-3.2,5.08-3.32,5-.12-.08,1.28-2.36,2.86-5.25,1.58-2.89,2.78-5.28,2.92-5.22Z"/>
        <path class="cls-15" d="m318.18,188.96c.14.04-.59,2.63-1.62,5.77-1.03,3.14-1.98,5.65-2.12,5.6-.14-.05.59-2.63,1.62-5.77,1.03-3.14,1.98-5.65,2.12-5.6Z"/>
        <path class="cls-15" d="m325.84,166.28c.16.06-.77,2.58-1.84,5.7-1.08,3.12-2.07,5.61-2.21,5.57-.14-.04.63-2.61,1.72-5.74.52-1.57,1.1-2.95,1.53-3.95.43-1,.73-1.6.8-1.57Z"/>
        <path class="cls-15" d="m336.45,144.85c.12.08-1.24,2.38-2.83,5.27-1.6,2.88-2.85,5.25-2.99,5.19-.13-.06.92-2.54,2.53-5.44,1.6-2.9,3.17-5.1,3.29-5.02Z"/>
        <path class="cls-15" d="m352.42,127.18c.09.12-2.01,1.78-4.42,4.02-2.42,2.23-4.25,4.19-4.36,4.09-.1-.09,1.57-2.21,4.01-4.47,2.44-2.26,4.7-3.75,4.78-3.64Z"/>
        <path class="cls-15" d="m373.98,117.08c.04.15-2.52.93-5.62,2.04-3.1,1.11-5.57,2.15-5.63,2.01-.06-.12,2.33-1.38,5.46-2.5,3.12-1.12,5.76-1.68,5.8-1.55Z"/>
        <path class="cls-15" d="m397.68,114.44c0,.15-2.68.08-5.98.2-3.29.11-5.96.33-5.98.18-.02-.14,2.64-.59,5.96-.7,3.32-.12,6,.18,5.99.32Z"/>
        <path class="cls-15" d="m420.75,120.34c-.06.14-2.55-.85-5.65-1.95-3.1-1.11-5.66-1.9-5.62-2.05.03-.13,2.67.44,5.8,1.56,3.13,1.11,5.54,2.32,5.48,2.44Z"/>
        <path class="cls-15" d="m441.12,132.79c-.1.11-2.2-1.54-4.89-3.45-2.68-1.91-4.93-3.38-4.85-3.5.07-.12,2.45,1.15,5.15,3.08,2.71,1.92,4.68,3.77,4.59,3.87Z"/>
        <path class="cls-15" d="m453.13,146.06c-.12.08-.94-.98-1.92-2.3-.98-1.33-1.75-2.42-1.64-2.52.11-.09,1.07.87,2.06,2.21.99,1.34,1.62,2.54,1.5,2.61Z"/>
      </g>
      <path class="cls-15" d="m13.16,60.32s.05-.31.19-.91c.14-.61.34-1.49.6-2.65.56-2.32,1.59-5.7,3.33-9.89,1.84-4.14,4.44-9.09,8.28-14.27,3.83-5.18,8.87-10.6,15.26-15.62,6.44-4.92,14.19-9.53,23.25-12.58,4.53-1.51,9.33-2.72,14.37-3.47,5.03-.72,10.28-1.05,15.64-.91,5.37.13,10.86.8,16.34,2.07,5.48,1.26,10.95,3.12,16.19,5.72,5.24,2.59,10.21,5.95,14.81,9.86,4.59,3.92,8.78,8.46,12.29,13.57,3.52,5.11,6.27,10.65,8.24,16.36,1.97,5.71,3.16,11.58,3.75,17.39.11,1.46.27,2.91.33,4.35.03,1.45.07,2.89.1,4.32.02,1.43-.08,2.86-.11,4.28-.13,1.42-.22,2.83-.41,4.22-.73,5.58-2.24,10.93-4.3,15.9-2.07,4.96-4.57,9.57-7.1,13.97-2.57,4.38-5.06,8.63-7.46,12.74-4.8,8.23-7.31,16.86-8.73,24.8-.71,3.98-1.16,7.81-1.42,11.44-.28,3.63-.39,7.07-.41,10.28,0,6.43.08,11.98.78,16.45.66,4.48,1.57,7.88,2.28,10.15.37,1.13.68,1.99.91,2.55.11.29.21.49.27.64.06.14.08.22.08.22,0,0-.6-1.11-1.36-3.37-.75-2.26-1.69-5.67-2.39-10.16-.73-4.49-.84-10.05-.87-16.48,0-3.22.11-6.66.37-10.31.25-3.64.68-7.49,1.38-11.48,1.4-7.97,3.9-16.66,8.71-24.95,2.4-4.11,4.88-8.37,7.44-12.75,2.52-4.4,5.01-8.99,7.06-13.92,2.03-4.93,3.52-10.24,4.25-15.78.18-1.38.27-2.79.4-4.19.03-1.41.12-2.83.11-4.25-.03-1.43-.07-2.86-.1-4.3-.07-1.44-.23-2.88-.33-4.32-.59-5.78-1.77-11.61-3.73-17.27-1.95-5.67-4.68-11.16-8.18-16.23-3.49-5.07-7.64-9.58-12.2-13.47-4.57-3.88-9.5-7.22-14.7-9.79-5.2-2.58-10.63-4.43-16.08-5.69-5.44-1.27-10.9-1.94-16.24-2.07-5.34-.15-10.55.17-15.56.88-5.01.74-9.79,1.94-14.29,3.43-9.02,3.02-16.74,7.58-23.17,12.46-6.37,4.97-11.42,10.36-15.25,15.5-3.85,5.15-6.46,10.06-8.32,14.18-1.76,4.17-2.82,7.53-3.41,9.83-.28,1.15-.5,2.03-.65,2.63-.15.59-.24.89-.24.89Z"/>
      <g>
        <g>
          <g>
            <path class="cls-7" d="m256.55,428.05l15.01,5.26-.16,14.43c-7.18,2.03-8.19,5.66-8.19,5.66l15.02-.34,13.07-26.57-10.34-6.76-19.32-8.45"/>
            <g class="cls-3">
              <polygon class="cls-1" points="291.29 426.49 278.22 453.06 263.21 453.4 264.85 451.11 277.04 450.16 289.09 425.05 291.29 426.49"/>
            </g>
          </g>
          <path class="cls-15" d="m271.35,441.14c.11.15.97-.36,2.13-.35,1.16-.03,2.03.47,2.14.32.14-.12-.73-1-2.14-.98-1.41,0-2.27.9-2.13,1.01Z"/>
          <path class="cls-15" d="m271.51,437.55c.15.1.8-.8,1.99-1.06,1.19-.27,2.16.27,2.26.11.05-.07-.13-.32-.56-.54-.42-.22-1.11-.38-1.84-.22-.74.17-1.29.6-1.58.98-.29.38-.35.68-.27.72Z"/>
          <path class="cls-15" d="m271.31,432.96c.17.08.66-.8,1.7-1.19,1.03-.4,1.98-.07,2.06-.23.04-.08-.16-.28-.58-.43-.41-.15-1.06-.2-1.71.05-.65.25-1.1.72-1.31,1.1-.22.39-.23.67-.15.7Z"/>
          <path class="cls-15" d="m270.2,432.95c.18-.05.07-.99.52-2.01.42-1.03,1.18-1.6,1.09-1.76-.05-.17-1.17.25-1.7,1.51-.54,1.25-.08,2.35.09,2.27Z"/>
          <path class="cls-15" d="m268.43,431.26c.09,0,.22-.77.35-2.02.07-.72.13-1.45.2-2.2.01-.41.12-.83,0-1.4-.07-.28-.24-.57-.53-.75-.29-.2-.76-.16-1.02.04-.52.41-.67.88-.85,1.33-.16.46-.24.92-.27,1.36-.05.88.14,1.67.4,2.27.54,1.22,1.29,1.66,1.32,1.61.09-.08-.51-.62-.88-1.77-.18-.57-.3-1.28-.23-2.06.04-.39.13-.79.27-1.18.15-.38.36-.83.62-1.01.13-.08.21-.08.31-.02.11.06.21.2.25.35.09.32.02.78.02,1.2-.02.75-.04,1.48-.06,2.21-.01,1.26.02,2.04.11,2.04Z"/>
          <path class="cls-15" d="m268.18,431.92c.06-.04-.38-.7-1.54-1.07-1.11-.35-3.07-.27-4.26,1.52-.06.17-.05.41.06.58.11.18.26.27.39.32.27.11.5.12.7.14.42.04.84.03,1.22,0,.78-.07,1.45-.27,1.99-.51,1.08-.47,1.57-1.02,1.52-1.08-.06-.09-.64.31-1.69.64-.52.16-1.16.3-1.87.34-.36.02-.73,0-1.11-.03-.2-.03-.39-.04-.51-.1-.13-.08-.09-.05-.09-.1.01-.07.16-.23.3-.36.14-.13.29-.25.44-.35.31-.21.64-.36.96-.47.66-.21,1.3-.2,1.82-.1,1.05.22,1.59.71,1.65.62Z"/>
          <g class="cls-3">
            <path class="cls-1" d="m279.3,426.3c.02.98.84,1.76,1.82,1.74.98-.02,1.76-.84,1.74-1.82-.02-.98-.84-1.76-1.82-1.74-.98.02-1.76.84-1.74,1.82Z"/>
          </g>
        </g>
        <g>
          <g>
            <path class="cls-7" d="m179.55,422.01l.2,19.66s-19.92,6.81-20.23,10.45l38.14.97.94-30.65-19.05-.44Z"/>
            <g class="cls-3">
              <path class="cls-1" d="m191.59,440.32c.73.22,1.22,1.06,1.03,1.8-.19.74-1.04,1.25-1.78,1.04-.74-.21-1.35-1.2-1.08-1.92.27-.72,1.31-1.25,1.97-.87"/>
            </g>
            <g class="cls-3">
              <path class="cls-1" d="m197.66,453.1l-.03-3.09-36.56.22s-1.72.7-1.56,1.9l38.14.97Z"/>
            </g>
            <path class="cls-15" d="m179.14,441.47c0,.19.93.29,1.83.92.92.6,1.37,1.42,1.54,1.35.17-.03-.08-1.15-1.18-1.89-1.1-.74-2.23-.55-2.19-.38Z"/>
            <path class="cls-15" d="m175.1,443.02c-.05.18.75.52,1.36,1.32.64.79.77,1.64.96,1.64.17.03.33-1.05-.45-2.04-.77-.99-1.86-1.1-1.87-.92Z"/>
            <path class="cls-15" d="m172.7,447.75c.17.04.45-.88,0-1.91-.44-1.04-1.31-1.46-1.4-1.31-.11.15.44.71.8,1.57.38.84.41,1.63.6,1.65Z"/>
            <path class="cls-15" d="m179.59,436.98c.07.17.93-.06,1.99.03,1.05.08,1.86.45,1.96.29.11-.13-.67-.84-1.91-.94-1.24-.11-2.13.46-2.04.61Z"/>
          </g>
          <g class="cls-10">
            <polygon points="179.59 425.91 179.63 429.41 198.37 429.72 198.48 426.57 179.59 425.91"/>
          </g>
          <path class="cls-15" d="m179.62,433.01c0,.08.73.21,1.91.04.59-.09,1.28-.26,2.01-.56.37-.15.74-.34,1.11-.55.18-.11.39-.22.59-.43.21-.19.34-.68.11-.99-.19-.3-.53-.43-.8-.45-.28-.02-.51.03-.72.08-.43.09-.83.22-1.2.38-.74.31-1.34.72-1.79,1.11-.91.8-1.23,1.48-1.16,1.52.08.06.53-.51,1.45-1.16.46-.32,1.04-.66,1.73-.92.34-.13.71-.23,1.11-.31.41-.1.75-.09.85.09.04.07.04.1-.05.21-.09.11-.26.21-.43.32-.34.21-.69.39-1.02.55-.67.31-1.32.52-1.86.66-1.1.28-1.82.31-1.82.41Z"/>
          <path class="cls-15" d="m179.86,433.29c.07.03.45-.63.55-1.83.05-.6,0-1.32-.21-2.1-.11-.39-.26-.78-.46-1.17-.21-.38-.47-.89-1.19-1-.38-.02-.7.26-.81.51-.13.25-.16.48-.21.7-.08.44-.08.88-.03,1.29.1.81.41,1.5.77,1.99.72,1.01,1.49,1.25,1.51,1.19.06-.09-.58-.47-1.12-1.43-.27-.48-.5-1.1-.56-1.81-.03-.35-.01-.73.06-1.1.07-.4.23-.73.38-.68.19,0,.5.32.65.64.19.35.33.7.45,1.05.22.7.31,1.36.32,1.92.02,1.12-.19,1.81-.09,1.84Z"/>
        </g>
        <g>
          <g>
            <polygon class="cls-15" points="268.2 411.99 224.29 395.66 270.45 389.18 272.78 366.69 186.45 374.23 174.26 391.78 177.47 413.8 261.58 435.18 268.2 411.99"/>
            <path class="cls-15" d="m175.09,427.73l-4.2-80.37c.23-7.83,4.49-14.98,11.27-18.9h0c5.6-3.24,12.33-3.93,18.48-1.88l56.01,18.67,30.74,7.9s5.24,12.92,2.16,22.95c-3.01,9.82-13.78,16.36-23.25,13.55-11.77-3.49-65.78-26.72-65.78-26.72v65.45l-25.42-.65Z"/>
            <path class="cls-5" d="m265.48,389.87s-.12-.03-.33-.11c-.24-.09-.56-.22-.96-.37-.87-.35-2.1-.84-3.67-1.47-3.21-1.31-7.81-3.18-13.47-5.49-11.38-4.7-27.06-11.17-44.37-18.31-.77-.32-1.54-.64-2.26-.94l.36-.24c-.03,18.18-.06,34.53-.08,46.37-.03,5.88-.06,10.64-.08,13.97-.02,1.62-.04,2.89-.05,3.79-.01.41-.02.74-.03.98,0,.22-.02.34-.03.34s-.02-.11-.03-.34c0-.25-.01-.57-.03-.98-.01-.9-.03-2.17-.05-3.79-.02-3.32-.05-8.08-.08-13.97-.02-11.84-.05-28.19-.08-46.37v-.39s.36.15.36.15c.71.3,1.48.62,2.26.94,17.29,7.2,32.95,13.72,44.31,18.45,5.64,2.38,10.21,4.3,13.41,5.65,1.56.67,2.77,1.19,3.64,1.56.39.17.7.31.94.42.21.1.32.15.31.16Z"/>
            <path class="cls-5" d="m213.75,389.96c.02-.13,2.77.37,5.75,2.03,2.99,1.64,4.87,3.72,4.77,3.8-.11.12-2.11-1.74-5.03-3.35-2.91-1.62-5.55-2.33-5.5-2.49Z"/>
          </g>
          <path class="cls-5" d="m195.63,352.07c.12-.07,1.56,2.31,2.96,5.44,1.4,3.12,2.22,5.78,2.09,5.83-.14.05-1.17-2.51-2.56-5.61-1.39-3.1-2.62-5.58-2.49-5.65Z"/>
        </g>
        <polygon class="cls-11" points="195.76 316.65 185.85 314.8 175.45 325.41 177.37 332.18 189.5 327.71 195.76 316.65"/>
        <g>
          <path class="cls-9" d="m159.14,198.82l-2.68.23s-4.83.79-4.83.9-2.12,3.07-2.13,3.08l-1.94,3s1.57.58,2.71-.5l-.68,1.51s2.2.96,3.73-1.45c.86-1.36,1.61-2.37,2.1-2.99l.88-.08c.07.18,3.46,4.96,3.53,4.85.07-.11,2.89-2.83,2.89-2.83l-3.59-5.72Z"/>
          <path class="cls-11" d="m166.32,219.64l.79-14.84-7.52-8.52-8.27.5-3.38,2.36c.17.82,2.52,1.38,5.05.65,2.45-.71,5.21-.18,5.21-.18l3.18,5.55-2.1,2.32,2.7,14.23,4.35-2.08Z"/>
          <path class="cls-15" d="m144.38,200.09h26.88c.68,0,1.23.55,1.23,1.23h0c0,.68-.55,1.23-1.23,1.23h-26.88l-2.64-1.23,2.64-1.23Z"/>
          <path class="cls-11" d="m157.98,223.63l-2.74-6.73c-.35-.86-.51-1.77-.46-2.7.12-2.42.3-7.28-.07-8.39-.5-1.5-2.51-6.64-1.38-7.39s2.69-1,3.79,2c1.1,3.01,4.48,9.52,4.48,9.52l2.56,10.73-6.18,2.96Z"/>
          <path class="cls-9" d="m161.26,209.28c-.06.03-.65-1.07-1.56-2.87-.9-1.78-2.12-4.37-3.42-7.05-.37-.6-.98-1.05-1.59-1.04-.62.01-1.19.45-1.34,1-.17.56-.05,1.19.05,1.76.11.58.23,1.11.36,1.59.52,1.93,1.07,3.06,1,3.09-.03.01-.2-.25-.46-.76-.25-.51-.58-1.26-.89-2.23-.15-.49-.3-1.02-.43-1.61-.12-.58-.29-1.24-.09-1.98.2-.75.94-1.34,1.78-1.37.88-.02,1.61.58,2.04,1.26,1.39,2.84,2.49,5.32,3.32,7.18.81,1.84,1.29,3,1.22,3.03Z"/>
        </g>
        <g>
          <polygon class="cls-11" points="286.53 352.97 283.79 348.16 254.48 340.82 257.93 346.78 286.53 352.97"/>
          <path class="cls-7" d="m155.43,223.63l18.45,43.72c1.74,4.13,5.05,7.4,9.19,9.1l39.81,16.35,9.27-25.64-38.77-13.73-25.18-35.9-12.77,6.11Z"/>
          <path class="cls-7" d="m215.37,267.59c.04,1.03-4.3,32.84-4.3,39.33s12.44,13.55,12.44,13.55l13.63,28.93h48.53l-16.59-31.15-7.5-24.96c-2.84-9.46-8.02-18.05-15.06-24.98l-8.1-5.42-23.04,4.69Z"/>
          <path class="cls-7" d="m229.47,292.71l8.15,34.2-41.11-11.58-7.01,12.38,53.49,24.36c6.59,3,14.38.88,18.54-5.05h0c2.52-3.59,3.35-8.11,2.26-12.37l-11.98-46.8c-1.65-6.44-8.42-10.13-14.73-8.01h0c-5.37,1.81-8.61,7.27-7.62,12.85Z"/>
          <path class="cls-15" d="m223.52,320.47s-.17-.05-.47-.2c-.3-.15-.74-.38-1.3-.69-1.11-.63-2.7-1.59-4.51-2.99-1.77-1.42-3.91-3.25-5.31-6.03-1.32-2.85-1.22-6.35-.74-9.78.5-3.46,1.21-6.68,1.63-9.66.46-2.97.77-5.66.94-7.93.17-2.27.2-4.1.2-5.38,0-1.27-.04-1.97,0-1.98.02,0,.05.17.08.51.04.33.08.83.12,1.47.07,1.27.1,3.12-.03,5.4-.12,2.28-.4,4.99-.83,7.97-.39,2.99-1.09,6.24-1.59,9.66-.48,3.4-.56,6.8.66,9.5,1.3,2.66,3.38,4.51,5.1,5.94,1.76,1.42,3.31,2.42,4.38,3.1,1.08.68,1.68,1.03,1.67,1.07Z"/>
          <path class="cls-15" d="m246.18,283.63c-.07.15-2.38-1.14-5.54-1.33-3.16-.24-5.62.73-5.67.57-.08-.1,2.4-1.33,5.7-1.09,3.3.2,5.59,1.76,5.5,1.85Z"/>
          <path class="cls-15" d="m240.63,265.18s-.24.32-.74.83c-.5.51-1.24,1.23-2.18,2.1-1.87,1.74-4.52,4.08-7.56,6.52-3.04,2.44-5.9,4.52-8.01,5.96-1.05.72-1.92,1.29-2.52,1.67-.61.38-.95.57-.97.54-.02-.03.29-.28.86-.71.66-.49,1.47-1.09,2.43-1.8,2.05-1.52,4.86-3.64,7.9-6.07,3.03-2.43,5.71-4.72,7.64-6.39.9-.78,1.66-1.44,2.29-1.98.54-.46.86-.71.88-.68Z"/>
          <path class="cls-15" d="m193.37,253.52c.05.14-1.44.78-3.09,1.86-1.66,1.08-2.84,2.19-2.95,2.08-.1-.09.94-1.4,2.66-2.52,1.71-1.13,3.34-1.56,3.37-1.43Z"/>
          <g>
            <path class="cls-2" d="m233.4,308.2s-.31.14-.89.29c-.58.16-1.45.32-2.52.44-1.08.13-2.37.17-3.8.1-1.43-.09-3-.3-4.61-.7-1.61-.41-3.09-.96-4.39-1.56-1.29-.62-2.42-1.26-3.3-1.88-.89-.62-1.58-1.16-2.01-1.58-.44-.41-.68-.65-.65-.68.06-.07,1.06.81,2.87,1.95,1.8,1.14,4.47,2.45,7.62,3.25,3.16.78,6.13.89,8.25.73,2.13-.15,3.43-.46,3.45-.36Z"/>
            <path class="cls-2" d="m236.19,323.24c0,.06-.69.25-1.84.34-1.15.09-2.77.05-4.51-.3-1.74-.36-3.25-.95-4.27-1.49-1.03-.54-1.6-.98-1.57-1.03.08-.15,2.53,1.33,5.94,2.01,3.4.71,6.24.31,6.25.48Z"/>
            <path class="cls-2" d="m257.44,313.9s-.26.19-.76.46c-.5.27-1.26.61-2.21.99-1.9.76-4.62,1.59-7.72,2.02-3.1.43-5.95.37-7.98.15-1.02-.11-1.84-.23-2.39-.36-.56-.12-.86-.2-.86-.23.01-.09,1.26.1,3.28.22,2.02.12,4.82.12,7.88-.3,3.06-.43,5.76-1.18,7.67-1.85,1.91-.66,3.06-1.18,3.1-1.11Z"/>
            <path class="cls-2" d="m253.66,297.15c-.02.08-1.27-.15-3.31-.4-2.04-.24-4.88-.45-8.01-.34-3.13.12-5.95.52-7.96.92-2.02.39-3.25.71-3.28.63-.01-.03.29-.15.84-.34.55-.19,1.35-.42,2.36-.66,2.01-.49,4.85-.96,8.02-1.08,3.17-.11,6.03.15,8.08.5,1.02.17,1.84.34,2.4.49.56.14.87.24.86.27Z"/>
            <path class="cls-2" d="m262.12,343.95s-.42-.05-1.17-.23c-.75-.17-1.81-.5-3.1-.96-2.58-.92-6.05-2.54-9.48-4.95-3.43-2.42-6.13-5.13-7.88-7.24-.87-1.06-1.54-1.95-1.95-2.59-.42-.64-.64-1-.61-1.02.08-.05,1.04,1.33,2.85,3.37,1.8,2.04,4.5,4.67,7.9,7.06,3.4,2.38,6.79,4.03,9.32,5.03,2.53,1,4.16,1.44,4.14,1.53Z"/>
            <path class="cls-2" d="m225.26,343.43c-.06,0-.18-1.08-.12-2.85.05-1.76.33-4.19,1.01-6.8.69-2.61,1.64-4.86,2.46-6.42.82-1.56,1.45-2.45,1.5-2.42.07.04-.45.99-1.17,2.58-.72,1.58-1.61,3.83-2.28,6.4-.67,2.57-1,4.96-1.15,6.69-.15,1.74-.16,2.82-.25,2.82Z"/>
            <path class="cls-2" d="m200.51,332.18c-.06,0-.12-.92.02-2.39.16-1.46.59-3.54,1.77-5.51,1.19-1.97,2.74-3.36,3.86-4.31,1.14-.94,1.9-1.44,1.94-1.39.05.06-.63.67-1.7,1.67-1.05,1.01-2.52,2.42-3.66,4.31-1.14,1.89-1.61,3.87-1.86,5.3-.23,1.44-.3,2.35-.39,2.34Z"/>
            <path class="cls-2" d="m282.45,343.17c.02.06-1.06.58-2.89,1.27-1.82.69-4.39,1.54-7.3,2.19-2.91.65-5.63.9-7.59.83-.49,0-.93-.04-1.32-.09-.39-.03-.72-.08-.99-.14-.54-.11-.83-.18-.82-.22.02-.09,1.2.11,3.14.07,1.93-.02,4.59-.33,7.48-.97,2.88-.64,5.45-1.43,7.29-2.03,1.85-.6,2.98-1,3.01-.93Z"/>
            <path class="cls-2" d="m271.47,323.41c.06.02-.26.63-1.1,1.25-.82.62-2.08,1.3-3.53,1.86-1.45.56-2.81.94-3.81,1.12-.5.09-.92.14-1.21.12-.29,0-.47-.1-.44-.12.03-.04.6-.07,1.57-.36.96-.27,2.28-.7,3.71-1.25,1.43-.55,2.67-1.15,3.51-1.67.85-.51,1.24-.99,1.31-.94Z"/>
            <path class="cls-2" d="m264.6,303.33s.02.17-.15.36c-.16.2-.44.42-.8.65-.73.47-1.8.97-3.02,1.41-1.22.44-2.36.75-3.22.87-.85.14-1.41.03-1.39-.04.01-.07.51-.09,1.32-.32.81-.21,1.91-.56,3.11-1,1.2-.43,2.27-.87,3.02-1.24.37-.18.66-.34.84-.48.19-.12.25-.23.29-.21Z"/>
            <path class="cls-2" d="m228.94,292.72c0,.06-.9.15-2.35.09-1.45-.05-3.46-.27-5.63-.78-2.16-.52-4.06-1.22-5.38-1.83-1.32-.6-2.09-1.08-2.06-1.14.07-.15,3.28,1.46,7.56,2.46,4.27,1.03,7.86,1.03,7.86,1.2Z"/>
            <path class="cls-2" d="m257.74,283.67c.1.14-1.34,1.11-3.29,1.89-1.93.81-3.64,1.12-3.67.95-.02-.11,1.56-.63,3.47-1.43,1.93-.76,3.41-1.5,3.48-1.4Z"/>
            <path class="cls-2" d="m235.32,270.68s.62.32,1.39,1.1c.77.78,1.71,2.01,2.41,3.55.7,1.54,1.01,3.05,1.09,4.15.08,1.1-.02,1.78-.08,1.77-.17.01-.11-2.73-1.49-5.71-1.34-3-3.45-4.75-3.33-4.87Z"/>
            <path class="cls-2" d="m203.81,284.89s-.21-.32-.46-.94c-.25-.63-.55-1.56-.8-2.75-.51-2.37-.61-5.77.07-9.39.68-3.63,1.85-6.76,2.72-8.99.44-1.12.82-2.01,1.09-2.62.27-.61.44-.95.47-.93.03.01-.07.37-.28,1.01-.26.74-.57,1.63-.94,2.68-.78,2.26-1.88,5.39-2.56,8.96-.67,3.57-.62,6.89-.22,9.23.39,2.35.98,3.72.89,3.75Z"/>
            <path class="cls-2" d="m180.29,275.28s.03-.37.18-1.01c.14-.64.4-1.56.79-2.67.76-2.23,2.14-5.21,4.19-8.18,2.07-2.96,4.4-5.28,6.22-6.77.91-.75,1.68-1.31,2.23-1.67.55-.36.86-.54.89-.51.05.07-1.14.91-2.88,2.46-1.74,1.55-3.99,3.87-6.03,6.79-2.03,2.92-3.43,5.84-4.28,8.01-.85,2.17-1.22,3.58-1.31,3.55Z"/>
            <path class="cls-2" d="m184.07,240.15c0,.09-1.14.15-2.9.65-1.76.48-4.11,1.46-6.5,2.9-2.39,1.45-4.35,3.06-5.64,4.36-1.3,1.29-1.96,2.22-2.03,2.17-.03-.02.11-.27.39-.71.13-.22.33-.47.56-.76.22-.3.49-.62.81-.96,1.24-1.38,3.21-3.07,5.64-4.55,2.43-1.46,4.85-2.42,6.68-2.81.45-.11.87-.19,1.24-.23.37-.05.68-.09.94-.09.52-.01.81,0,.81.03Z"/>
            <path class="cls-2" d="m174.74,226.52c0,.18-3.94-.55-8.6.66-4.67,1.15-7.79,3.66-7.88,3.51-.04-.04.68-.73,2.03-1.58,1.34-.86,3.35-1.83,5.72-2.43,2.37-.6,4.6-.69,6.19-.58,1.59.11,2.55.37,2.54.43Z"/>
          </g>
          <path class="cls-15" d="m229.47,292.71s.08.22.2.65c.12.47.29,1.11.5,1.91.43,1.71,1.03,4.13,1.78,7.13,1.48,6.13,3.55,14.66,5.92,24.45l.1.42-.42-.12c-3.33-.93-6.85-1.93-10.48-2.95-11.88-3.38-22.67-6.44-30.61-8.7l.21-.09c-2.18,3.78-3.95,6.85-5.2,9.02-.61,1.03-1.09,1.84-1.44,2.44-.16.25-.28.46-.39.63-.09.14-.14.21-.15.2,0,0,.03-.08.1-.23.09-.18.2-.39.34-.65.33-.61.78-1.44,1.35-2.49,1.22-2.19,2.94-5.29,5.06-9.1l.07-.13.14.04c7.95,2.22,18.75,5.24,30.65,8.56,3.63,1.02,7.15,2.02,10.48,2.96l-.31.3c-2.3-9.81-4.3-18.35-5.74-24.49-.69-3.02-1.24-5.45-1.63-7.17-.17-.81-.31-1.45-.42-1.93-.09-.44-.13-.67-.11-.67Z"/>
          <path class="cls-15" d="m252,290.58s.09.2.2.59c.12.44.28,1.01.48,1.71.41,1.55.97,3.69,1.66,6.3,1.36,5.39,3.22,12.73,5.27,20.84,1.01,4.08,1.99,7.95,2.82,11.5.82,3.55,1.19,6.89.78,9.65-.37,2.77-1.39,4.85-2.3,6.1-.91,1.27-1.64,1.75-1.64,1.75-.04-.04.64-.58,1.47-1.86.84-1.26,1.78-3.32,2.1-6.04.35-2.71-.04-5.98-.89-9.5-.88-3.54-1.85-7.41-2.86-11.48-1.99-8.12-3.8-15.48-5.12-20.88-.62-2.63-1.13-4.78-1.49-6.34-.16-.71-.28-1.28-.38-1.73-.08-.4-.12-.61-.1-.61Z"/>
          <g class="cls-10">
            <path d="m259.46,349.41c6.02.55,9.51-2.88,10.16-7.58.35-2.59-.5-5.17-1.34-7.64-3.69-10.82-7.42-21.73-13.28-31.55,2.21,9.82,5.03,19.26,7.24,29.08.72,3.21.99,5.08.93,8.37-.05,3.29-1.53,6.86-3.72,9.32"/>
          </g>
        </g>
        <g>
          <path class="cls-15" d="m237.31,260.81c3.25.99,6.92.54,9.84-1.21,2.92-1.75,5.05-4.76,5.72-8.09,1.61,1.54,4.02,2.05,6.21,1.65s4.16-1.61,5.79-3.12c3-2.78,5.01-6.77,4.86-10.86-.15-4.09-2.72-8.14-6.57-9.52s-8.73.42-10.31,4.19c-.72-2.14,1.12-5.04.68-7.25-.88-4.45-3.54-7.05-5.8-7.14"/>
          <g>
            <g>
              <path class="cls-15" d="m242.15,259.66c4.4-7.68,5.67-17.91,6.78-26.76.52-4.16,1.45-10.09-1.39-12.7-3.04-2.79-3.33-7.09-6.83-9.25-3.49-2.15-8.23-2.33-11.53.13"/>
              <g>
                <g>
                  <path class="cls-11" d="m219.26,274.94v-12.05s-12.55-2.22-13.29-12.27c-.74-10.06-.48-33.28-.48-33.28h0c10.98-5.75,24.12-4.92,34.34,2.17l-.51,35.4.02,11.53-10.27,8.34-9.8,7.72v-7.57Z"/>
                  <path class="cls-15" d="m215.65,238.31c1.68-2.16,4.41-3.02,6.66-1.52,2.25,1.5,3.12,4.84,1.91,7.3-.86,1.74-2.82,3.32-4.77,3.75,0,0,4.52,8.24,7.39,10.43,3.42,2.6,5.03,3.88,9.26,4.39,4.15.49,3.65.54,6.06-2.99,1.75-2.57,2.29-5.03,2.35-8.17.13-7.42.26-14.83.38-22.25.05-2.67.09-5.38-.51-7.98s-1.93-5.13-4.1-6.59c-2.38-1.6-5.38-1.73-8.08-2.62-3.38-1.12-6.25-3.42-9.42-5.08-3.16-1.66-7.04-2.64-10.21-.99-2.27,1.19-3.79,3.53-6,4.84-3.15,1.86-7.44,1.45-8.95,6.24-.52,1.65-.48,3.47.07,5.11,2.16,6.5,9.97,9.1,15.59,6.27.11,1.1-.93,3.56.2,7.04.36,1.11.5,2.81,2.18,2.83"/>
                </g>
                <path class="cls-9" d="m217.41,244.59s-.04.19.14.43c.17.24.54.53,1.09.56,1.09.1,2.48-1.11,2.52-2.78.05-.81-.25-1.61-.72-2.13-.47-.52-1.04-.8-1.53-.9-1-.21-1.58.17-1.54.24.02.11.6-.05,1.41.25.79.26,1.78,1.18,1.69,2.51-.03,1.31-1.05,2.27-1.83,2.31-.82.05-1.15-.55-1.22-.48Z"/>
              </g>
            </g>
            <path class="cls-5" d="m268.4,239.31s-.05.35-.29.94c-.23.59-.66,1.42-1.33,2.34-1.32,1.83-3.94,4.02-7.47,4.58-3.54.53-6.7-.81-8.48-2.19-.91-.69-1.55-1.37-1.94-1.87-.39-.5-.56-.81-.54-.83.08-.07.86,1.13,2.69,2.4,1.78,1.26,4.83,2.48,8.18,1.98,3.35-.53,5.9-2.57,7.26-4.29,1.4-1.74,1.81-3.11,1.91-3.06Z"/>
            <path class="cls-5" d="m267.01,237.68s-.08.3-.35.77c-.27.48-.71,1.14-1.36,1.87-1.27,1.47-3.54,3.2-6.5,3.88-2.96.68-5.76.08-7.53-.71-.9-.39-1.58-.81-2.02-1.13-.44-.32-.66-.53-.64-.56.05-.08,1.01.67,2.79,1.35,1.76.68,4.45,1.19,7.28.54,2.83-.65,5.04-2.26,6.35-3.62,1.33-1.37,1.89-2.44,1.97-2.39Z"/>
            <path class="cls-5" d="m250.18,250.6s-.13.09-.42.23c-.29.12-.73.28-1.32.35-1.18.17-3-.12-4.79-1.32-1.82-1.17-3.33-3.35-4.51-5.86-1.22-2.5-2.19-5.44-4.09-7.97-.94-1.25-2.1-2.3-3.43-2.93-1.32-.64-2.74-.94-4.11-1.08-2.73-.28-5.26-.1-7.36-.39-2.11-.24-3.76-.86-4.77-1.48-.5-.32-.86-.61-1.09-.82-.22-.22-.33-.34-.32-.35.03-.04.5.43,1.51,1,1.02.56,2.63,1.11,4.71,1.29,2.07.24,4.57.02,7.37.28,1.39.13,2.88.43,4.28,1.1,1.41.67,2.64,1.77,3.62,3.08,1.97,2.63,2.92,5.6,4.11,8.08,1.15,2.5,2.56,4.6,4.28,5.76,1.69,1.19,3.42,1.52,4.56,1.42,1.16-.08,1.74-.44,1.76-.38Z"/>
            <path class="cls-5" d="m249.2,246.98s-.15.03-.45.04c-.3,0-.74-.03-1.28-.16-1.1-.27-2.59-1.11-3.91-2.65-.67-.76-1.31-1.66-1.88-2.69-.58-1.03-1.1-2.17-1.68-3.34-.58-1.17-1.21-2.39-2.05-3.52-.42-.56-.89-1.1-1.43-1.57-.26-.25-.57-.44-.87-.65-.3-.21-.59-.43-.93-.57-1.29-.72-2.75-1.02-4.13-1.21-1.4-.2-2.77-.19-4.08-.21-2.62.02-5,.08-7-.18-1.99-.24-3.55-.8-4.53-1.36-.5-.26-.82-.56-1.07-.72-.24-.18-.35-.28-.34-.29.03-.04.54.32,1.5.83.99.49,2.52.98,4.48,1.17,1.96.21,4.32.11,6.95.07,1.32,0,2.71-.01,4.15.18,1.43.2,2.94.5,4.31,1.26.36.15.67.39.99.61.31.22.64.42.91.69.57.51,1.06,1.07,1.49,1.66.86,1.18,1.5,2.43,2.07,3.61.57,1.19,1.08,2.33,1.63,3.34.54,1.02,1.15,1.91,1.78,2.66,1.25,1.52,2.65,2.37,3.69,2.69,1.05.32,1.68.25,1.68.31Z"/>
            <path class="cls-7" d="m251.63,252.11s-.23-.13-.55-.47c-.33-.33-.76-.85-1.22-1.55-.91-1.38-1.84-3.59-1.94-6.17-.1-2.57.65-4.85,1.45-6.3.4-.73.79-1.29,1.09-1.64.3-.36.49-.53.51-.51.07.06-.58.85-1.27,2.32-.69,1.45-1.36,3.65-1.26,6.12.1,2.46.93,4.6,1.74,6,.81,1.41,1.52,2.14,1.45,2.21Z"/>
          </g>
        </g>
      </g>
      <g>
        <g>
          <path class="cls-7" d="m390.79,390.56c6.9,2.41,15.9.26,21.8-4.05,5.9-4.31,10.15-10.48,13.91-16.75,1.61-2.67,3.17-5.46,3.68-8.54.51-3.08-.24-6.54-2.63-8.55-3.71-3.12-9.39-1.54-13.6.86-13.18,7.51-22.18,21.89-23.17,37.02"/>
          <path class="cls-7" d="m398.2,407.07c4.14,5.47,11.26,7.9,18.11,8.22,6.85.32,13.62-1.58,20.03-4.03,2.32-.89,4.87-2.11,5.66-4.47.6-1.78-.02-3.82-1.21-5.27-1.2-1.46-2.89-2.41-4.62-3.15-6.3-2.68-13.52-2.81-20.16-1.09-6.63,1.72-12.43,5.56-17.81,9.8"/>
          <path class="cls-7" d="m390.69,361c5.71.11,10.03-4.89,12.62-9.98,3.58-7.05,4.79-15.28,3.4-23.07-.52-2.92-1.63-6.06-4.24-7.47-2.65-1.43-6.11-.49-8.33,1.54-2.23,2.03-3.44,4.93-4.33,7.81-3.06,9.92-2.4,21.32.88,31.17"/>
          <path class="cls-7" d="m371.93,392.59c9.74-16.57,11.36-36.85,5.61-55.19-.93-2.98-2.69-6.38-5.81-6.58-3.45-.22-5.61,3.62-6.56,6.94-3.34,11.65-2.63,24.02-1.89,36.11.45,7.45,3.01,13.82,8.64,18.71"/>
          <path class="cls-7" d="m361.81,399.41c-3.53-11.35-12.5-20.87-23.63-25.06-2.59-.97-5.87-1.53-7.8.45-1.89,1.94-1.31,5.18-.1,7.61,1.96,3.91,5.14,7.06,8.31,10.08,2.88,2.75,5.88,5.5,9.53,7.1,3.65,1.6,10.35,2,13.68-.17"/>
          <path class="cls-15" d="m422.18,356.83s-.05.06-.17.15c-.14.11-.31.24-.52.41-.5.37-1.18.88-2.04,1.53-.45.33-.94.7-1.48,1.09-.53.41-1.09.89-1.7,1.38-1.2,1.01-2.63,2.09-4.06,3.45-.73.67-1.5,1.36-2.3,2.09-.79.73-1.56,1.55-2.38,2.37-1.68,1.61-3.3,3.49-5.04,5.43-3.38,3.98-6.85,8.57-10.04,13.69-3.15,5.15-5.7,10.3-7.76,15.1-.96,2.43-1.91,4.72-2.61,6.94-.36,1.1-.76,2.16-1.05,3.19-.29,1.04-.57,2.03-.84,2.99-.58,1.89-.91,3.65-1.27,5.18-.17.77-.35,1.48-.48,2.14-.11.66-.22,1.26-.32,1.81-.19,1.06-.34,1.9-.45,2.51-.05.26-.09.48-.13.65-.03.15-.05.22-.06.22,0,0,0-.08.01-.23.02-.17.05-.39.08-.66.09-.61.21-1.46.37-2.52.08-.55.18-1.16.28-1.82.12-.66.28-1.38.44-2.15.34-1.54.65-3.31,1.21-5.21.26-.96.53-1.96.81-3,.29-1.04.68-2.1,1.03-3.21.68-2.23,1.63-4.54,2.58-6.98,2.04-4.83,4.6-10.02,7.76-15.18,3.21-5.14,6.7-9.74,10.11-13.72,1.76-1.94,3.4-3.82,5.09-5.43.83-.81,1.61-1.63,2.41-2.36.81-.72,1.58-1.41,2.32-2.07,1.45-1.35,2.9-2.42,4.12-3.41.62-.49,1.18-.95,1.72-1.36.55-.39,1.05-.74,1.51-1.06.89-.62,1.59-1.1,2.09-1.46.22-.15.4-.27.55-.37.13-.08.19-.12.2-.11Z"/>
          <path class="cls-15" d="m435.07,402.77s-.23-.02-.67-.11c-.44-.08-1.07-.25-1.9-.38-1.65-.32-4.06-.69-7.05-.86-5.96-.38-14.42.32-22.89,3.85-8.48,3.53-14.94,9.03-18.87,13.53-1.99,2.25-3.42,4.21-4.36,5.61-.49.69-.81,1.25-1.06,1.62-.24.37-.38.56-.39.55-.01,0,.09-.21.31-.6.23-.38.53-.96.99-1.67.89-1.43,2.3-3.43,4.26-5.72,3.89-4.58,10.38-10.18,18.94-13.74,8.55-3.56,17.1-4.22,23.09-3.75,3.01.22,5.42.63,7.06,1.01.83.17,1.45.36,1.88.47.43.12.65.19.65.2Z"/>
          <path class="cls-15" d="m399.11,327.1s0,.09-.04.26c-.04.19-.09.44-.16.74-.15.68-.37,1.64-.64,2.85-.56,2.48-1.42,6.05-2.49,10.46-2.14,8.82-5.26,20.97-8.51,34.43-1.61,6.74-3.07,13.17-4.33,19.03-1.24,5.87-2.29,11.17-3.07,15.64-.42,2.23-.74,4.26-1.04,6.03-.31,1.78-.54,3.31-.73,4.57-.19,1.23-.34,2.2-.45,2.89-.05.31-.1.56-.13.75-.03.17-.05.25-.06.25,0,0,0-.09.01-.26.02-.2.05-.44.08-.76.09-.7.21-1.67.36-2.9.16-1.26.37-2.8.65-4.58.28-1.78.57-3.82.97-6.05.74-4.48,1.77-9.79,2.98-15.67,1.24-5.88,2.69-12.32,4.3-19.05,3.25-13.47,6.42-25.6,8.64-34.4,1.11-4.38,2-7.93,2.63-10.42.31-1.2.55-2.15.72-2.83.08-.3.15-.54.2-.73.05-.16.08-.25.08-.25Z"/>
          <path class="cls-15" d="m376.75,423.68s-.03-.07-.06-.2c-.04-.16-.08-.36-.14-.6-.12-.57-.28-1.33-.48-2.31-.41-2-.96-4.91-1.58-8.52-1.25-7.21-2.73-17.22-3.64-28.36-.44-5.57-.69-10.89-.79-15.73-.08-4.84-.04-9.2.11-12.86.04-1.83.17-3.48.25-4.93.07-1.45.18-2.7.27-3.72.09-.99.16-1.77.22-2.35.03-.24.05-.44.07-.61.02-.14.03-.21.04-.21,0,0,.01.07,0,.21,0,.17-.01.37-.02.61-.03.58-.08,1.36-.13,2.35-.07,1.02-.14,2.27-.19,3.72-.06,1.45-.15,3.1-.18,4.93-.11,3.65-.12,8.01-.01,12.84.13,4.83.39,10.14.83,15.7.91,11.12,2.34,21.12,3.5,28.34.58,3.61,1.08,6.53,1.44,8.54.17.98.3,1.75.39,2.32.04.24.07.44.09.61.02.14.02.21.02.21Z"/>
          <path class="cls-15" d="m377.47,425.78s-.1-.19-.25-.57c-.16-.42-.38-.98-.64-1.67-.14-.37-.29-.77-.46-1.21-.19-.43-.4-.9-.63-1.4-.22-.5-.46-1.04-.71-1.61-.25-.57-.58-1.15-.89-1.76-.32-.62-.65-1.26-.99-1.93-.38-.65-.78-1.33-1.18-2.04-.78-1.43-1.79-2.85-2.77-4.4-2.09-3.01-4.54-6.2-7.33-9.37-2.82-3.15-5.7-5.97-8.42-8.42-1.4-1.18-2.68-2.36-3.98-3.35-.64-.51-1.25-1-1.84-1.47-.61-.45-1.19-.88-1.75-1.29-1.1-.84-2.14-1.54-3.06-2.15-.91-.63-1.7-1.15-2.36-1.55-.62-.4-1.13-.71-1.51-.96-.34-.22-.52-.35-.51-.36,0-.01.2.08.56.28.4.22.91.52,1.56.88.68.38,1.49.88,2.41,1.49.93.59,1.99,1.28,3.11,2.1.57.41,1.16.83,1.77,1.27.6.47,1.22.95,1.87,1.45,1.31.98,2.61,2.15,4.02,3.33,2.74,2.45,5.64,5.27,8.48,8.44,2.81,3.19,5.26,6.41,7.34,9.44.97,1.56,1.98,3,2.75,4.44.4.71.79,1.4,1.17,2.06.34.68.66,1.33.97,1.96.3.63.62,1.21.86,1.79.24.58.47,1.12.69,1.63.21.51.41.98.59,1.42.15.44.29.85.42,1.22.23.7.42,1.27.56,1.7.12.39.18.6.17.6Z"/>
          <path class="cls-15" d="m418.57,376.05c0,.07-1.18.07-3.08.18-1.89.1-4.51.35-7.35.89-2.84.54-5.36,1.27-7.17,1.87-1.8.6-2.9,1.03-2.93.96-.01-.03.25-.17.73-.4.48-.23,1.19-.53,2.09-.87,1.78-.68,4.32-1.46,7.19-2.01,2.87-.54,5.51-.74,7.42-.76.96-.01,1.73,0,2.26.04.53.03.83.07.83.1Z"/>
          <path class="cls-15" d="m425.91,411.93c-.14.07-1.24-3.1-4.01-6.05-2.73-2.98-5.82-4.31-5.73-4.44.02-.05.81.22,1.98.88,1.17.65,2.69,1.75,4.09,3.26,1.4,1.51,2.38,3.11,2.94,4.32.57,1.21.78,2.02.73,2.04Z"/>
          <path class="cls-15" d="m400.86,340.55c.09.1-1.7,1.88-3.66,4.28-1.97,2.4-3.35,4.51-3.46,4.44-.1-.06,1.12-2.3,3.11-4.73,1.98-2.44,3.94-4.08,4.01-3.99Z"/>
          <path class="cls-15" d="m394.98,330.39c.13-.02.52,1.7.89,3.84.37,2.14.56,3.9.43,3.92-.12.02-.52-1.7-.89-3.84-.36-2.14-.56-3.9-.43-3.92Z"/>
          <path class="cls-15" d="m376.76,362.28c.11.06-1.16,2.74-2.85,6-1.69,3.26-3.15,5.85-3.26,5.79-.11-.06,1.16-2.74,2.85-6,1.69-3.25,3.15-5.84,3.26-5.79Z"/>
          <path class="cls-15" d="m365.92,351.45c.11-.06,1.2,1.89,2.42,4.34,1.22,2.45,2.12,4.49,2,4.54-.11.06-1.19-1.89-2.42-4.34-1.22-2.45-2.12-4.49-2-4.54Z"/>
          <path class="cls-15" d="m349.99,388.47c-.03.13-1.96-.24-4.37-.41-2.41-.18-4.38-.08-4.39-.21-.02-.12,1.97-.43,4.42-.25,2.45.17,4.37.75,4.34.87Z"/>
        </g>
        <g>
          <path class="cls-15" d="m360.87,421.2l5.42,28.51c.36,1.89,2.01,3.25,3.93,3.25h16.01c1.95,0,3.62-1.41,3.94-3.34l4.71-28.41h-34.01Z"/>
          <polygon class="cls-5" points="362.63 430.46 393.26 430.46 394.89 421.2 360.87 421.2 362.63 430.46"/>
          <polygon class="cls-2" points="362.63 430.46 363.27 433.84 392.79 433.84 393.26 430.46 362.63 430.46"/>
        </g>
      </g>
    </g>
  </g>
</svg>