<?xml version="1.0" encoding="UTF-8"?>
<svg id="Layer_1" data-name="Layer 1" xmlns="http://www.w3.org/2000/svg" viewBox="0 0 235 55.49">
  <defs>
    <style>
      .cls-1 {
        fill: #e48e43;
      }
    </style>
  </defs>
  <path class="cls-1" d="m0,28.13C0,10.25,12.35,0,26.65,0c6.53-.1,12.83,2.43,17.46,7.03l-7.41,9.12c-2.54-2.53-5.98-3.95-9.56-3.94-7.22,0-12.66,5.77-12.66,15.47s4.43,15.64,14.06,15.64c1.43.05,2.85-.29,4.1-.98v-7.41h-7.97v-11.49h20.42v25.48c-5.03,4.33-11.48,6.67-18.12,6.56C12.03,55.49,0,46.44,0,28.13Z"/>
  <path class="cls-1" d="m55.46,1.01h14.06v53.49h-14.06V1.01Z"/>
  <path class="cls-1" d="m79.82,1.32h14.06v41.65h35.16v11.84h-49.23V1.32Z"/>
  <path class="cls-1" d="m154.03,1.32h17.09l16.41,53.49h-15.05l-6.05-26c-1.31-5.11-2.63-11.6-3.96-16.95h-.33c-1.15,5.41-2.46,11.84-3.77,16.95l-6.09,26h-14.53L154.03,1.32Zm-4.69,31.2h26.25v10.95h-26.16l-.09-10.95Z"/>
  <path class="cls-1" d="m191.72,1.32h15.8c16.41,0,27.47,7.57,27.47,26.51s-11.18,26.98-26.65,26.98h-16.62V1.32Zm14.98,42.19c7.74,0,13.83-3.14,13.83-15.64s-6.09-15.14-13.83-15.14h-.82v30.73l.82.05Z"/>
  <path class="cls-1" d="m99.95,2.91h28.41v7.71h-16.78v5.49h14.35v7.74h-14.35v6.24h17.46v7.74h-29.09V2.91Z"/>
</svg>