<?xml version="1.0" encoding="UTF-8"?>
<svg xmlns="http://www.w3.org/2000/svg" viewBox="0 0 454.85 400.81">
  <defs>
    <style>
      .cls-1 {
        fill: #b59a5f;
      }

      .cls-2 {
        fill: #fff;
      }

      .cls-3 {
        fill: #d6ad61;
      }

      .cls-4 {
        fill: #9b9b9f;
      }

      .cls-5 {
        fill: #c0a66d;
      }

      .cls-6 {
        fill: #a15845;
      }

      .cls-7 {
        fill: #2f4855;
      }

      .cls-8, .cls-9 {
        fill: #994f41;
      }

      .cls-10 {
        isolation: isolate;
      }

      .cls-11 {
        fill: #5e8e7c;
      }

      .cls-12 {
        fill: #e5f2f3;
      }

      .cls-13 {
        fill: #415486;
      }

      .cls-14 {
        fill: #dc8b7f;
      }

      .cls-15 {
        fill: #d79252;
      }

      .cls-16 {
        fill: #d6d7db;
      }

      .cls-17 {
        fill: #ebcb82;
      }

      .cls-18 {
        fill: #abd8c8;
      }

      .cls-19 {
        fill: #213238;
      }

      .cls-20 {
        fill: #e2a290;
      }

      .cls-21 {
        fill: #d7735a;
      }

      .cls-22 {
        fill: #202020;
      }

      .cls-23 {
        fill: #edebe7;
      }

      .cls-24 {
        fill: #ccb57b;
      }

      .cls-25 {
        fill: #7cbea5;
      }

      .cls-26 {
        fill: #6b9986;
      }

      .cls-27 {
        fill: #e3a291;
      }

      .cls-28 {
        fill: #cfdff7;
      }

      .cls-9 {
        mix-blend-mode: multiply;
        opacity: .3;
      }

      .cls-29 {
        fill: #d9c58b;
      }

      .cls-30 {
        fill: #d8735a;
      }

      .cls-31 {
        fill: #263a5a;
      }

      .cls-32 {
        fill: #7cbda4;
      }
    </style>
  </defs>
  <g class="cls-10">
    <g id="Layer_2" data-name="Layer 2">
      <g id="Icons">
        <g>
          <path class="cls-31" d="m331.6,89.78c-1.53,15.08-7.17,40.26-15.82,43.58-3.54,1.36-8.55,2.6-14,3.87,12.35-22.46-5.1-44.94-5.29-45.18l-2.72,2.15c.18.23,17.67,22.77,3.27,44.13-14.44,3.34-28.9,6.93-32.06,14.44-.05.13-.08.29-.13.42-4.17-.28-14.05-.93-27.02-1.66-4.62-2.59-15.73-9.33-20.14-16.4-5.61-9-6.4-38.92-6.41-39.22l-3.47.08c.03,1.27.82,31.17,6.93,40.97,3.44,5.51,10.24,10.65,15.67,14.16-2.87-.15-5.85-.31-8.91-.46-19.22-.95-22.81-11.81-27.34-25.54-1.07-3.24-2.17-6.59-3.54-9.86-7.45-17.94-24.06-19.77-24.77-19.84l-.52,5.18c.58.06,14.25,1.67,20.48,16.66,1.29,3.1,2.36,6.35,3.4,9.5,4.54,13.76,9.24,27.98,32.03,29.11,20.27,1,36.74,2.08,42.85,2.49,0,3.74.7,8.44,1.52,13.85,2.29,15.08,5.13,33.84-5.62,43.36-14.84,13.14-14.87,16.54-15.14,43.02-.08,7.7-.18,88.75-.64,101.24l5.2.19c.46-12.55.56-93.65.64-101.38.27-26.53.29-27.57,13.39-39.18,12.87-11.4,9.66-32.58,7.31-48.04-1.09-7.18-2.12-13.96-.99-16.64,2.26-5.36,18.39-9.08,30.18-11.79,6.78-1.56,13.18-3.04,17.71-4.78,14.44-5.56,18.69-43.6,19.13-47.91l-5.18-.53Z"/>
          <g>
            <g>
              <path class="cls-26" d="m332.18,259.49h45.27c1.39,0,2.52,1.13,2.52,2.52v7.9c0,1.39-1.13,2.52-2.52,2.52h-45.27c-1.39,0-2.52-1.13-2.52-2.52v-7.9c0-1.39,1.13-2.52,2.52-2.52Z"/>
              <path class="cls-11" d="m329.66,265.77v-3.47c0-1.65,1.03-3,2.29-3h45.72c1.27,0,2.29,1.34,2.29,3v3.47h-50.3Z"/>
              <rect class="cls-12" x="371.86" y="263.88" width="1.71" height="4.14" transform="translate(745.44 531.91) rotate(180)"/>
              <rect class="cls-12" x="336.05" y="263.88" width="1.71" height="4.14" transform="translate(673.81 531.91) rotate(180)"/>
              <rect class="cls-22" x="349.63" y="265.19" width="11.72" height="1.53" transform="translate(710.99 531.91) rotate(180)"/>
              <rect class="cls-17" x="341.45" y="250.95" width="1.22" height="4.14" transform="translate(684.12 506.04) rotate(180)"/>
              <path class="cls-18" d="m338.38,259.62l29.63-.02.48-13.2h-30.11c-3.65,0-6.61,2.96-6.61,6.61h0c0,3.65,2.96,6.61,6.61,6.61Z"/>
              <path class="cls-32" d="m361.69,253.01c0,3.65,2.73,6.61,6.09,6.61s6.09-2.96,6.09-6.61-2.73-6.61-6.09-6.61-6.09,2.96-6.09,6.61Z"/>
              <path class="cls-11" d="m355.41,260.23h0c.27-.22.33-.6.13-.89-2.01-2.83-2.56-5.85-1.66-8.97.5-1.74,1.35-3.06,1.83-3.72.19-.27.15-.63-.09-.85h0c-.28-.26-.72-.21-.94.09-.54.74-1.45,2.17-2.01,4.07-.72,2.46-.96,6.17,1.83,10.13.21.3.63.37.92.14Z"/>
              <path class="cls-11" d="m344.58,260.23h0c.27-.22.33-.6.13-.89-2.01-2.83-2.56-5.85-1.66-8.97.5-1.74,1.35-3.06,1.83-3.72.19-.27.15-.63-.09-.85h0c-.28-.26-.72-.21-.94.09-.54.74-1.45,2.17-2.01,4.07-.72,2.46-.96,6.17,1.83,10.13.21.3.63.37.92.14Z"/>
              <path class="cls-11" d="m362.74,251.83c.32-2.08,1.45-3.13,2.34-3.65,1.32-.76,3.01-.87,4.54-.29,1.45.55,2.6,1.82,3.02,3.3.37,1.32.1,2.66-.77,3.78-1.45,1.87-3.68,1.58-4.77,1.11-.99-.43-1.73-1.44-1.89-2.57-.13-.92.29-1.81,1.09-2.32.8-.51,1.79-.52,2.57,0,.57.37,1.14,1.1.6,2.48l-.44-.17c.34-.88.21-1.51-.42-1.91-.63-.41-1.42-.4-2.07.01-.64.41-.98,1.12-.87,1.86.14.98.77,1.84,1.61,2.21.96.42,2.93.68,4.21-.97.99-1.28.92-2.53.69-3.36-.37-1.32-1.44-2.5-2.73-2.99-1.39-.53-2.94-.44-4.13.25-1.14.66-1.87,1.81-2.11,3.31-.31,1.96.06,3.52,1.09,4.64,1.93,2.11,6.03,2.08,6.73,2.05-.26.18-.52.33-.8.46h-.04c-1.25,0-4.41-.21-6.24-2.2-1.13-1.23-1.54-2.93-1.21-5.03Z"/>
            </g>
            <g>
              <rect class="cls-31" x="407.83" y="282.97" width="8.99" height="32.7"/>
              <rect class="cls-31" x="393.42" y="248.57" width="1.47" height="17.26" transform="translate(83.91 -96.72) rotate(15.64)"/>
              <rect class="cls-17" x="361.71" y="272.68" width="51.39" height="12.65" rx="2.18" ry="2.18" transform="translate(14.35 576.92) rotate(-74.37)"/>
              <rect class="cls-17" x="387.81" y="235.88" width="17.26" height="12.65" rx="4.33" ry="4.33" transform="translate(131.24 623.65) rotate(-86.61)"/>
              <rect class="cls-31" x="315.76" y="247.23" width="1.47" height="17.26" transform="translate(80.62 -75.8) rotate(15.63)"/>
              <path class="cls-31" d="m406.24,274.67l-50.24-43.04,8.38-26.08c.32-.98-.23-2.04-1.21-2.35s-2.04.23-2.36,1.21l-22.6,70.35c-.32.98.23,2.04,1.21,2.35.98.32,2.04-.23,2.35-1.21l12.98-40.41,49.05,42.02,2.44-2.84Z"/>
              <rect class="cls-17" x="284.19" y="271.18" width="51.39" height="12.65" rx="2.18" ry="2.18" transform="translate(-40.85 501.17) rotate(-74.37)"/>
              <rect class="cls-17" x="310.3" y="234.39" width="17.26" height="12.65" rx="4.33" ry="4.33" transform="translate(59.8 544.87) rotate(-86.61)"/>
              <path class="cls-3" d="m289.16,268.47h0c3.49,0,6.33,2.84,6.33,6.33v52.8c0,3.49-2.84,6.33-6.33,6.33h0c-3.49,0-6.33-2.84-6.33-6.33v-52.8c0-3.49,2.84-6.33,6.33-6.33Z" transform="translate(590.36 12.03) rotate(90)"/>
              <path class="cls-31" d="m219.11,279.85h0c5.79,0,10.48,4.7,10.48,10.48v16.52h-10.48v-27h0Z"/>
              <circle class="cls-31" cx="246.52" cy="262.38" r="2.74" transform="translate(-81.64 114.31) rotate(-22.5)"/>
              <rect class="cls-31" x="218.41" y="271.63" width="34.93" height="2.32" transform="translate(-122.86 235.9) rotate(-43.28)"/>
              <rect class="cls-31" x="224.33" y="290.29" width="22.55" height="1.37" transform="translate(-135.4 240.66) rotate(-43.28)"/>
              <rect class="cls-31" x="223.81" y="297.57" width="22.55" height="1.37" transform="translate(-117.63 157.5) rotate(-30)"/>
              <path class="cls-22" d="m245.22,283.07c0,.87-.7,1.57-1.57,1.57s-1.57-.7-1.57-1.57.7-1.57,1.57-1.57,1.57.7,1.57,1.57Z"/>
              <path class="cls-22" d="m246.51,292.57c0,.87-.7,1.57-1.57,1.57s-1.57-.7-1.57-1.57.7-1.57,1.57-1.57,1.57.7,1.57,1.57Z"/>
              <path class="cls-31" d="m218.16,279.05l.99.26c.24.06.48-.08.55-.32l14.63-54.43c.06-.24-.08-.48-.32-.55l-.99-.27c-.24-.06-.48.08-.55.32l-14.63,54.43c-.06.24.08.48.32.55Z"/>
              <path class="cls-6" d="m220.61,275.23v76.64l-21.47-44.93-59.91-2.5-24.46,38.69v-34.7h0c0-9.76,7.13-18.07,16.78-19.55l89.06-13.65Z"/>
              <path class="cls-6" d="m292.26,341.11v-39c0-.54.3-1.04.78-1.29,2.78-1.47,12.72-7.73,25.01-27.35,1.06-1.69,2.91-2.72,4.9-2.72h81.6c3.19,0,5.78,2.59,5.78,5.78v72.16c0,.97-.24,1.93-.71,2.78-1.02,1.87-2.85,5-3.38,4.65-.65-.43-18.21-31.94-22.95-40.45-.75-1.34-2-2.33-3.48-2.75-4.74-1.33-15.19-4.22-16.16-4.22h-22.97c-.98,0-12.53,1.07-17.49,1.54-1.44.13-2.77.8-3.74,1.87l-26.51,29.28c-.24.27-.69.1-.69-.26Z"/>
              <rect class="cls-8" x="220.61" y="301.2" width="71.64" height="51.92"/>
              <rect class="cls-22" x="413.82" y="254.97" width="25.96" height="79.8" rx="11.56" ry="11.56"/>
              <rect class="cls-31" x="104.29" y="350.5" width="46.93" height="14.98"/>
              <path class="cls-6" d="m415.35,359.44h-11.35v-7.52h20.35l-3.35,4.63c-1.31,1.81-3.42,2.89-5.65,2.89Z"/>
              <rect class="cls-22" x="421.72" y="343.22" width="2.63" height="8.7"/>
              <path class="cls-22" d="m425.51,344.14c0,1.37-1.11,2.48-2.48,2.48s-2.48-1.11-2.48-2.48,1.11-2.48,2.48-2.48,2.48,1.11,2.48,2.48Z"/>
              <g>
                <path class="cls-17" d="m108.51,305.61v19.64c5.42,0,9.82-4.4,9.82-9.82s-4.4-9.82-9.82-9.82Z"/>
                <path class="cls-17" d="m108.51,305.61s-1.78,10.73,0,19.64c0,0,.87-9.28.87-9.49s-.87-10.15-.87-10.15Z"/>
                <circle class="cls-28" cx="112.75" cy="315.42" r="3.12"/>
                <path class="cls-31" d="m108.6,305.61c2.56,2.49,4.15,5.96,4.15,9.81s-1.59,7.33-4.15,9.81c5.38-.05,9.72-4.42,9.72-9.81s-4.34-9.76-9.72-9.81Z"/>
              </g>
              <path class="cls-9" d="m371,306.91l1.39,2.64,6.24,1.54,12.79,15.76-13.1-24.94c-1.85-3.53-5.24-5.72-8.85-5.72h-50.06c-3.33,0-6.45,1.83-8.39,4.92l-27.74,44.25h-58.18l-17.75-42.47c-1.7-4.07-5.35-6.7-9.31-6.7h-51.51c-3.66,0-7.08,2.24-8.91,5.84l-19,37.24c-.39.76-1.09,1.22-1.86,1.22-1.19,0-2.15,1.1-2.15,2.45v4.82c0,1.36.96,2.45,2.15,2.45h4.91c.77,0,1.48-.46,1.86-1.22l21.47-42.08c.32-.62.9-1.01,1.53-1.01h51.51c.68,0,1.31.45,1.6,1.15l20.07,48.02h67.96l30.29-48.33c.33-.53.87-.85,1.44-.85h50.06c.62,0,1.2.38,1.52.98Z"/>
              <path class="cls-31" d="m113.02,350.77s21.8-43.23,22.97-43.25c1.16-.02,61.58,0,61.58,0l23.05,51.92s-14.59-.32-15.99,0c-1.4.32-89.85,1.82-89.85,1.82l-1.75-10.48Z"/>
              <path class="cls-31" d="m290.27,359.44l114.81.2s-3.83-13.02-4.99-14.19c-1.16-1.17-19.3-35.02-19.3-35.02l-29.5-3.58-30.33,3.58s-17.56,17.54-20.05,20.21c-2.5,2.66-10.63,28.8-10.63,28.8Z"/>
              <g>
                <path class="cls-22" d="m209.15,364.79c.69-4.23.73-8.43.19-12.49l-2.09.4-.91-4.71,2.1-.4c-.94-3.77-2.39-7.39-4.28-10.74l-1.82,1.17-2.59-4.03,1.82-1.17c-2.24-3.1-4.89-5.91-7.9-8.33l-1.28,1.79-3.9-2.78,1.28-1.8c-3.5-2.22-7.37-3.96-11.55-5.11l-.47,2.15-4.68-1.02.47-2.15c-4.37-.7-8.72-.71-12.91-.1l.44,2.16-4.7.95-.43-2.15c-3.64.96-7.12,2.39-10.36,4.23l1.17,1.82-4.03,2.59-1.17-1.82c-3.11,2.27-5.93,4.95-8.35,8l1.74,1.24-2.78,3.91-1.74-1.23c-2.17,3.47-3.88,7.31-5,11.44l2.04.44-1.02,4.68-2.02-.44c-.66,4.22-.68,8.41-.13,12.47l2.01-.39.91,4.71-1.99.38c.96,3.75,2.41,7.34,4.31,10.67l1.67-1.08,2.59,4.03-1.67,1.07c2.23,3.07,4.88,5.85,7.87,8.24l1.14-1.6,3.9,2.78-1.14,1.6c3.48,2.19,7.32,3.91,11.46,5.05l.41-1.91,4.68,1.02-.41,1.91c4.34.69,8.65.71,12.81.11l-.39-1.93,4.7-.95.39,1.93c3.62-.94,7.08-2.35,10.3-4.17l-1.07-1.67,4.03-2.59,1.08,1.67c3.11-2.24,5.92-4.9,8.34-7.92l-1.65-1.17,2.78-3.91,1.67,1.18c2.19-3.46,3.91-7.28,5.06-11.4l-2.02-.44,1.02-4.68,2.04.44Z"/>
                <g>
                  <path class="cls-22" d="m131.52,350.2c-4.24,19.51,8.14,38.76,27.65,42.99,19.5,4.23,38.75-8.15,42.98-27.66,4.24-19.51-8.14-38.76-27.65-42.99-19.5-4.23-38.75,8.15-42.98,27.66Z"/>
                  <path class="cls-4" d="m142.26,352.53c-2.95,13.57,5.67,26.97,19.23,29.91,13.57,2.95,26.96-5.67,29.91-19.25,2.95-13.57-5.67-26.97-19.24-29.91-13.57-2.95-26.96,5.67-29.91,19.25Z"/>
                  <path class="cls-16" d="m150.4,354.3c-1.97,9.08,3.79,18.03,12.86,20,9.08,1.97,18.03-3.79,20-12.87,1.97-9.08-3.79-18.03-12.86-20-9.08-1.97-18.03,3.79-20,12.87Z"/>
                </g>
              </g>
              <g>
                <path class="cls-22" d="m387.02,365.04c.71-4.22.78-8.42.27-12.49l-2.09.39-.88-4.71,2.1-.39c-.92-3.78-2.34-7.4-4.22-10.76l-1.82,1.16-2.57-4.05,1.83-1.16c-2.22-3.11-4.85-5.93-7.85-8.37l-1.29,1.78-3.88-2.81,1.29-1.79c-3.48-2.24-7.35-4-11.51-5.18l-.48,2.15-4.68-1.04.48-2.15c-4.37-.73-8.71-.76-12.91-.17l.42,2.16-4.7.92-.42-2.16c-3.65.93-7.14,2.34-10.39,4.17l1.16,1.83-4.05,2.57-1.16-1.82c-3.13,2.25-5.96,4.92-8.39,7.95l1.74,1.25-2.8,3.89-1.73-1.24c-2.19,3.46-3.92,7.29-5.07,11.41l2.03.45-1.04,4.68-2.02-.45c-.69,4.22-.73,8.41-.2,12.47l2.01-.37.88,4.71-1.99.37c.93,3.76,2.37,7.35,4.25,10.69l1.68-1.07,2.57,4.05-1.67,1.06c2.22,3.08,4.84,5.88,7.82,8.29l1.15-1.6,3.88,2.81-1.15,1.6c3.46,2.21,7.3,3.96,11.43,5.12l.42-1.9,4.68,1.04-.42,1.9c4.34.72,8.64.76,12.81.19l-.38-1.93,4.7-.92.38,1.93c3.62-.92,7.09-2.31,10.33-4.11l-1.06-1.67,4.05-2.57,1.07,1.68c3.12-2.22,5.95-4.87,8.39-7.87l-1.65-1.18,2.8-3.89,1.66,1.19c2.21-3.44,3.95-7.26,5.12-11.37l-2.02-.45,1.04-4.68,2.03.45Z"/>
                <g>
                  <ellipse class="cls-22" cx="344.74" cy="357.87" rx="36.15" ry="36.14" transform="translate(-80.11 615.58) rotate(-77.31)"/>
                  <path class="cls-4" d="m320.21,352.38c-3.03,13.56,5.5,27,19.05,30.03,13.55,3.03,26.99-5.51,30.02-19.07,3.03-13.56-5.5-27-19.05-30.03-13.55-3.03-26.99,5.51-30.02,19.07Z"/>
                  <path class="cls-16" d="m328.33,354.2c-2.03,9.07,3.68,18.06,12.74,20.08,9.06,2.02,18.05-3.68,20.08-12.75,2.03-9.07-3.68-18.06-12.74-20.08-9.06-2.02-18.05,3.68-20.08,12.75Z"/>
                </g>
              </g>
              <rect class="cls-22" x="245.26" y="241.97" width="3.85" height="36" rx=".9" ry=".9" transform="translate(-110.99 240.16) rotate(-43.28)"/>
              <rect class="cls-31" x="220.05" y="273.6" width="1.12" height="78.27"/>
              <polygon class="cls-31" points="292.82 351.87 291.69 351.87 291.69 301.2 292.26 301.2 292.82 300.93 292.82 351.87"/>
              <path class="cls-30" d="m289.08,361.26h-71.55l-21.13-48.02c-.31-.7-.97-1.15-1.69-1.15h-54.23c-.67,0-1.28.38-1.61,1.01l-22.6,42.08c-.41.76-1.15,1.22-1.96,1.22h-7.81c-1.25,0,.37-1.1.37-2.45v-4.82c0-1.36-2.1-2.45-.85-2.45h.31c.81,0,4.36-.47,4.77-1.22l20-37.24c1.94-3.6,5.53-5.84,9.38-5.84h54.23c4.16,0,8.01,2.63,9.8,6.7l18.69,42.47h61.25l29.2-44.25c2.04-3.09,5.33-4.92,8.83-4.92h52.7c3.8,0,7.37,2.19,9.31,5.72l21.83,39.47c.81,1.47,2.28,2.37,3.86,2.37h.9c2.48,0,4.49,2.18,4.49,4.86h0c0,2.69-2.01,4.86-4.49,4.86h-5.99c-1.58,0-3.04-.9-3.86-2.37l-24.44-44.2c-.34-.61-.95-.98-1.6-.98h-52.7c-.6,0-1.17.32-1.52.85l-31.89,48.33Z"/>
              <rect class="cls-31" x="271.41" y="309.46" width="15.48" height="3.27" rx="1.64" ry="1.64"/>
              <path class="cls-9" d="m347.67,277.51h62.66v3.99h-62.66c-1.1,0-1.99-.89-1.99-1.99h0c0-1.1.89-1.99,1.99-1.99Z"/>
              <path class="cls-9" d="m361.09,284.86h49.24v3.99h-49.24c-1.1,0-1.99-.89-1.99-1.99h0c0-1.1.89-1.99,1.99-1.99Z"/>
              <path class="cls-9" d="m379.19,292.22h31.14v3.99h-31.14c-1.1,0-1.99-.89-1.99-1.99h0c0-1.1.89-1.99,1.99-1.99Z"/>
              <rect class="cls-17" x="104.04" y="342.97" width="3.12" height="25.46" rx="1.56" ry="1.56"/>
            </g>
          </g>
          <g>
            <path class="cls-6" d="m86.03,279.53s-.1,1.1,3.61,2.82c3.71,1.72,20.69,9.15,20.75,7.82.06-1.34-4.63-4.46-8.17-5.78-3.54-1.31-2.76-1.39-5.79-2.26-3.03-.87-3.1-.81-4.52-1.33-1.42-.52-4.86-1.88-5.88-1.27Z"/>
            <path class="cls-27" d="m121.18,375.89c-.29-.3-1.29-.9-1.66-1.18,0,0-.46-.42-1-.92h0s-11.05-19.15-11.49-21.69c-.44-2.54-1.83-29.79-1.83-29.79l-17.57-6.26s.71,3.36,1.74,8.12l-3.16-1.73-7.13,28.51-3.86,27.43c-.29.53-1.15.87-1.32.9-1.9.3,4.83,5.48,5.28,3.78.12-.45.13-1.77.18-2.3,0,0,.11-.52.24-1.18,0,0,10.13-28.56,10.35-30.99.06-.69.82-10.45,2.48-12.41,1.26,5.54,5.56,19.13,5.94,20,.75,1.74,17.08,19.89,17.19,20,.06.07.13.15.18.22.34.41.23,1.68.17,1.82-.63,1.59,6.35-1.21,5.26-2.33Z"/>
            <path class="cls-24" d="m91.17,353.17c.78-2.18,1.29-3.75,1.33-4.25.22-2.43,13.23-16.65,13.23-16.65l-21.22-10.87-6.57,26.28c4.1,2,11.16,4.58,13.23,5.48Z"/>
            <path class="cls-29" d="m108.38,348.59c-.02-.06-.03-.11-.04-.16-.5-2.54-2.68-25.75-2.68-25.75l-19.96-6.26s6.13,25.42,9,35.67l13.68-3.51Z"/>
            <path class="cls-6" d="m13.17,230.24s.29,1.2,4.86,1.65c4.57.45,25.28,2.05,24.85.62-.43-1.44-6.55-3.01-10.78-3.1-4.23-.08-3.44-.45-6.97-.25-3.52.2-3.58.28-5.27.25-1.69-.03-5.83-.2-6.7.83Z"/>
            <path class="cls-6" d="m97.94,296.32s7.85-1.04,10.71.44c2.86,1.48,4.43,19.12,4.43,19.12l-2.54.77s.36,12.22-1.58,13.07c-1.94.85-15.59-1.78-18.7-4.9-3.11-3.11,2.75-29.15,2.75-29.15l4.94.65Z"/>
            <path class="cls-20" d="m17.96,371.58s-.58,6.38-.2,8.47c.05.28.16.63.3,1.02.4,1.17-.69,4.73-.69,4.73l-14.54.05c-.79,0-.26-.5.38-.96,1.05-.75,1.9-1.25,5.26-2.82.22-.1,1.02-.6,1.31-.77.73-.43,1.47-1.12,2.1-1.81,1.06-1.15,1.22-6.77,1.22-6.77l4.86-1.14Z"/>
            <path class="cls-6" d="m9.78,381.3c3.83,1.03,6.68.4,8.28-.22.4,1.17,1.14,5.11.7,5.11-3.65,0-6.73.69-17.18.53-.37,0-.33-1.29-.08-1.58.67-.78,8-3.66,8.29-3.83Z"/>
            <path class="cls-20" d="m49.32,363.55s3.01,5.66,4.48,7.19c.2.2.48.44.81.69.97.76,2.02,4.33,2.02,4.33l-12.13,8.02c-.66.44-.49-.27-.21-1.01.47-1.21.91-2.09,2.85-5.25.13-.21.52-1.06.67-1.36.37-.76.61-1.74.77-2.67.26-1.54-2.7-6.33-2.7-6.33l3.44-3.62Z"/>
            <path class="cls-6" d="m47.82,376.17c3.77-1.24,5.81-3.33,6.8-4.73.97.76,3.75,3.64,3.38,3.89-3.05,2-5.25,4.27-14.07,9.86-.32.2-.98-.9-.93-1.27.13-1.02,4.68-7.45,4.83-7.75Z"/>
            <path class="cls-24" d="m36.19,295.79s-.21,9.11-2.82,14.95c-2.54,5.68-14.71,19.7-17.94,27.88,1,4.62,3.75,11.1,3.55,16.22-.23,5.8.11,21.13.11,21.13l-6.53.21-8.56-39.58,13.38-43.76,5.38-9.32,13.43,12.27Z"/>
            <path class="cls-27" d="m115.61,311.57c1.83,1,6.26,5.06,7.76,6.45.03.17.24,1.18,1.46,2.38.86.85,1.62,2.88,2.09,2.25.47-.63-.94-2.18-.36-2.24.58-.06,3.75,2.98,4.18,2.41.42-.57-2.76-3.24-2.23-3.29.52-.05,3.15,2.7,3.75,1.89.6-.81-3.39-2.95-3.07-3.38.32-.43,2.8.98,3.29.33.48-.65-3.48-1.77-3.18-1.8.31-.03,2.54-.15,2.52-.58-.02-.49-5.72-.79-6.48-1.57h0c-1.66-2.23-4.63-6.31-7.43-7.99-3.44-2.05-11.34-6.33-11.34-6.33l-3.35,5.12s10.23,5.16,12.4,6.35Z"/>
            <path class="cls-29" d="m36.27,289.27s3.58,8.38,3.62,14.78c.04,6.23-5.25,24.03-4.81,32.81,2.82,3.79,8,8.56,9.93,13.3,2.19,5.37,8.84,19.2,8.84,19.2l-5.86,2.89-24.16-32.49-5.11-38.31-.99-12.69,18.54.52Z"/>
            <g>
              <path class="cls-27" d="m72.63,305.85c-2.12.74-8.56,1.37-10.75,1.58-.16-.1-1.12-.66-2.95-.55-1.3.08-3.47-.78-3.3.05.17.83,2.42.81,2.05,1.32-.38.51-5.09.86-4.94,1.61.15.75,4.58.13,4.25.58s-4.43.58-4.22,1.64,4.81-.59,4.92-.02c.11.57-2.81,1.54-2.64,2.39.17.86,3.93-1.51,3.73-1.25-.2.27-1.71,2.14-1.35,2.43.4.33,4.75-4.02,5.93-4.06h0c2.98.28,8.39.84,11.75-.21,4.11-1.28,13.24-4.53,13.24-4.53l-1.69-6.37s-11.5,4.48-14.02,5.36Z"/>
              <path class="cls-14" d="m58.56,308.94c.15.31.37.57.63.79.05.02.83.8,2.05.57-.76-.12-1.59-.26-2.68-1.36Z"/>
            </g>
            <path class="cls-1" d="m78.76,303.05s.31,1.43,5.81,6.22l11.49-6.02-5.35-6.93-11.95,6.73Z"/>
            <path class="cls-5" d="m96.02,297.25s-3.83-.43-5.21-.93c-1.38-.5-9.25,36.4-9.25,36.4,5.46.74,26.11,2.88,26.11,2.88,0,0-.04-5.72-.97-8.67-1.6-5.11-2.51-16.79-2.51-18.85,0-1.21,6.26,2.99,6.26,2.99l2.63-9.49s-8-3.21-10.8-3.79c-.78-.16-6.26-.52-6.26-.52Z"/>
            <path class="cls-6" d="m84.44,319.7c1.01-4.88,9.23-22.78,9.3-22.91l-1.76-.94c-.31.58-5.22,10.5-6.28,15.66l-1.26,8.2Z"/>
            <path class="cls-6" d="m106.77,322.84l.9-1.43c-.08-.05-7.65-4.89-8.51-11.06-.86-6.24,3.53-12.8,3.58-12.86l-1.39-.95c-.2.29-4.81,7.15-3.85,14.04.96,6.96,8.94,12.05,9.28,12.26Z"/>
            <path class="cls-19" d="m99.28,277.65s-2.62-1.87-5.33.57c-2.71,2.43-1.61,2.44-2.94,3.66-1.33,1.22-3.64.25-4.28,2.55-.64,2.3.33,2.95.33,2.95,0,0-1.46,1.52-.9,3.65.56,2.13,2.79,4.46,5.1,4.82,0,0,2.84,2.77,6.45,2.84,3.61.06,2.43-.26,3.81.12,1.38.38,5.62-.47,5.78-3.4,0,0,3.02-2.07,1.43-4.88-1.59-2.81-1.38-5.16-1.84-8.48-.45-3.31-5.88-4.69-7.6-4.41Z"/>
            <path class="cls-27" d="m93.89,293.62s.13,4.22-.27,4.61c-.4.4-.95,1.05-.37,2.06.58,1.01,3.11.36,4.29-.21,1.13-.55,1.86-1.58,1.86-1.58l-.59-6.68-4.92,1.8Z"/>
            <path class="cls-6" d="m95.57,295.36c.81-.28,2.23-.83,3.32-2.61l-.08-.94-4.92,1.8s.03,1.03.01,2.12c.69-.03,1.28-.23,1.67-.37Z"/>
            <path class="cls-27" d="m100.29,288.08s.78-2.36,2.12-1.49c1.34.87-.78,4.17-1.96,3.71-1.18-.46-.15-2.22-.15-2.22Z"/>
            <path class="cls-27" d="m97.85,279s-2.28-.69-3.95.77c-1.67,1.46-4.36,6.21-3.4,10.27.96,4.06,3.67,3.88,4.79,3.8,1.12-.07,3.35-.31,5.29-3.31,1.93-3.01,3.25-10.61-2.73-11.53Z"/>
            <path class="cls-2" d="m91.95,288.39l4.38,1.4s-.63,1.63-2.58,1.07c-2.37-.69-1.8-2.47-1.8-2.47Z"/>
            <path class="cls-20" d="m20.69,278.05c.2-1.02,3.21-20.02,3.21-20.02l-8.65,3.39-1.89,14.69c-.24.76-3.9,18.74-5.24,24.56-.27,1.17-1.11,2.11-2.23,2.54,0,0-.01,0-.02,0-.75.29-2.17,1.05-2.46,1.32-.33.31-.99.97-1.38,1.37-.39.4-.87.86-1.05,1.1-.11.14-.46.35-.72.49-.38.21-.32.78.11.89.4.1.93-.17,1.25-.33.92-.47,2.03-1.69,2.09-1.55.07.14-1.02,2.72-1.12,3.02-.1.3-1.35,3.31-1.39,3.97-.05.66.36.8.64.55.25-.22,2.27-4.24,2.27-4.24,0,0,.26-.51.37-.23.12.28-1.71,3.94-1.88,4.54-.17.6,0,1.07.54.85.66-.27,2.37-4.29,2.37-4.29,0,0,.22-.5.39-.33.17.17-1.44,3.25-1.45,3.6,0,.35.32.68.77.38.53-.36,2.03-3.96,2.03-3.96,0,0,.19-.24.26-.08.07.16-1.11,2.89-1.01,3.28.09.33.38.25.38.25.66-.02,1.45-2.83,2.19-4,.75-1.17,11.39-30.62,11.61-31.75Z"/>
            <path class="cls-19" d="m15.43,237.93c.68-4.17,2.13-8.14,4.76-11.61,2.27-2.99,6.57-4.06,10.15-3.33,11.36,2.32,9.71,17.7,15.74,25,1.84,2.23,4.02,4.19,5.71,6.53,6.26,8.66.1,21.05-8.27,25.8-5.8,3.3-14.04,4.15-19.41-.46-2.8-2.41-4.61-5.82-5.66-9.37-1.5-5.04-1.98-10.6-2.72-15.8-.78-5.53-1.22-11.21-.32-16.76Z"/>
            <path class="cls-14" d="m53.75,303.2c.02-.1-3.83-16.47-5.39-20.09s-7.61-20.43-7.61-20.43l7.83-1.71s5.05,13.16,7.35,19.11c2.3,5.95,1.32,16.92,1.42,20.01,0,.04.34,2.62.34,2.66h0c.08.34.15.63.19.68.09.15.36,1.19.37,1.28.01.09.24.44.34.59.09.15.31,2.25.35,2.59.05.34-.1,1.11-.1,1.11l.08,1.41c.06,1.04-1.01.76-1.01.76.03.49-.14.74-.42.84-.27.09-.6.01-.65.03-.05.02-.07.17-.07.17.03.31-.32.55-.55.59s-.63-.11-.74-.24c-.11-.13-.19-.11-.19-.11-.23.19-1.1.19-1.31-.1-.2-.28-.39-1.77-.48-1.9-.09-.13-.29-.36-.31-.58-.03-.21-.75-1.74-.79-2.04-.04-.3.4-1.33.5-1.94.1-.61.7-1.57.84-1.85.06-.11.04-.46,0-.85h0Z"/>
            <path class="cls-24" d="m15.17,259.87c3.62-10.99,8.3-10.78,8.3-10.78l-3.76,23.37c-2.24-.61-5.15-1.97-7.38-2.61.74-3.48,1.95-7.27,2.84-9.98Z"/>
            <path class="cls-1" d="m13.01,267c.24.18,9.56,3.74,9.56,3.74l-5.41.87-5.01-1.68.85-2.93Z"/>
            <path class="cls-29" d="m32.11,247.37s6.67-.43,9.31,2.46c2.64,2.89-5.86,25.71-6.34,29.39-.48,3.67,2.45,13.44,2.45,13.44,0,0-15.67,3.16-20.15.19,0,0-.48-26.41,0-29.03.48-2.62,4.48-13.29,5.44-14.34.96-1.05,9.29-2.1,9.29-2.1Z"/>
            <path class="cls-20" d="m29.89,238.43s.03.2.1.53c.3,1.61,1.44,6.95,2.22,8.41.94,1.77-3.2,7.43-7.18,6.74-1.19-.21,1-5.2.9-5.73-.2-1.01-.47-2.39-.75-3.81-.16-.8-.32-1.61-.47-2.37-.43-2.16-.77-3.93-.77-3.93l5.97.15Z"/>
            <path class="cls-30" d="m29.99,238.96c-.06-.34-.1-.53-.1-.53l-5.97-.15s.35,1.77.77,3.93c.15.76.31,1.56.46,2.36.92-.14,1.88-.59,2.85-1.43,1.05-.92,1.74-2.03,2.16-3.22-.07-.38-.13-.7-.18-.95Z"/>
            <path class="cls-20" d="m27.64,225.42s2.82.25,4.09,2.84c1.27,2.6,1.7,9.9-3.36,12.79-5.06,2.88-8.43-2.25-8.13-6.9.3-4.65,1.18-10.18,7.4-8.73Z"/>
            <path class="cls-19" d="m23.69,224.43s4.1,12.95,8.63,14.44c4.53,1.49,3.87,7.79,3.87,7.79,0,0,1.26-14.56-2.77-18.25-4.03-3.69-9.74-3.98-9.74-3.98Z"/>
            <path class="cls-2" d="m25.92,237.67l-3.58-.55s-.13,1.37,1.44,1.66c1.91.35,2.14-1.11,2.14-1.11Z"/>
            <path class="cls-29" d="m42.94,273.23s-7.16-11.08-8.72-14.91.78-9.57,4.42-10.02c3.65-.45,13.43,18.34,13.43,18.34l-9.14,6.6Z"/>
            <path class="cls-6" d="m17.38,292.84s10.15,3.29,20.15-.19l-.84-3.06s-11.26,2.79-19.36,0l.05,3.25Z"/>
            <polygon class="cls-24" points="41.27 270.61 50.53 263.78 52.07 266.63 42.94 273.23 41.27 270.61"/>
            <polygon class="cls-24" points="47.99 372.24 53.85 369.35 52.6 366.74 46.34 370.02 47.99 372.24"/>
            <polygon class="cls-1" points="11.78 372.59 19.03 372.59 19.09 375.97 12.56 376.18 11.78 372.59"/>
            <path class="cls-29" d="m42.89,232.51c.06-.12.39-.59.09-1.4-.31-.81-5.35-3.41-5.35-3.41,0,0-6,.04-6.59,0-.58-.04-2.78,1.24-2.78,1.24,0,0-2.02-1.54-2.6-1.58-.58-.04-6.54-.83-6.54-.83,0,0-5.33,1.94-5.74,2.71-.22.42-.24.75-.2,1,.02,0,14.33-1.4,29.72,2.27Z"/>
            <path class="cls-24" d="m34.31,218.93c-2.54-2.18-5.3-2.09-5.3-2.09,0,0-2.73-.43-5.52,1.41-4.08,2.7-4.38,8.29-4.38,8.29,1.84,1.83,8.86,2.41,9.14,2.43.27.02,7.32.32,9.37-1.26,0,0,.4-5.58-3.31-8.77Z"/>
            <path class="cls-29" d="m29.84,216.88c-.02.25-.49.43-1.07.39-.57-.04-1.03-.27-1.01-.52.02-.25.49-.43,1.07-.39.57.04,1.03.27,1.01.52Z"/>
            <path class="cls-29" d="m19.11,226.53s11.29,2.23,18.51,1.17c0,0-1.13,1.99-2.15,1.99s-4.14.08-5.68,0,1.8,0-3.16-.17c-4.96-.17-6.96-.27-7.52-.42-.56-.16-1.73-.61-1.73-.61l1.73-1.95Z"/>
            <path class="cls-29" d="m110.39,290.16c.09-.09.5-.38.48-1.15s-3.51-4.44-3.51-4.44c0,0-5.07-1.73-5.55-1.93-.48-.2-2.7.23-2.7.23,0,0-1.25-1.89-1.73-2.09-.48-.2-5.26-2.62-5.26-2.62,0,0-5.06.07-5.63.6-.31.29-.42.56-.46.78.02,0,12.48,3.03,24.36,10.63Z"/>
            <path class="cls-24" d="m107.16,276.21c-1.5-2.58-3.85-3.32-3.85-3.32,0,0-2.17-1.17-5.06-.43-4.23,1.07-6.12,5.69-6.12,5.69,1.01,2.08,6.75,4.63,6.98,4.73.23.1,6.07,2.42,8.26,1.69,0,0,1.98-4.58-.21-8.36Z"/>
            <path class="cls-29" d="m103.99,273.17c-.09.21-.54.21-1.02.02-.47-.2-.79-.53-.7-.74.09-.21.54-.21,1.02-.02.47.2.79.53.7.74Z"/>
            <path class="cls-29" d="m92.13,278.15s8.86,5.19,15.24,6.42c0,0-1.54,1.34-2.39,1.04-.85-.3-3.51-1.15-4.78-1.67-1.28-.52,1.52.53-2.61-1.07s-5.78-2.27-6.21-2.57c-.43-.3-1.28-1.02-1.28-1.02l2.03-1.14Z"/>
            <polygon class="cls-24" points="93.81 348.84 94.7 352.1 108.38 348.59 107.89 345 93.81 348.84"/>
            <polygon class="cls-1" points="91.17 353.17 92.22 350.05 78.79 344.27 77.94 347.69 91.17 353.17"/>
            <g>
              <path class="cls-23" d="m76.69,367.93l-1.47,10.45c-.29.53-1.15.87-1.32.9-1.9.3,4.83,5.48,5.28,3.78.12-.45.13-1.77.18-2.3,0,0,.11-.52.24-1.18,0,0,1.39-3.92,3.15-8.98-2.53-.34-4.56-1.47-6.07-2.66Z"/>
              <path class="cls-23" d="m121.18,375.89c-.29-.3-1.29-.9-1.66-1.18,0,0-.46-.42-1-.92,0,0-2.87-4.97-5.74-10.18-2.88,2.5-5.62,3.12-5.62,3.12,4.21,4.79,8.34,9.38,8.4,9.44.06.07.13.15.18.22.34.41.23,1.68.17,1.82-.63,1.59,6.35-1.21,5.26-2.33Z"/>
            </g>
            <path class="cls-6" d="m115.92,378.19s1.5-.8,2.18-1.3c.68-.5.77-1.99,1.38-2.21.67-.24,3.5,2.65,3.5,2.65,0,0-5.53,6.01-8.42,8.01-.62.43-1.38.29-1.64.3-1.02.02,1.4-4.33,3.01-7.46Z"/>
            <path class="cls-6" d="m73.92,379.27s1.64,1,2.51,1.37c.87.37,2.47-.66,3.04-.2.62.52-.39,5.09-.39,5.09,0,0-11.5-3.05-13.95-4.63-.97-.63,4.83-1.39,8.79-1.63Z"/>
          </g>
          <path class="cls-15" d="m454.85,100.47c.11,3.68-351.21,5.24-347.74,0,3.47-5.24,30.84-43.11,67.85-23.3,0,0,1.54-23.3,34.7-18.64,0,0-3.08-34.95,65.54-30.29,0,0-1.54-31.46,45.49-27.96,47.03,3.5,43.95,27.96,43.95,27.96,0,0,44.54-4.66,51.66,33.79,0,0,37.78,12.82,38.55,38.45Z"/>
          <g>
            <path class="cls-6" d="m166.68,216.08s-.41,1.25,3.46,4.24c3.87,2.99,21.68,16.15,22.1,14.61s-4.21-6.43-7.99-8.89c-3.77-2.47-2.85-2.35-6.15-4.17-3.3-1.81-3.39-1.77-4.91-2.75-1.51-.98-5.16-3.47-6.52-3.03Z"/>
            <g>
              <path class="cls-31" d="m149.37,222.07l-.66-.36c-.34-.19-.47-.6-.3-.92l7.08-13c.18-.32.59-.43.93-.24l.66.37c.34.19.47.6.3.92l-7.08,13c-.18.32-.59.43-.93.24Z"/>
              <path class="cls-27" d="m168.86,251.04c.59-1.61-7.06-9.85-8.51-9.21-1.44.64-18.63-.19-18.63-.19l5.76-16.32h0c.31-.23,3.62-2.65,4.26-2.93.68-.3,1.19-2.74.69-3.61-.5-.87-1.08,1.27-1.25,1.46-.48.51-1.12-.61-1.12-.61,0,0,.7-4.11,1.78-4.57,1.09-.46,3.18-1.98,2.43-2.56-.39-.3-2.04.28-2.79.68.82-.53,1.71-1.2,1.71-1.54-.01-.62-.82-.65-1.13-.43-.31.22-3.79,2.44-4.12,2.86-.32.41-2.88,7.54-3.58,8.68,0,0-12.22,20.35-9.79,23.67,1.65,2.26,32.45,9.66,34.29,4.62Z"/>
              <path class="cls-31" d="m203.81,239.32c3.58.97,4.18,14.99,4.18,14.99l11.36-1.32s-2.07-14.62-8.07-20.72c-6-6.11-21.16-2.37-26.93,1.43-5.76,3.8-3.26,8.65-3.26,8.65,0,0,19.14-3.99,22.72-3.02Z"/>
              <path class="cls-13" d="m215.23,250.99c.59,13.31,4.27,14.49,4.34,14.68.08.01,3.01,2.31,6.26-.73l-1.08-1.11c-.46.48-1.17.91-1.85,1.11-1.51.4-2.49-.36-2.61-.4-.08-.06-.85-.54-1.24-1.18-1.89-2.56-2.79-9.21-3.04-12.39l-.79.03Z"/>
              <path class="cls-7" d="m177.04,241.26s1.59,6.34,1.78,11.5c.18,5.16,3.68,9.45,4.14,22.36.46,12.9,2.27,24.76,2.27,24.76,0,0,14.11,1,16.89-2.04,2.78-3.04,1.57-30.66-1.17-44.08-2.75-13.43,9.33-17.09,3.06-21.49s-14.44-1.42-17.89-.22c-3.46,1.19-9.17,6.37-9.07,9.22Z"/>
              <path class="cls-17" d="m200.34,251.93s1.67,10.3.41,20.73c-1.25,10.43.74,31.02.74,31.02,0,0,10.51,7.45,13.6,1.53.58-1.11,1.97-14.3,2.09-19.81.13-5.85-.66-26.31-.93-32.93-.06-1.39-.46-2.74-1.18-3.93-2.3-3.81-7.57-12.23-9.4-12.52-2.39-.38-6.6,4.87-5.34,15.9Z"/>
              <path class="cls-31" d="m216.54,259.59c-1.48,1.46-10.88,10.63-15.59,11.29.05-.58.1-1.16.14-1.74,3.69-.6,12-8.37,15.37-11.68.03.68.05,1.39.08,2.13Z"/>
              <path class="cls-31" d="m200.37,284.23c-.01-.57-.02-1.14-.02-1.71,2.85,1.24,12.88.45,16.85,0,0,.6,0,1.15,0,1.64-3.64.41-13.44,1.5-16.84.07Z"/>
              <path class="cls-31" d="m216.26,297.55c-.06.54-.12,1.07-.18,1.58-3.96.81-11.59-2.63-15.26-4.24-.04-.61-.08-1.24-.11-1.88,3.41,1.5,12.06,5.21,15.55,4.54Z"/>
              <path class="cls-31" d="m216.49,295.32c-1.76.75-12.72,5.52-15.22,5.68-.04-.47-.08-.99-.12-1.56,1.76-.17,10.11-3.7,15.52-6-.06.63-.12,1.25-.18,1.88Z"/>
              <g>
                <path class="cls-25" d="m204.01,299.97h0c-2.24,0-4.06-1.82-4.06-4.06v-17.47c0-2.24,1.82-4.06,4.06-4.06h0c2.24,0,4.06,1.82,4.06,4.06v17.47c0,2.24-1.82,4.06-4.06,4.06Z"/>
                <rect class="cls-31" x="199.95" y="282" width="8.11" height="1.72"/>
              </g>
              <path class="cls-27" d="m206.45,372s3.76,3.5,3.77,3.51c.53.39,1.94,1.26,2.35,1.69,1.54,1.61-8.33,5.61-7.44,3.34.08-.21.23-2.02-.25-2.61-.74-.91-2.06-2.22-2.06-2.22l3.63-3.7Z"/>
              <path class="cls-6" d="m205.13,380.5s2.12-1.15,3.08-1.86c.96-.72,1.08-2.86,1.95-3.17.95-.35,4.95,3.8,4.95,3.8,0,0-7.82,8.62-11.91,11.49-.88.62-1.95.42-2.33.43-1.45.03,1.98-6.2,4.25-10.69Z"/>
              <path class="cls-27" d="m159.14,378.78s-1.17,5.73-1.17,5.74c-.07.75-.08,2.64-.25,3.29-.64,2.45-10.15-4.98-7.47-5.42.24-.04,1.45-.53,1.86-1.29.72-1.31,1.41-3.77,1.41-3.77l5.62,1.44Z"/>
              <path class="cls-6" d="m150.28,382.39s2.32,1.43,3.55,1.97,3.5-.95,4.3-.28c.88.74-.55,7.3-.55,7.3,0,0-16.27-4.37-19.73-6.65-1.37-.9,6.84-2,12.43-2.34Z"/>
              <path class="cls-24" d="m167.89,300.18l-10.08,40.88-6.37,39.59,7.94,1.09s11.18-30.27,11.49-33.76c.31-3.48,5.92-19.77,5.92-19.77l-8.89-28.02Z"/>
              <path class="cls-24" d="m172.36,241.95l-16.67-.92s-3.31,7.5-1.09,14.39l12.94.87,4.82-14.33Z"/>
              <path class="cls-29" d="m191.44,303.5s-.78,31.15-.15,34.79c.62,3.64,17.51,34.72,17.51,34.72l-5.69,6.27s-24.17-28.42-25.23-30.93c-1.67-3.93-10.12-48.05-10.12-48.05l23.68,3.2Z"/>
              <path class="cls-29" d="m182.16,241.21s4.28-.4,5.99,3.72c1.71,4.12,4.07,27.57,3.29,37.07-.78,9.5,0,21.5,0,21.5-14.92,7.84-23.67-3.14-23.67-3.14,0,0-3.94-36.36-2.49-43.08,3.03-14.04,8.86-16.3,8.86-16.3l8.02.23Z"/>
              <path class="cls-20" d="m202.6,273.24c-.28-1.08-8.8-20.18-8.8-20.18l-7.16,6.8,8.28,17.32c.07,1.01.72,19.77.72,19.77,0,0,.16,3.95.12,5.83-.51.66-1.05,1.19-1.53,1.64-.67.62-1.81,1.68-2.05,2.33-.15.41-.61,1.51-.85,2.09-.24.59-.55,1.26-.64,1.59-.06.2-.34.56-.55.81-.32.38,0,.95.49.88.46-.06.9-.56,1.18-.87.77-.88,1.42-2.62,1.55-2.5.13.12.08,3.27.09,3.64s-.02,4.03.21,4.74.71.69.91.31c.17-.33.6-5.39.6-5.39,0,0,.06-.64.3-.4.24.25-.14,4.84-.07,5.54.07.7.45,1.13.92.67.57-.56.68-5.49.68-5.49,0,0,.02-.62.27-.51.25.1-.14,4.01,0,4.38.14.37.62.58.96.07.4-.6.46-5,.46-5,0,0,.1-.33.24-.19.14.14.05,3.49.32,3.86.23.3.51.1.51.1.69-.3.33-3.57.62-5.11.26-1.36.17-2.79.25-4.36l-.16-2.39c.39-5.91,2.42-28.99,2.16-29.98Z"/>
              <path class="cls-24" d="m197.85,258.45l-9.38,7.38s-4.14-4.01-6.22-8.44c-2.11-4.49.46-16.31,2.7-15.7,5.01,1.36,12.9,16.76,12.9,16.76Z"/>
              <path class="cls-20" d="m180.37,232.42l1.4,9.39s-5.13,11.18-8.19,10.21c-2.57-.81-.99-10.7-.99-10.7,0,0,1.4-5.31.98-7.97-.42-2.66,6.79-.92,6.79-.92Z"/>
              <path class="cls-21" d="m173.57,233.34c-.42-2.66,6.79-.92,6.79-.92l.12.78c-.21.52-.47.97-.78,1.31-1.61,1.76-4.13,2.81-6.31,2.89.22-1.43.35-2.97.18-4.06Z"/>
              <path class="cls-20" d="m185.64,221.56c.22,0-1.9,10.65-5.42,12.58s-8.84,1.14-9.88-1.67c-1.15-3.12,2.67-14.04,7.65-15.56,4.98-1.53,7.66,4.66,7.66,4.66Z"/>
              <path class="cls-31" d="m181.97,212.78c2.87,1.69,3.6,3.46,4.06,4.53,1.34.64,2.98,2.08,3.83,6.05,1.04,4.89-2.39,8.51-5.85,10.03-2.82,1.24-2.92,3.89-2.92,3.89,0,0-1.24-3.76-.77-4.77.28-.61.64-1.24,1.09-1.71,1.18-1.24-.62-2.95-.8-4.38-.14-1.1.57-3.27.38-5.08l-.46-1.49s-1.46-2.26-3.57-2.48c-2.11-.22,1.32-6.76,5.01-4.59Z"/>
              <path class="cls-20" d="m180.13,228.27c-.44,1.24-.23,2.44.47,2.7s1.63-.54,2.08-1.78c.44-1.24.23-2.44-.47-2.7s-1.63.54-2.08,1.78Z"/>
              <path class="cls-7" d="m176.8,261.11c-.2-8.18.3-19.42,7.99-22.61,2.75-1.17,6.1.14,8.65,1.11h0c-3.12-.44-6.07.78-7.59,1.64-6.33,3.25-6.28,12.55-6.05,19.79.58,18.21,14.33,16.28,14.33,16.28l.32,1.21s-5.17,1.72-11.76-1.58c-5.26-2.63-5.9-15.84-5.9-15.84Z"/>
              <path class="cls-2" d="m171.01,228.75l2.81,1.43s-.61,1.03-1.86.44c-1.53-.72-.95-1.87-.95-1.87Z"/>
            </g>
            <path class="cls-29" d="m192.25,234.92c.12-.08.69-.31.87-1.21.18-.9-2.91-6.11-2.91-6.11,0,0-5.45-3.36-5.95-3.72-.51-.36-3.21-.45-3.21-.45,0,0-.95-2.53-1.46-2.9s-5.43-4.45-5.43-4.45c0,0-5.92-1.26-6.72-.8-.43.25-.64.55-.75.78.02,0,13.73,6.83,25.56,18.84Z"/>
            <path class="cls-24" d="m192.17,217.81c-1.06-3.4-3.6-4.88-3.6-4.88,0,0-2.22-1.93-5.78-1.84-5.21.13-8.64,5.01-8.64,5.01.63,2.69,6.64,7.19,6.88,7.36.24.17,6.43,4.43,9.18,4.16,0,0,3.52-4.82,1.97-9.79Z"/>
            <path class="cls-29" d="m189.29,213.43c-.16.22-.69.11-1.19-.25-.5-.36-.78-.83-.62-1.04.16-.22.69-.11,1.19.25s.78.82.62,1.04Z"/>
            <path class="cls-29" d="m174.15,216.09s8.94,8.39,16.06,11.51c0,0-2.15,1.15-3.07.58-.92-.57-3.78-2.27-5.13-3.21-1.35-.94,1.63,1.02-2.76-1.94-4.39-2.96-6.13-4.17-6.55-4.63-.42-.46-1.22-1.53-1.22-1.53l2.67-.79Z"/>
            <path class="cls-6" d="m167.24,295.22s12.85,3.76,23.89,0l.14,4.88s-7.15,2.72-23.5.26l-.53-5.14Z"/>
            <polygon class="cls-1" points="188.16 266.08 187.03 264.6 197.19 256.63 198.09 258.3 188.16 266.08"/>
            <path class="cls-1" d="m156.89,241.09l-1.19-.07s-3.31,7.5-1.09,14.39l1.09.07c-1.25-5.91.42-12.04,1.19-14.4Z"/>
            <path class="cls-6" d="m186.48,231.91s4.66,3.61,5.76,3.01c0,0-2.25-2.2-2.27-2.23-.03-.03-1.65-1.61-1.71-1.58-.06.03-1.25.52-1.25.52l-.52.27Z"/>
          </g>
          <path class="cls-31" d="m270.12,202.42c-.21,0-.42,0-.63,0-20.88,0-38.67-3.4-52.71-9.97,6.1-1.59,10.97-4.57,14.51-8.91,7.43-9.12,6.19-20.83,6.13-21.32l-4.42.5c.01.1,1.07,10.4-5.19,18.04-3.85,4.7-9.71,7.49-17.43,8.31-5.55-3.28-10.38-7.14-14.42-11.58-11.25-12.33-12.64-24.89-12.65-25.02l-2.22.22-2.22.21c.05.56,1.47,13.94,13.58,27.35,7.06,7.82,16.31,14.02,27.5,18.45,13.69,5.41,30.35,8.16,49.52,8.16.22,0,.44,0,.66,0v-4.45Z"/>
          <path class="cls-15" d="m127.79,169.16c-.05,1.71,163.63,2.44,162.01,0-1.62-2.44-14.37-20.06-31.61-10.84,0,0-.72-10.84-16.17-8.67,0,0,1.44-16.27-30.53-14.1,0,0,.72-14.64-21.19-13.01-21.91,1.63-20.48,13.01-20.48,13.01,0,0-20.75-2.17-24.07,15.72,0,0-17.6,5.96-17.96,17.89Z"/>
        </g>
      </g>
    </g>
  </g>
</svg>