<?xml version="1.0" encoding="UTF-8"?>
<svg preserveAspectRatio="xMidYMid slice" xmlns="http://www.w3.org/2000/svg" xmlns:xlink="http://www.w3.org/1999/xlink" width="80px" height="80px" viewBox="0 0 80 80" version="1.1">
  <title>Group 10</title>
  <g id="Itineraries" stroke="none" stroke-width="1" fill="none" fill-rule="evenodd">
    <g id="6.0---Itineraries---Specific---No-Highlights-Block" transform="translate(-785.000000, -10963.000000)">
      <g id="Overview" transform="translate(0.000000, 10434.000000)">
        <g id="USPs" transform="translate(435.000000, 529.000000)">
          <g id="2" transform="translate(270.000000, 0.000000)">
            <g id="Group-10" transform="translate(80.000000, 0.000000)">
              <path d="M32.3625867,35.8448881 C32.5268379,36.081496 32.6911829,36.3180106 32.9077769,36.6297544 C33.0553309,36.0688956 32.782642,35.9012634 32.3625867,35.8448881 M51.1333753,40.8523888 C51.6061486,40.716491 51.8031375,40.4225745 51.7604565,39.7722061 C51.5568076,40.1228711 51.3532524,40.4736295 51.1333753,40.8523888 M46.373186,39.172986 C45.6667464,39.0913166 45.1148961,39.2918967 44.7751372,39.8921434 C45.3170442,39.6483486 45.8450682,39.410714 46.373186,39.172986 M44.2862296,38.6617823 C44.3313494,38.6072738 44.3762816,38.5527653 44.4214015,38.4983502 C44.3065851,38.0616289 44.1917687,37.625001 44.0770461,37.188373 C44.0418696,37.3790594 44.0733878,37.5583587 44.0916796,37.7389648 C44.1213217,38.0317612 44.0829558,38.2371014 43.6895409,38.1173508 C43.4447118,38.0428683 43.1791521,38.0356814 42.9228789,37.9982534 C42.9099339,38.0314812 42.8971766,38.064709 42.8843254,38.0979368 C43.3515642,38.2859164 43.8188969,38.4738027 44.2862296,38.6617823 M34.4853764,34.6877961 C34.3635247,34.7058101 34.246457,34.693303 34.1642845,34.7406246 C33.820492,34.9384978 33.5221008,34.9789125 33.2277431,34.6352477 C33.1520431,34.5468581 32.9452048,34.5697255 32.7986826,34.5414446 C32.782173,34.5790592 32.7657573,34.6165804 32.7493415,34.654195 C33.022218,34.9475515 33.2950945,35.2409079 33.550711,35.5156905 C33.8917832,35.2135604 34.1627836,34.973499 34.4853764,34.6877961 M45.351658,37.0610621 C45.3094461,37.0974633 45.2671404,37.1338645 45.2250223,37.1702658 C45.2770836,37.5703058 45.329145,37.9704392 45.3742648,38.3164374 C45.7428216,38.233648 46.0580038,38.1628989 46.4349092,38.0783361 C46.4475727,37.9835063 46.4688663,37.8246476 46.4714928,37.8043003 C46.0415881,37.5189708 45.6965761,37.2900164 45.351658,37.0610621 M43.5068102,42.3076908 C44.5991605,41.9514256 44.8685662,41.3285914 44.4510436,40.2444885 C44.1306083,40.9445119 43.8413161,41.5768664 43.5068102,42.3076908 M30.3372596,36.309797 C30.131078,35.8180072 29.9250839,35.3266841 29.7032369,34.7976531 C29.5279168,35.1522383 28.8552467,35.20376 29.0372269,35.6667088 C29.230745,36.1590586 29.7870041,36.2979433 30.3372596,36.309797 M48.9759719,38.4124806 C48.7909899,38.3377181 48.6274892,38.3079438 48.5114533,38.2177808 C48.1728201,37.9544786 47.9462829,38.0219609 47.7158059,38.3725326 C47.6084001,38.5358714 47.3849584,38.7265578 47.2147975,38.7259044 C46.777576,38.7243177 46.6452183,39.0043271 46.6615402,39.3060838 C46.6806762,39.660109 47.0227803,39.6470419 47.3070071,39.6591756 C48.2037755,39.6971636 48.5557289,39.0283145 48.9759719,38.4124806 M34.744745,35.4843294 C34.6119183,35.8763425 34.4837817,36.2245808 34.3794714,36.579726 C34.3470151,36.6904231 34.3647441,36.8221208 34.3843492,36.9400047 C34.4272177,37.1973333 34.4752455,37.4548486 34.5415651,37.706857 C34.5960653,37.9135973 34.6798325,38.1125906 34.7506547,38.314944 C34.9933262,38.2217009 35.266578,38.1685925 35.4664748,38.0187875 C35.5714417,37.9401048 35.6151545,37.6716692 35.5699408,37.5242909 C35.4433051,37.1114638 35.3943393,36.737838 35.8762116,36.3547852 C35.4758552,36.0468682 35.1253088,35.7771259 34.744745,35.4843294 M32.6309606,36.7832928 C32.3287234,36.2910364 32.1189771,35.6896696 31.6984528,35.3383512 C31.2849637,34.992913 30.6574135,34.9010699 30.0711371,34.6779025 C30.1994612,35.6179872 30.6521604,36.2114204 31.3656354,36.6919164 C31.8097046,36.9908731 32.1608138,37.3000034 32.6309606,36.7832928 M48.1370807,39.9051172 C48.8527131,39.8647025 49.5524926,39.8568622 50.2417661,39.7680059 C50.4645511,39.7392583 50.7071289,39.5345715 50.8557148,39.3445384 C51.0578629,39.0859031 51.1783075,38.7639857 51.4040005,38.3363181 C50.7784201,38.2825563 50.2195345,38.2218876 49.6591481,38.1978068 C49.556151,38.19342 49.4249189,38.3192375 49.3441535,38.4158407 C48.9522394,38.8849497 48.5729889,39.3646058 48.1370807,39.9051172 M44.6616341,42.7961205 C45.0792505,42.6297949 45.4083157,42.4971638 45.7386942,42.3677995 C46.6104169,42.0263747 47.4831714,41.6876567 48.353487,41.3426852 C48.4218703,41.3156176 48.4844377,41.2570957 48.5326531,41.1991338 C48.9971716,40.6408884 49.5606536,40.3440785 50.3195298,40.3916801 C50.7161341,40.4166009 51.0508276,40.2034205 51.2866514,39.6767229 C49.5001499,40.6134475 47.7072697,40.0167476 45.9637305,40.0714427 C45.9163594,40.3166376 45.8771492,40.5199244 45.8327798,40.7496254 C45.6377609,40.7041705 45.498274,40.6715961 45.2991276,40.6252079 C45.5022138,41.4690628 45.0950096,42.0967504 44.6616341,42.7961205 M44.2753483,39.2246944 C43.5210685,38.8167208 42.808813,38.4315213 42.0774214,38.0359614 C41.7355988,38.2974901 41.5710662,38.2335546 41.4144132,37.7355113 C41.2309321,37.1515985 40.9780359,37.0009534 40.3915719,37.1260243 C40.3520803,37.3691657 40.3345389,37.6184674 40.2681255,37.854142 C40.1572489,38.2477418 40.0525634,38.2579155 39.7382254,38.0002135 C39.564031,37.8575021 39.3555042,37.7449383 39.1458517,37.6592554 C38.9024298,37.5599455 38.640716,37.5049703 38.3372593,37.416114 C38.4045169,37.9883598 38.0589422,38.1182841 37.5345765,38.1129639 C37.0718403,38.1082038 36.700657,37.99396 36.4034852,37.5430516 C36.8655648,38.1908065 36.4721499,38.4402949 35.9932793,38.6546887 C35.9652318,38.6671958 35.9297738,38.683063 35.9173917,38.7073305 C35.8225556,38.89251 35.6551151,39.0851529 35.6668406,39.2652958 C35.6754706,39.3971802 35.9086679,39.5341981 36.0652271,39.6316414 C36.261278,39.7537254 36.518583,39.7962869 36.6850855,39.9446918 C37.8788381,41.0086341 38.9995172,42.1028173 39.1634869,43.8456889 C39.2327145,44.5818335 39.4199477,45.3413122 39.9680458,45.9275585 C41.48683,44.9170047 41.629131,45.0319952 42.2579946,43.3643528 C42.6547865,42.3123576 42.8266358,41.1637592 43.5574645,40.2457952 C43.7889734,39.9550522 43.9868065,39.6377082 44.2753483,39.2246944 M40.8681912,54.75 L37.3648847,54.75 C37.4963982,54.1841011 37.6649644,53.6243624 37.7512643,53.0523033 C37.9244269,51.9052916 38.0846445,50.7541731 38.180231,49.5989478 C38.209967,49.2393225 38.0608183,48.8414292 37.9118571,48.4958976 C37.6643078,47.9218784 37.4448997,47.3778203 37.8386898,46.7785069 C37.8973175,46.6893706 37.8526667,46.5166982 37.824244,46.3895739 C37.601459,45.3935806 37.4286716,44.3809734 37.1192114,43.411861 C36.9571177,42.9042974 36.6049767,42.4266014 36.243549,42.0188145 C35.604367,41.2977904 34.8992406,40.6338882 34.2094043,39.9585056 C33.5819478,39.3441651 33.3084147,38.604007 33.3292393,37.7370047 C33.3455612,37.056582 33.119024,36.9138705 32.5094841,37.2489484 C32.1031242,37.4724892 31.8006056,37.476596 31.4257639,37.1422648 C30.7455894,36.5354845 29.8886878,36.5193373 29.0376021,36.6423548 C28.8393938,36.6710091 28.6082601,36.8093337 28.4875341,36.9687524 C28.1714139,37.3859663 27.7461055,37.4831296 27.2661093,37.5481851 C26.8207268,37.6085737 26.3840681,37.7401781 25.9475033,37.8553553 C25.2904046,38.0285878 24.6370582,38.2152607 23.9818357,38.3954 C23.7619586,38.4559754 23.4976183,38.5979401 23.388993,38.2739693 C23.2885286,37.9740793 23.425389,37.7201108 23.7108353,37.576746 C23.8476956,37.5080504 24.0101646,37.4917165 24.1533098,37.4329145 C24.2658749,37.3866197 24.3665268,37.3115772 24.4731822,37.2489484 C24.1569682,36.9368313 23.8064218,36.7402647 24.2119375,36.3738258 C24.2443937,36.3445182 24.2585582,36.2365279 24.2344505,36.2133804 C24.0392439,36.0254942 23.8565132,35.7529517 23.6232221,35.6962032 C23.3897434,35.6394546 23.0960424,35.7839394 22.8409887,35.8743825 C22.6865869,35.929171 22.5601388,36.1133238 22.41296,36.1236841 C22.214095,36.1376846 21.9329638,36.10147 21.8261208,35.9726657 C21.7316599,35.8587019 21.8158961,35.5869062 21.8449754,35.3881929 C21.8568885,35.3074568 21.9316505,35.2358678 21.9736748,35.1669855 C21.5743502,35.2735757 21.1989457,35.4266475 20.8124723,35.4630487 C20.3742189,35.5043034 19.9226454,34.8901496 20.0122284,34.285236 C20.0925248,33.7429512 20.332007,33.2240939 20.4751523,32.7764522 C20.3243151,32.5834325 20.0889603,32.3992796 20.0203894,32.1665919 C19.9248967,31.8421543 20.1807946,31.6576282 20.4557348,31.4850491 C20.6895887,31.3382308 20.9183773,31.1577181 20.7826425,30.7515179 C20.7276733,30.5870591 21.0399475,30.3011695 21.2118907,30.0280671 C21.4313926,30.2770887 21.5880456,30.4548013 21.7998556,30.6951427 C21.890189,30.5164967 21.9428132,30.4003862 22.0061311,30.2904358 C22.0718878,30.176192 22.1226359,30.0249869 22.2245073,29.965345 C22.4958829,29.8065796 22.6851799,29.6231735 22.8107837,29.3132032 C22.9584316,28.9487243 23.199696,29.0189133 23.4827972,29.3008827 C23.6886037,29.5058496 24.045904,29.6742286 24.3246901,29.6590147 C24.5790872,29.6452009 24.8322648,29.378632 25.0575826,29.1898124 C25.1351587,29.1248502 25.103828,28.9455509 25.1633937,28.8417607 C25.2495998,28.691489 25.3504394,28.4918424 25.4884254,28.4477876 C25.590203,28.4153065 25.7612081,28.5978726 25.9703915,28.7273302 C26.0224528,28.7183699 26.1758227,28.6579813 26.3210317,28.6733818 C26.793336,28.7233168 27.1558893,28.5974059 27.5924542,28.3498776 C27.9928106,28.1229767 28.5446609,27.9887589 29.0504533,27.9054094 C29.2900293,27.8658348 29.546021,27.9254768 29.809048,27.941064 C29.8087666,27.9417173 29.8357823,27.9164231 29.8377521,27.8894489 C29.8982559,27.0092862 29.9016328,27.0006992 30.6926839,27.3382038 C31.0709025,27.4995825 31.4377708,27.5955324 31.850697,27.4718616 C32.0087572,27.42454 32.1943957,27.4435807 32.3635247,27.4641147 C32.652348,27.4991159 32.8420201,27.4515143 32.9774734,27.1392105 C33.1294363,26.7885454 33.4409601,26.7469174 33.7501388,26.9823119 C34.0390558,27.2022126 34.2553684,27.3248567 34.4417574,26.8508009 C34.5646409,26.5384037 34.9060883,26.6322069 35.0741855,26.7941456 C35.7580183,27.4527276 36.5500074,27.0942223 37.2996908,27.0579144 C37.460096,27.0501675 37.6151544,26.8322269 37.7634589,26.7008092 C37.9836174,26.5058293 38.169725,26.2590477 38.4168053,26.1107361 C38.8666904,25.8404338 39.3786738,26.0881487 39.4184468,26.6024326 C39.4535296,27.0561411 39.5912342,27.1635713 40.029769,26.9972458 C40.6176401,26.774265 40.7968999,26.8999892 40.9269126,27.5271168 C40.9861969,27.8130063 41.0957602,27.973545 41.4393651,27.8716216 C41.846663,27.7507509 42.2370762,27.8182332 42.59175,28.0783619 C42.7260777,28.1769252 42.8880776,28.2543944 43.0494208,28.2964892 C43.2724873,28.3546378 43.4799822,28.3303703 43.3881479,28.0075195 C43.3121665,27.7402039 43.4014681,27.62204 43.6799728,27.6371605 C43.7231228,27.6394939 43.7677736,27.613173 43.8117678,27.6003859 C44.5808686,27.3782452 44.9374185,27.6245601 44.9764411,28.4403206 C45.0795319,28.389919 45.1961306,28.3679849 45.25579,28.2979826 C45.5688148,27.9299569 45.9172975,27.7536444 46.4371605,27.8275668 C46.6696074,27.8606079 46.9388255,27.6192399 47.1947234,27.5104096 C47.7773415,27.262788 48.3506729,26.9871654 48.9484872,26.7831319 C49.8933772,26.4605611 50.7493408,26.9174431 51.6105574,27.194279 C51.7523894,27.2398272 51.8015428,27.5697716 51.8942214,27.7679248 C51.9616666,27.912223 52.0298623,28.0559611 52.0977765,28.1999793 C52.2185964,28.1183099 52.3492657,28.0477475 52.45836,27.952731 C52.7835792,27.6695482 53.085535,27.3578978 53.4250125,27.0936623 C53.6930112,26.8851487 54.4954126,27.1918523 54.6901501,27.6180265 C54.8569341,27.9828787 55.0823456,28.1744984 55.4666615,28.2585946 C55.6129961,28.2907023 55.7668351,28.4383606 55.8519155,28.5739785 C56.2770362,29.2508544 56.5043239,29.9733719 56.3113686,30.785119 C56.2205661,31.1673318 56.0742315,31.4292339 55.5997697,31.224827 C55.6179677,31.3866725 55.6406684,31.5068898 55.6434825,31.6275738 C55.6535195,32.0775489 55.48561,32.2252072 55.0368506,32.241541 C54.8973637,32.2464879 54.7620042,32.3644651 54.6247686,32.430734 C54.748684,32.5456312 54.8561836,32.6942228 55.0018616,32.7646919 C55.1161151,32.8200404 55.2795221,32.7939062 55.4178833,32.7779456 C55.9344632,32.7182103 56.2951405,32.8767889 56.453482,33.4124468 C56.5706435,33.8085667 56.8158477,33.8015665 57.1355325,33.5937996 C57.3894606,33.4286874 57.6682467,33.2549882 57.9577266,33.2009464 C58.4017958,33.1179703 58.8007452,33.2438812 58.9477364,33.7533116 C58.9648087,33.8123935 58.9916368,33.8707288 59.0243744,33.9229039 C59.4804506,34.6497149 59.4733215,34.7125303 58.9131226,35.1907863 C59.1980061,35.4144204 59.5402039,35.6047334 59.7733074,35.8847428 C60.1088451,36.2878629 60.0700101,36.7049835 59.6693723,37.0390347 C59.2192058,37.4145273 59.0444485,37.7834863 59.2848688,38.3691725 C59.3766093,38.5927133 59.2050414,38.923311 59.153449,39.2051871 C59.1052337,39.1581455 59.0570183,39.1110106 59.0088029,39.0639691 C58.4978513,39.1286512 57.9882129,39.2230144 57.475479,39.2446684 C57.2421879,39.2545621 56.9601186,39.1769995 56.7762623,39.0388616 C56.5015098,38.8324013 56.2713142,38.8070138 55.9600718,38.9305913 C54.9687487,39.3240978 53.9640116,39.6840965 52.9731576,40.0783496 C52.7514044,40.1665526 52.5535713,40.3279313 52.3638991,40.479323 C51.7902863,40.9366716 51.2669525,41.3992471 50.4007643,41.1451853 C49.9507854,41.0131142 49.4434921,41.247762 49.1493221,41.6972704 C48.8852632,42.1008572 48.5289009,42.3173978 48.0492799,42.4071875 C47.7205899,42.4686962 47.4114112,42.6381018 47.0961352,42.7657861 C46.4926926,43.0103276 45.9073542,43.3166579 45.2845879,43.4928771 C44.416336,43.7385386 43.7136486,44.1978473 43.2133906,44.9186847 C42.3993575,46.0917373 41.6019278,47.2793503 40.8684726,48.5028979 C40.6351815,48.8919242 40.5974722,49.4100349 40.5226164,49.8773705 C40.3349141,51.049863 40.2937341,52.2230089 40.594189,53.3900879 C40.7007506,53.804035 40.7646313,54.2288092 40.8681912,54.75" id="Fill-1" fill="#FFFFFF"></path>
              <path d="M51.747032,44.5 C52.7836247,44.5 53.7216068,44.919598 54.4005489,45.5977349 C55.0799699,46.27635 55.5,47.2138734 55.5,48.2491096 C55.5,50.82675 53.6216001,52.6029721 51.1784141,54.787213 C50.4345971,55.4521954 49.6429907,56.1595914 48.8517903,56.9508712 C48.7320286,57.0706451 48.6141887,57.190428 48.4980927,57.3097768 C48.3821065,57.1902543 48.2643448,57.0705691 48.1446642,56.9508874 C47.3546372,56.1608532 46.5644542,55.4544358 45.8219623,54.7903645 C43.3781088,52.6046264 41.5,50.8280258 41.5,48.2491393 C41.5,47.2142108 41.9197956,46.2769285 42.5983367,45.5983813 C43.2769311,44.9197807 44.2142719,44.5 45.2491096,44.5 C46.1523657,44.5 46.8353742,44.7254173 47.4087146,45.1554148 C47.8149402,45.4600784 48.1667331,45.87498 48.4982003,46.4062597 C48.8295267,45.8749555 49.1812505,45.4600936 49.5874141,45.1554486 C50.1607283,44.7254315 50.84375,44.5 51.747032,44.5 Z" id="Path" stroke="#3F5450" fill="#e48e45" fill-rule="nonzero"></path>
            </g>
          </g>
        </g>
      </g>
    </g>
  </g>
</svg>
