<?xml version="1.0" encoding="UTF-8"?>
<svg preserveAspectRatio="xMidYMin slice" xmlns="http://www.w3.org/2000/svg" xmlns:xlink="http://www.w3.org/1999/xlink" width="210px" height="60px" viewBox="0 0 210 60" version="1.1">
  <title>Logo</title>
  <defs>
    <rect id="path-1" x="0" y="0" width="210" height="60"></rect>
  </defs>
  <g id="Who-is-Mahlatini" stroke="none" stroke-width="1" fill="none" fill-rule="evenodd">
    <g id="5.0---Who-is-Mahlatini---Mahlatini-Reviews" transform="translate(-985.000000, -710.000000)">
      <g id="Customer-Reviews" transform="translate(0.000000, 590.000000)">
        <g id="Logo" transform="translate(985.000000, 120.000000)">
          <mask id="mask-2" fill="white">
            <use xlink:href="#path-1"></use>
          </mask>
          <g id="Rectangle"></g>
          <path d="M119.575,21.05 C122.288333,21.05 124.616667,21.9666667 126.486667,23.745 C128.485,25.5966667 129.548333,28.1816667 129.548333,30.7116667 C129.548333,33.5166667 128.613333,35.845 126.706667,37.7516667 C124.8,39.6583333 122.435,40.6666667 119.63,40.6666667 C116.788333,40.6666667 114.496667,39.695 112.59,37.6783333 C110.793333,35.8083333 109.858333,33.4066667 109.858333,30.8033333 C109.858333,28.2 110.848333,25.8166667 112.7,23.965 C114.57,22.0766667 117.045,21.05 119.575,21.05 Z M69.5066667,20.9216667 C75.4466667,20.9216667 79.4983333,25.2116667 79.4983333,32.1416667 L79.4983333,32.1416667 L79.4983333,32.7466667 L65.4366667,32.6916667 C65.9133333,34.69 67.3616667,35.7166667 69.745,35.7166667 C70.845,35.7166667 71.7616667,35.4233333 72.5866667,34.69 L72.5866667,34.69 L78.6183333,34.69 C76.8033333,38.5766667 73.7233333,40.5566667 69.5616667,40.5566667 C66.72,40.5566667 64.4283333,39.585 62.5216667,37.5683333 C60.725,35.68 59.79,33.315 59.79,30.675 C59.79,28.0716667 60.78,25.6883333 62.6316667,23.8366667 C64.5016667,21.9483333 66.9766667,20.9216667 69.5066667,20.9216667 Z M90.26,20.9216667 C96.2,20.9216667 100.251667,25.2116667 100.251667,32.1416667 L100.251667,32.1416667 L100.251667,32.7466667 L86.19,32.6916667 C86.6666667,34.69 88.115,35.7166667 90.4983333,35.7166667 C91.5983333,35.7166667 92.515,35.4233333 93.34,34.69 L93.34,34.69 L99.3716667,34.69 C97.5566667,38.5766667 94.4766667,40.5566667 90.315,40.5566667 C87.4733333,40.5566667 85.1816667,39.585 83.275,37.5683333 C81.4783333,35.68 80.5433333,33.315 80.5433333,30.675 C80.5433333,28.0716667 81.5333333,25.6883333 83.385,23.8366667 C85.255,21.9483333 87.73,20.9216667 90.26,20.9216667 Z M58.7266667,15 C58.9833333,15 59.2766667,15.0366667 59.5883333,15.0366667 L59.5883333,15.0366667 L59.5883333,18.795 L59.4416667,18.795 C57.7733333,18.795 57.3883333,19.345 57.3883333,21.05 L57.3883333,21.05 L57.3883333,21.5083333 L59.6066667,21.5083333 L59.6066667,25.67 L57.4066667,25.67 L57.4066667,40.1533333 L52.0166667,40.1533333 L52.0166667,25.67 L50,25.67 L50,21.5083333 L52.0166667,21.5083333 C52.0166667,21.27 51.98,21.0133333 51.98,20.8116667 C51.98,16.8333333 54.125,15.0183333 58.7266667,15 Z M109.051667,15.0183333 C109.308333,15.0183333 109.601667,15.055 109.913333,15.055 L109.913333,15.055 L109.913333,18.795 L109.766667,18.795 C108.098333,18.795 107.713333,19.345 107.713333,21.05 L107.713333,21.05 L107.713333,21.5083333 L109.913333,21.5083333 L109.913333,25.67 L107.713333,25.67 L107.713333,40.1533333 L102.323333,40.1533333 L102.323333,25.67 L100.325,25.67 L100.325,21.5083333 L102.341667,21.5083333 C102.341667,21.27 102.305,21.0133333 102.305,20.8116667 C102.305,16.8333333 104.45,15.0183333 109.051667,15.0183333 Z M119.703333,26.2383333 C117.283333,26.2383333 115.303333,28.2916667 115.303333,30.8583333 C115.303333,33.3883333 117.32,35.4416667 119.703333,35.4416667 C122.123333,35.4416667 124.103333,33.3883333 124.103333,30.8583333 C124.103333,28.2733333 122.123333,26.2383333 119.703333,26.2383333 Z M69.58,25.9083333 C67.2883333,25.9083333 65.6566667,27.0816667 65.2716667,28.86 L65.2716667,28.86 L73.98,28.86 C73.32,26.9533333 71.7616667,25.9266667 69.58,25.9083333 Z M90.315,25.9083333 C88.0233333,25.9083333 86.3916667,27.0816667 86.0066667,28.86 L86.0066667,28.86 L94.715,28.86 C94.0733333,26.9533333 92.4966667,25.9266667 90.315,25.9083333 Z" id="Combined-Shape" fill="#2B3834" fill-rule="nonzero" mask="url(#mask-2)"></path>
          <path d="M137.981667,27.6683333 C135.341667,27.5033333 133.233333,25.395 133.068333,22.7366667 L143.518333,22.7366667 L144.618333,22.7366667 L144.618333,22.6083333 C144.618333,18.08 141.721667,15.0366667 137.725,15.0366667 C133.49,15.0366667 130.611667,18.135 130.611667,22.1683333 C130.611667,25.9816667 133.581667,29.3366667 137.633333,29.3366667 C140.585,29.3366667 142.913333,27.705 144.178333,24.6616667 L143.023333,24.6616667 C142.18,26.44 140.383333,27.6683333 138.311667,27.6683333 C138.165,27.6866667 138.073333,27.6866667 137.981667,27.6683333" id="Path" fill="#FFC03F" fill-rule="nonzero" mask="url(#mask-2)"></path>
          <path d="M152.63,27.6683333 C155.27,27.5033333 157.378333,25.395 157.543333,22.7366667 L147.093333,22.7366667 L145.993333,22.7366667 L145.993333,22.6083333 C145.993333,18.08 148.89,15.0366667 152.886667,15.0366667 C157.121667,15.0366667 160,18.135 160,22.1683333 C160,25.9816667 157.03,29.3366667 152.978333,29.3366667 C150.026667,29.3366667 147.698333,27.705 146.433333,24.6616667 L147.606667,24.6616667 C148.45,26.44 150.246667,27.6683333 152.318333,27.6683333 C152.41,27.6866667 152.52,27.6866667 152.63,27.6683333" id="Path" fill="#FFC03F" fill-rule="nonzero" mask="url(#mask-2)"></path>
        </g>
      </g>
    </g>
  </g>
</svg>
