<svg xmlns="http://www.w3.org/2000/svg" viewBox="0 0 235.52 67.9"><defs><style>.cls-1{fill:#e6e7e8;}.cls-2{fill:#e48e43;}</style></defs><g id="Layer_2" data-name="Layer 2"><g id="Layer_1-2" data-name="Layer 1"><path class="cls-1" d="M112.05,20.44l2.37-2.8a9,9,0,0,0,6,2.62c2.59,0,4-1.17,4-3s-1.49-2.49-3.57-3.38l-3.14-1.36c-2.26-.94-4.64-2.73-4.64-6.09,0-3.65,3.23-6.47,7.71-6.47a10.07,10.07,0,0,1,7.08,2.93l-2.1,2.58a7.4,7.4,0,0,0-5-2c-2.18,0-3.6,1-3.6,2.69s1.75,2.48,3.66,3.26l3.09,1.29c2.73,1.14,4.64,2.87,4.64,6.2,0,3.72-3.09,6.82-8.24,6.82A11.84,11.84,0,0,1,112.05,20.44Z"/><path class="cls-1" d="M131,13.31V.42h4.07v13.2c0,5,1.87,6.64,4.65,6.64s4.75-1.64,4.75-6.64V.42h3.92V13.31c0,7.54-3.34,10.49-8.67,10.49S131,20.85,131,13.31Z"/><path class="cls-1" d="M155,.42h4.61l4.06,11.22c.5,1.46,1,3,1.47,4.51h.14c.51-1.5.94-3,1.45-4.51l4-11.22h4.61v23h-3.74V12.88c0-2.12.33-5.18.52-7.31h-.14l-1.85,5.34-3.78,10.32h-2.41l-3.8-10.32-1.82-5.34h-.14c.2,2.13.52,5.19.52,7.31v10.5H155Z"/><path class="cls-1" d="M182,.42h4.61l4.05,11.22c.51,1.46,1,3,1.48,4.51h.14c.5-1.5.94-3,1.44-4.51l4-11.22h4.6v23h-3.73V12.88c0-2.12.32-5.18.52-7.31h-.14l-1.86,5.34-3.77,10.32h-2.42L187.1,10.91l-1.82-5.34h-.15c.2,2.13.52,5.19.52,7.31v10.5H182Z"/><path class="cls-1" d="M210.28.42h4.08v23h-4.08Z"/><path class="cls-1" d="M224.43,3.85H217.8V.42h17.33V3.85H228.5V23.38h-4.07Z"/><path class="cls-1" d="M0,30.78H6.46V45.43H21.2V30.78h6.46V67.23H21.2V51.07H6.46V67.23H0Z"/><path class="cls-1" d="M35,48.86c0-11.79,6.58-18.74,16.07-18.74s16.08,7,16.08,18.74-6.58,19-16.08,19S35,60.66,35,48.86Zm25.5,0c0-8.18-3.7-13.13-9.43-13.13s-9.43,5-9.43,13.13,3.71,13.42,9.43,13.42S60.53,57,60.53,48.86Z"/><path class="cls-1" d="M74.51,30.78H81v31h19.81v5.44H74.51Z"/><path class="cls-2" d="M95.34,31h5.44V56.15H95.34Z"/><path class="cls-1" d="M112.05,30.78h9.72c11.17,0,17.77,6,17.77,18.08s-6.6,18.37-17.44,18.37h-10ZM121.34,62c7.34,0,11.55-4.17,11.55-13.13S128.68,36,121.34,36h-2.83V62Z"/><path class="cls-1" d="M156.24,30.78h7.58L175.7,67.23h-6.84l-5.55-19.39c-1.16-3.86-2.23-8-3.3-12h-.22c-1,4-2.08,8.16-3.23,12L151,67.23h-6.6Zm-4.86,21.5h17.17v5.08H151.38Z"/><path class="cls-1" d="M189.45,53.68l-11-22.9h6.91l4,9.32c1.07,2.71,2.09,5.24,3.24,8h.22c1.15-2.78,2.3-5.31,3.36-8l4-9.32h6.74l-11,22.9V67.23h-6.47Z"/><path class="cls-1" d="M209.31,62.56l3.77-4.44a14.26,14.26,0,0,0,9.49,4.16c4.11,0,6.36-1.86,6.36-4.7,0-3-2.35-4-5.67-5.36l-5-2.16c-3.59-1.5-7.37-4.34-7.37-9.67,0-5.81,5.13-10.27,12.24-10.27a16,16,0,0,1,11.24,4.64l-3.32,4.1a11.77,11.77,0,0,0-7.92-3.13c-3.45,0-5.7,1.62-5.7,4.28,0,2.87,2.77,3.93,5.79,5.16l4.92,2.07c4.33,1.8,7.36,4.54,7.36,9.83,0,5.9-4.9,10.83-13.08,10.83A18.76,18.76,0,0,1,209.31,62.56Z"/><path class="cls-2" d="M0,12C0,4.37,5.27,0,11.37,0a10.34,10.34,0,0,1,7.45,3L15.66,6.89a5.74,5.74,0,0,0-4.08-1.68c-3.08,0-5.4,2.46-5.4,6.6s1.89,6.67,6,6.67a3.41,3.41,0,0,0,1.75-.42V14.9H10.53V10h8.71V20.87a11.57,11.57,0,0,1-7.73,2.8C5.13,23.67,0,19.81,0,12Z"/><path class="cls-2" d="M23.66.43h6V23.25h-6Z"/><path class="cls-2" d="M34.05.56h6V18.33h15v5.05h-21Z"/><path class="cls-2" d="M65.71.56H73l7,22.82H73.58L71,12.29c-.56-2.18-1.12-4.95-1.69-7.23h-.14c-.49,2.31-1.05,5.05-1.61,7.23l-2.6,11.09H58.76Zm-2,13.31H74.91v4.67H63.75Z"/><path class="cls-2" d="M81.79.56h6.74c7,0,11.72,3.23,11.72,11.31S95.48,23.38,88.88,23.38H81.79Zm6.39,18c3.3,0,5.9-1.34,5.9-6.67s-2.6-6.46-5.9-6.46h-.35V18.54Z"/><path class="cls-2" d="M42.64,1.24H54.76V4.53H47.6V6.87h6.12v3.3H47.6v2.66h7.45v3.3H42.64Z"/></g></g></svg>