<?xml version="1.0" encoding="UTF-8"?>
<svg preserveAspectRatio="xMidYMin slice" xmlns="http://www.w3.org/2000/svg" xmlns:xlink="http://www.w3.org/1999/xlink" width="210px" height="60px" viewBox="0 0 210 60" version="1.1">
  <title>Logo</title>
  <defs>
    <rect id="path-1" x="0" y="0" width="210" height="60"></rect>
  </defs>
  <g id="Who-is-Mahlatini" stroke="none" stroke-width="1" fill="none" fill-rule="evenodd">
    <g id="5.0---Who-is-Mahlatini---Mahlatini-Reviews" transform="translate(-465.000000, -710.000000)">
      <g id="Customer-Reviews" transform="translate(0.000000, 590.000000)">
        <g id="Logo" transform="translate(465.000000, 120.000000)">
          <mask id="mask-2" fill="white">
            <use xlink:href="#path-1"></use>
          </mask>
          <g id="Rectangle"></g>
          <path d="M190.533899,27.5419629 L190.533899,25.1912997 L186.928806,25.1912997 L186.928806,39.1790981 L190.533899,39.1790981 L190.533899,30.7919894 C190.533899,29.2727321 191.508541,28.5274271 193.027798,28.5274271 L195,28.5274271 L195,25.1912997 L193.31443,25.1912997 C191.996021,25.1912997 190.849178,25.8793103 190.533899,27.5419629 L190.533899,27.5419629 Z M144.952679,35.3486472 L141.75374,25.1912997 L137.976286,25.1912997 L142.774536,39.1790981 L147.102175,39.1790981 L151.929231,25.1912997 L148.151618,25.1912997 L144.952679,35.3486472 Z M75.1811141,20.2127321 L61.3846154,20.2127321 L61.3846154,23.4212202 L66.4911406,23.4212202 L66.4911406,39.1790981 L70.0744297,39.1790981 L70.0744297,23.4212202 L75.1811141,23.4212202 L75.1811141,20.2127321 Z M181.96122,32.1851989 C181.96122,30.0161273 180.202759,28.2576658 178.033687,28.2576658 C175.864456,28.2576658 174.106154,30.0161273 174.106154,32.1851989 C174.106154,34.3544297 175.864456,36.1128912 178.033687,36.1128912 C180.202759,36.1128912 181.96122,34.3544297 181.96122,32.1851989 L181.96122,32.1851989 Z M185.263767,32.1851989 C185.263767,36.1784615 182.02679,39.4152785 178.033687,39.4152785 C174.040584,39.4152785 170.803607,36.1784615 170.803607,32.1851989 C170.803607,28.1920955 174.040584,24.9551194 178.033687,24.9551194 C182.02679,24.9551194 185.263767,28.1920955 185.263767,32.1851989 L185.263767,32.1851989 Z M155.231459,19.6580902 C153.998833,19.6580902 153.052838,20.6327321 153.052838,21.8653581 C153.052838,23.0693369 153.998833,24.0438196 155.231459,24.0438196 C156.463926,24.0438196 157.40992,23.0693369 157.40992,21.8653581 C157.40992,20.6327321 156.463926,19.6580902 155.231459,19.6580902 L155.231459,19.6580902 Z M153.433687,39.1790981 L157.029231,39.1790981 L157.029231,25.1914589 L153.433687,25.1914589 L153.433687,39.1790981 Z M133.137613,32.1851989 C133.137613,30.0161273 131.37931,28.2576658 129.210239,28.2576658 C127.041167,28.2576658 125.282706,30.0161273 125.282706,32.1851989 C125.282706,34.3544297 127.041167,36.1128912 129.210239,36.1128912 C131.37931,36.1128912 133.137613,34.3544297 133.137613,32.1851989 L133.137613,32.1851989 Z M133.137613,20.2127321 L136.733156,20.2127321 L136.733156,39.1790981 L133.137613,39.1790981 L133.137613,37.9962865 C131.966737,38.8875332 130.504775,39.4152785 128.893369,39.4152785 C124.900424,39.4152785 121.663289,36.1784615 121.663289,32.1851989 C121.663289,28.1920955 124.900424,24.9551194 128.893369,24.9551194 C130.504775,24.9551194 131.966737,25.4828647 133.137613,26.3742706 L133.137613,20.2127321 Z M116.555332,32.1855172 L116.555332,32.1848806 C116.555172,30.015809 114.796711,28.2576658 112.627798,28.2576658 C110.458727,28.2576658 108.700424,30.0161273 108.700424,32.1851989 C108.700424,34.3544297 110.458727,36.1128912 112.627798,36.1128912 C114.796711,36.1128912 116.555172,34.354748 116.555332,32.1855172 L116.555332,32.1855172 Z M116.555332,25.1912997 L120.151034,25.1912997 L120.151034,39.1790981 L116.555332,39.1790981 L116.555332,37.9962865 C115.384456,38.8875332 113.922653,39.4152785 112.311088,39.4152785 C108.317984,39.4152785 105.081008,36.1784615 105.081008,32.1851989 C105.081008,28.1920955 108.317984,24.9551194 112.311088,24.9551194 C113.922653,24.9551194 115.384456,25.4828647 116.555332,26.3742706 L116.555332,25.1912997 Z M166.307745,30.9581432 L164.209814,30.3824934 C162.829496,30.0232891 162.291565,29.5993103 162.291565,28.8702387 C162.291565,28.158992 163.047215,27.6622812 164.129125,27.6622812 C165.15931,27.6622812 165.966366,28.3374005 165.966366,29.1990451 L165.966366,29.2786207 L169.281008,29.2786207 L169.281008,29.1990451 C169.281008,26.6605836 167.21061,24.9551194 164.129125,24.9551194 C161.076286,24.9551194 158.860424,26.6593103 158.860424,29.0072679 C158.860424,30.8343236 160.071724,32.2103448 162.183183,32.7823342 L164.192467,33.3299735 C165.719045,33.7525199 166.286578,34.2220159 166.286578,35.0616976 C166.286578,35.9481698 165.466313,36.5438727 164.245464,36.5438727 C162.972255,36.5438727 162.116817,35.7388859 162.116817,34.5412732 L162.116817,34.4616976 L158.598462,34.4616976 L158.598462,34.5412732 C158.598462,37.4109284 160.908541,39.4152785 164.216499,39.4152785 C167.404138,39.4152785 169.717719,37.4577188 169.717719,34.7604244 C169.717719,33.4407427 169.125995,31.7098143 166.307745,30.9581432 L166.307745,30.9581432 Z M100.177241,32.1851989 C100.177241,30.0161273 98.4187798,28.2576658 96.2497082,28.2576658 C94.0806366,28.2576658 92.3221751,30.0161273 92.3221751,32.1851989 C92.3221751,34.3544297 94.0806366,36.1128912 96.2497082,36.1128912 C98.4187798,36.1128912 100.177241,34.3544297 100.177241,32.1851989 L100.177241,32.1851989 Z M103.796499,32.1851989 C103.796499,36.1784615 100.559523,39.4152785 96.5664191,39.4152785 C94.9548541,39.4152785 93.4932095,38.8875332 92.3221751,37.9962865 L92.3221751,43.2853581 L88.7266313,43.2853581 L88.7266313,25.1912997 L92.3221751,25.1912997 L92.3221751,26.3742706 C93.4932095,25.4828647 94.9548541,24.9551194 96.5664191,24.9551194 C100.559523,24.9551194 103.796499,28.1920955 103.796499,32.1851989 L103.796499,32.1851989 Z M83.0684881,39.1790981 L86.664191,39.1790981 L86.664191,25.1914589 L83.0684881,25.1914589 L83.0684881,39.1790981 Z M84.8662599,19.6580902 C83.6337931,19.6580902 82.6877984,20.6327321 82.6877984,21.8653581 C82.6877984,23.0693369 83.6337931,24.0438196 84.8662599,24.0438196 C86.0988859,24.0438196 87.0448806,23.0693369 87.0448806,21.8653581 C87.0448806,20.6327321 86.0988859,19.6580902 84.8662599,19.6580902 L84.8662599,19.6580902 Z M77.0226525,27.5419629 L77.0226525,25.1912997 L73.4175597,25.1912997 L73.4175597,39.1790981 L77.0226525,39.1790981 L77.0226525,30.7919894 C77.0226525,29.2727321 77.9974536,28.5274271 79.5165517,28.5274271 L81.4887533,28.5274271 L81.4887533,25.1912997 L79.803183,25.1912997 C78.4846154,25.1912997 77.3380902,25.8793103 77.0226525,27.5419629 L77.0226525,27.5419629 Z M54.3843501,31.9318302 C54.3843501,27.9293369 51.1397347,24.6847215 47.1372414,24.6847215 C43.134748,24.6847215 39.8899735,27.9293369 39.8899735,31.9318302 C39.8899735,35.9343236 43.134748,39.1790981 47.1372414,39.1790981 C51.1397347,39.1790981 54.3843501,35.9343236 54.3843501,31.9318302 L54.3843501,31.9318302 Z M44.4728912,21.1125729 C41.9971353,20.0769761 39.2799469,19.5038727 36.4285942,19.5038727 C33.5781963,19.5038727 30.862122,20.0771353 28.3871618,21.1120955 C32.9618037,22.8619629 36.4306631,26.9540584 36.4306631,31.723183 C36.4306631,26.9543767 39.8988859,22.8625995 44.4728912,21.1125729 L44.4728912,21.1125729 Z M32.9667374,31.9318302 C32.9667374,27.9293369 29.722122,24.6847215 25.7196286,24.6847215 C21.7171353,24.6847215 18.4725199,27.9293369 18.4725199,31.9318302 C18.4725199,35.9343236 21.7171353,39.1790981 25.7196286,39.1790981 C29.722122,39.1790981 32.9667374,35.9343236 32.9667374,31.9318302 L32.9667374,31.9318302 Z M57.8503448,31.9318302 C57.8503448,37.8462069 53.0514589,42.6406366 47.1372414,42.6406366 C44.3279045,42.6406366 41.7717772,41.5582493 39.8616446,39.7883289 L36.4306631,43.5215385 L32.9974536,39.7865782 C31.087321,41.5574536 28.5300796,42.6406366 25.7196286,42.6406366 C19.8054111,42.6406366 15.0109814,37.8462069 15.0109814,31.9318302 C15.0109814,28.79687 16.3572414,25.9759151 18.5038727,24.0174005 L15,20.2047745 L22.7880637,20.2047745 C26.6719894,17.5518833 31.3554907,16 36.4285942,16 C41.5082228,16 46.2039788,17.5496552 50.0929973,20.2047745 L57.8611671,20.2047745 L54.3571353,24.0174005 C56.5040849,25.9759151 57.8503448,28.79687 57.8503448,31.9318302 L57.8503448,31.9318302 Z M47.1572944,28.1039257 C45.0550663,28.1039257 43.3510345,29.8081167 43.3510345,31.9101857 C43.3510345,34.0122546 45.0550663,35.7162865 47.1572944,35.7162865 C49.2593634,35.7162865 50.9633952,34.0122546 50.9633952,31.9101857 C50.9633952,29.8081167 49.2593634,28.1039257 47.1572944,28.1039257 L47.1572944,28.1039257 Z M29.5058355,31.9101857 C29.5058355,34.0122546 27.8016446,35.7162865 25.6995756,35.7162865 C23.5975066,35.7162865 21.8934748,34.0122546 21.8934748,31.9101857 C21.8934748,29.8081167 23.5975066,28.1039257 25.6995756,28.1039257 C27.8016446,28.1039257 29.5058355,29.8081167 29.5058355,31.9101857 L29.5058355,31.9101857 Z" id="Fill-1" fill="#2B3834" mask="url(#mask-2)"></path>
        </g>
      </g>
    </g>
  </g>
</svg>
