<?xml version="1.0" encoding="UTF-8"?>
<svg preserveAspectRatio="xMidYMid slice" xmlns="http://www.w3.org/2000/svg" xmlns:xlink="http://www.w3.org/1999/xlink" width="80px" height="80px" viewBox="0 0 80 80" version="1.1">
  <title>Group 12</title>
  <g id="Itineraries" stroke="none" stroke-width="1" fill="none" fill-rule="evenodd">
    <g id="6.0---Itineraries---Specific---No-Highlights-Block" transform="translate(-1325.000000, -10963.000000)">
      <g id="Overview" transform="translate(0.000000, 10434.000000)">
        <g id="USPs" transform="translate(435.000000, 529.000000)">
          <g id="4" transform="translate(810.000000, 0.000000)">
            <g id="Group-12" transform="translate(80.000000, 0.000000)">
              <g id="Group-8" transform="translate(23.000000, 20.000000)">
                <path d="M29.7818182,5.18958797 C32.1315388,5.18958797 34.0363636,7.09441286 34.0363636,9.44413343 L34.0363636,9.44413343 L34.036,17.298588 L32.399,17.298588 L32.4,9.44413343 C32.4,8.05376623 31.3162353,6.91652584 29.9473961,6.83110256 L29.7818182,6.82595161 L4.25454545,6.82595161 C2.80856356,6.82595161 1.63636364,7.99815154 1.63636364,9.44413343 L1.63636364,9.44413343 L1.63636364,31.6986789 C1.63636364,33.1446608 2.80856356,34.3168607 4.25454545,34.3168607 L4.25454545,34.3168607 L29.7818182,34.3168607 C31.2278001,34.3168607 32.4,33.1446608 32.4,31.6986789 L32.4,31.6986789 L32.399,25.152588 L34.036,25.152588 L34.0363636,31.6986789 C34.0363636,33.97929 32.2419395,35.840791 29.9879547,35.9483182 L29.7818182,35.9532243 L4.25454545,35.9532243 C1.90482488,35.9532243 0,34.0483995 0,31.6986789 L0,31.6986789 L0,9.44413343 C0,7.09441286 1.90482488,5.18958797 4.25454545,5.18958797 L4.25454545,5.18958797 Z" id="Combined-Shape" fill="#FFFFFF" fill-rule="nonzero"></path>
                <path d="M24.8846131,1.25310886 L29.4300676,9.12606708 C29.6073641,9.43315357 29.6939675,9.76771437 29.6981884,10.098734 L6.15306346,10.0978595 C6.32307114,9.7843723 6.57903908,9.51243585 6.91051514,9.32105806 L22.1525622,0.521058057 C23.1091475,-0.0312266926 24.3323283,0.296523618 24.8846131,1.25310886 Z" id="Combined-Shape" fill="#e48e45"></path>
                <path d="M32.7272727,8.95322434 C33.1791421,8.95322434 33.5454545,9.31953681 33.5454545,9.77140615 C33.5454545,10.1950337 33.2235002,10.5434647 32.8109271,10.5853638 L32.7272727,10.589588 L3.92727273,10.589588 C3.47540339,10.589588 3.10909091,10.2232755 3.10909091,9.77140615 C3.10909091,9.34777865 3.43104523,8.9993476 3.84361839,8.95744852 L3.92727273,8.95322434 L32.7272727,8.95322434 Z" id="Line" fill="#FFFFFF" fill-rule="nonzero"></path>
                <path d="M34.3636364,16.3168607 L27.8181818,16.3168607 C25.1069658,16.3168607 22.9090909,18.5147356 22.9090909,21.2259516 C22.9090909,23.9371677 25.1069658,26.1350425 27.8181818,26.1350425 L34.3636364,26.1350425 C35.267375,26.1350425 36,25.4024176 36,24.4986789 L36,17.9532243 C36,17.0494857 35.267375,16.3168607 34.3636364,16.3168607 Z M34.3636364,17.9532243 L34.3636364,24.4986789 L27.8181818,24.4986789 C26.0107045,24.4986789 24.5454545,23.033429 24.5454545,21.2259516 C24.5454545,19.4184742 26.0107045,17.9532243 27.8181818,17.9532243 L34.3636364,17.9532243 Z" id="Combined-Shape" fill="#FFFFFF" fill-rule="nonzero"></path>
                <circle id="Oval" fill="#FFFFFF" cx="27.8181818" cy="21.2259516" r="1.30909091"></circle>
              </g>
            </g>
          </g>
        </g>
      </g>
    </g>
  </g>
</svg>
